<mxfile host="app.diagrams.net" agent="Mozilla/5.0 (Windows NT 10.0; Win64; x64) AppleWebKit/537.36 (KHTML, like Gecko) Chrome/133.0.0.0 Safari/537.36 Edg/133.0.0.0" version="26.0.13">
  <diagram id="2fe18623-542f-d003-d1d0-6d74b0816c63" name="Page-1">
    <mxGraphModel dx="1489" dy="1907" grid="1" gridSize="10" guides="1" tooltips="1" connect="1" arrows="1" fold="1" page="1" pageScale="1" pageWidth="850" pageHeight="1100" math="0" shadow="0">
      <root>
        <mxCell id="0" />
        <mxCell id="1" parent="0" />
        <mxCell id="77b5d1e07de64d0e-6" value="" style="rounded=0;whiteSpace=wrap;html=1;strokeColor=none;strokeWidth=2;fillColor=#FFFFFF;" parent="1" vertex="1">
          <mxGeometry x="28" y="3" width="2312" height="1097" as="geometry" />
        </mxCell>
        <mxCell id="76ca130da949314d-14" value="" style="rounded=0;whiteSpace=wrap;html=1;fillColor=#f0a30a;strokeColor=#BD7000;strokeWidth=2;opacity=30;fontColor=#000000;" parent="1" vertex="1">
          <mxGeometry x="1758" width="580" height="1100" as="geometry" />
        </mxCell>
        <mxCell id="76ca130da949314d-13" value="" style="rounded=0;whiteSpace=wrap;html=1;fillColor=#60a917;strokeColor=#2D7600;strokeWidth=2;opacity=30;fontColor=#ffffff;" parent="1" vertex="1">
          <mxGeometry x="609.5" y="1.5" width="1150" height="1100" as="geometry" />
        </mxCell>
        <mxCell id="76ca130da949314d-12" value="" style="rounded=0;whiteSpace=wrap;html=1;fillColor=#0050ef;strokeColor=#001DBC;strokeWidth=2;opacity=40;fontColor=#ffffff;" parent="1" vertex="1">
          <mxGeometry x="28" width="580" height="1100" as="geometry" />
        </mxCell>
        <mxCell id="936c7dcc6c945c4-26" value="&lt;h1 style=&quot;text-align: center&quot;&gt;&lt;font style=&quot;font-size: 30px&quot;&gt;App&lt;/font&gt;&lt;/h1&gt;" style="text;html=1;strokeColor=none;fillColor=none;spacing=5;spacingTop=-20;whiteSpace=wrap;overflow=hidden;rounded=0;labelBackgroundColor=none;fontSize=21;align=left;" parent="1" vertex="1">
          <mxGeometry x="1157.5" y="-12" width="70" height="78" as="geometry" />
        </mxCell>
        <mxCell id="163ea859c18c2f6b-12" value="&lt;b&gt;Personas + Features&lt;/b&gt;" style="text;html=1;strokeColor=none;fillColor=none;align=center;verticalAlign=middle;whiteSpace=wrap;rounded=0;fontSize=21;" parent="1" vertex="1">
          <mxGeometry x="27.5" y="26" width="580" height="20" as="geometry" />
        </mxCell>
        <mxCell id="163ea859c18c2f6b-23" value="&lt;b&gt;Backend Services&lt;/b&gt;" style="text;html=1;strokeColor=none;fillColor=none;align=center;verticalAlign=middle;whiteSpace=wrap;rounded=0;fontSize=21;" parent="1" vertex="1">
          <mxGeometry x="1757.5" y="26" width="580" height="20" as="geometry" />
        </mxCell>
        <mxCell id="77b5d1e07de64d0e-1" value="" style="endArrow=none;html=1;exitX=0;exitY=0.75;entryX=1;entryY=0.75;" parent="1" edge="1">
          <mxGeometry width="50" height="50" relative="1" as="geometry">
            <mxPoint x="28" y="60" as="sourcePoint" />
            <mxPoint x="2338" y="60" as="targetPoint" />
          </mxGeometry>
        </mxCell>
        <mxCell id="77b5d1e07de64d0e-2" value="" style="shape=image;verticalLabelPosition=bottom;labelBackgroundColor=#ffffff;verticalAlign=top;aspect=fixed;imageAspect=0;image=data:image/png,iVBORw0KGgoAAAANSUhEUgAAArMAAALQCAYAAACDh/jvAACRiUlEQVR42uzdeXxW1Z0/8M/3nHufJ4CIS2sXFQG1i62jtoq7kOUJhEWQVttaqQiEkEjKTDvtzHS2zvxmpjOdzmJREKIWim3d6gYkgWyiUhW32n3qWpW2aq0LCslzzznf3x+5D0bqwpLlSfJ5v16+WpElnNzn3M8993u+R0BENLQIAJx//vnm+eefFwA47LDD9MYbbwwA9J1+4fnnn5/5/e9/f2gcxwd77w8B8B4AH0j/9yAROQTAGFUdA2AUgBEiUgJgRPpPiaoKABGRaPffX1UTdP/HAKATwE5V7QSwM/3310TkVQAvq+ofAbwM4A/GmN+q6oshhD+KyEsf/vCHX1y1alXybuPwNmOAdxsHIqJBN+kTEQ3iOUzq6+vlySeflPHjx+uyZcv82/3kXC53cBRFh3R1db0/iqLxAI4UkbEADk+S5PAQwpgQwgEiMtoYM9IYA5G3niZVu/NgCOFPfuxdv+gev6cx5i1/fPc/y3sPVX09hPBaFEXbjTEvW2u3GWO2qerTIvJMCOEJAL8fMWLES7fddtsrb/fnz549O/LeY9y4cbps2TJNwy0DLhExzBIR9fWcVV9fb5588kk58sgjdcWKFW8ZXM8999xDOzs7jw0hTLDWHgvg4yGEcd77w0MI77fWiojsCpKquuufQjhNg2noEVZ7hj3pEUJlH+dU3f3/p3+W7v77pX+WKYTdQsgu/FP4tWnodSLynLX2d8aYxwH8DMBjURQ98frrrz+2efPmP77VF1NfX297PBC86yo2ERHDLBHRu89PMmvWLDN27Ni3DFjz58+3zzzzzHhr7YdCCCcA+Jiqfsh7f4yqHhxFb7zp77G6CQAaQgjGGE1DrPQIqFLE82Ph76+F4CsiKiIIIYjp/guItfZNQRcAnHMA8KK19jFr7a8B/Nxa+1AI4cnm5uYnAITd/iyzZMkSAYDLL7+cq7dExDBLRLQHTH19vTz99NNy2223ud3/44wZM96XJMnHAXzSe3+Cc+6Tqjo2juMRheC2W2h1ABBCKKxwSiEkD+Ex1DTsavp31jToWhFBIegWxiqEsNNa+5Qx5gFV/amIbA0h/KKlpeWF3X/jWbNmRemDhb5F+CUiYpglouE3B9XX15s0vHrs9oq9srJyHICTjTFnee9Pcc59WEQOsdYCwK7Q6r33xpjCq3qThlbOcX8aclFYkU4DvlhrTSHkpv8dqvqCtfb/RGSrqt4tIg9s2rTpmd2/d7NmzbJvt2pORMQwS0RDdt6ZNWuWPeKII/SKK654U83r1KlTx6nqCapapqpne+8/YowZISI9V1wVgE9XG4fDSmufh9wQghpjCiutVkR2lSqkq7c7rLU/F5G7AHRkMpmH169fv63nb1JbW2uttbj88ssZbImIYZaIhhxTV1cnp556ql588cW7Xk+ffvrpBx588MEneO8rQwjlqvpxAKN7htfCqmvPmlAOZ78E3F0ruLbbrnCrqi9bax8B0GaMaYvj+JF169a9/hbBluUIRMQwS0SDN8DOmTPH3HzzzW8qHzj77LM/OGLEiEmqOs17f7aIHGWMeavwanqsvNLAh1s1xoTdw633HgAeN8ZsttY2jhw58s5bbrmlZ72tzJkzx958882BwZaIGGaJqOjnlLcKLlOnTj1GVaeo6hTn3NnW2oOA7prXdKOS58rroAu3Ia1TtsYYsdYWHkheNMbcHcdxI4BNzc3NTxV+0Zo1a8xNN91k1q1bt3t9NBERwywRDdw8smTJEhNCwPLly3fVwE6fPv1o7/20EMJ5zrlTrbUjge4WUT5dzktXXg2HcNALhe4J1lpbaInmvd9urb3HGHOztbapsbHx6cIvqKurs8YY1tgSEcMsEQ2MtWvXmi1btsiVV165K8BOmjTpg9lsdrqqnu+9P9taW6KqcM4hhFAIsFx9Hdq0cNJEz3KEEMJr1trNInJjPp9v7Ojo2FWKsHjxYnvmmWfq3LlzWYZARAyzRNS3c8bSpUvNZZddtms1LZfLHQCgUlUvCCHkrLWH9Kx/ZYBlsC0E2x4rts9bazcaY65//fXX2+++++6d6c83S5culZ7XFxERwywR7bfvfOc75qabbjIbNmzYdZDBlClTTgkhfM57f54xZpyI7F5CwABL7xhs07Zfj1prfxhCuK6tre2Rwk+ePXt2dOutt3LTGBExzBLRvs8PdXV15qSTTtLq6uoAAJWVlQdFUTTbOTfPOXeOtVa893DOBQDKAEt7GmzRvenPRFFkrLXw3ifW2justatDCLdv2rTpNQBYvXq12bp1q/SsxyYiYpglonecF5YsWWIuv/zyXeGhsrLywwAucc59zlo7tlAHi+7jYg24iYv2XWH1NYqiqNDu63Fr7fdFZM2mTZseL/zEpUuXWpYgEBHDLBG97Xwwe/Zse+uttzoAmD9/vv3tb387JYRQ7b2faowp2a2MwHLIqBftKkOIoshaaxFCeN0Y02iMadi4cWNrIcTOmjUreovjj4mIYZaIhilTX18vy5Yt8wAwZ86cA7dv3/4Z59xiY8wnjDFIkgQhBM8yAuonIYSgPTeNici9xpgVY8aMuen666/fAQD19fV22bJlXKklYpglouFo9erV5t57793VWmvGjBkf7OzsvERVFxhjxqcHGoT05CeGWBoIhcMZTBRFoqoA8KgxpiGKou82NTU9B3CzGBHDLBENN2bx4sW7QuzUqVOPDiHUOefmWWsPSTd0eQCFE7mIBlyPEoTChrHnrLXXhBBWtLW1PQPsWqlVhloihlkiGqIhtmc5QWlp6XFxHF/qnPu8tXaMcw6qyg1dVPS5FkAQkSiKInjvX4yi6NoQwhWtra2PMtQSMcwS0RD8nPfc2JXL5T4uIn8eQvi8iOza1MVSAhpkNIQQCnW1IYTt1to1IYRvF0JtWn7AjWJEDLNENBRCbFlZ2YeiKPqyc+5ia202SRKgu7WW5VxAgznUAvA9Vmp3RFF0lff+f9va2p5kqCVimCWiQSh9zeoBYNKkSR/MZDJ/oaqLROTAJEmgql5EuBJLQyrUppvFbBzHCCG8ZK1d0dnZedmdd975PAAsWbLE9uyfTEQMs0RUZOrq6mzhpKRcLncQgBpV/XMReT/ba9FwCrU9jsx9RkS+VVJScvW6deteByBr166VuXPnsp6WiGGWiIqIWb16NebNmxcAmKlTp17svf8agGN6bOxiOQENq1CLHuUHIYRfxHH8r83Nzd8HgMWLF9srr7ySm8SIGGaJaKA/w/X19aZQUjBlypQcgK8DOCNdiWWIpeEuAAjdrWojAOhQ1X9oaWm5G+DBC0QMs0Q0YNKVpUKv2A+HEL6uqp9VVeTzefaJJepBVYOqaiaTsaoKa+1qVf2nlpaWpwCgpqbGrly5kvW0RAyzRNQPdpUUnHLKKSMPPfTQr+Tz+a9Ya0clSRJUFenmLiL601DrRcTEcSze+z+KyDcOPPDAZbfcckvX6tWrzbx58xRcpSVimCWivtGzS0Eul5vtvf+XKIo+liRJoVes5SgRvbsQgu/Ro/bhEMLXOjo6mnf/nBERwywR9YJrr73WXHTRRQpAy8rKxkdR9A0An3HOwTnHDgVE+0ZDCCGKImuthbX2Ozt27Pi7O++887d44xQ8bhAjKnJ8FUlU5A+c06dPjy666KIAAFOmTFlqjHlAVT/T2dkZvPchXY1lkCXah8+XMcZ670OSJMF7f0kmk3mwqqpqURpiQ319Pd92EBX7B5lDQFScvvvd75ovfOELAQAqKytPBPDfIlKaz+dZUkDUBwqlB5lMBqrapKpfamlp+VV6rxRwlZaIYZaI9sz06dOjDRs2uJNPPjk++OCDv6qqXwMw0jnHVltEfUtDCCGbzdoQwqtxHH+9ubn5fwFoZWVltGnTJschImKYJaK3Z9C9k1qnTJnySe/95caY0/L5fGEXNldjifpBz1XaEEJ7FEVfbGpq+rmqiohwlZaoyG6cRFQEFi9ebNMbpE6ZMuWrIYS7AZzW2dnpASiDLFE/3hyNsaqqO3fu9Kpals/n75k0aVK9iCiAUFdXx88jUZHgyixREXwOV69eLfPmzQsVFRUfNcYsE5Hyrq4ursYSFQFV9caYQi3teufcF9vb25+sra21K1as4OlhRAP98MkhIBo46eqOpkF2kareo6rlO3fu5GosUbE8bYr0XKWdYa29L5fLXbhixQoPQC+99FJ+TokG8jPKISAaGFOnTo2am5tdLpd7D4BlxpjPslMBUXEr1NLGcQwAV23fvv3L99xzz6vTpk2LGhsbuTmMaABwZZZoAB4i16xZY5qbm11FRcVkVb0HwGfTVR9lkCUq4ptmWkvb2dnpRWThqFGj7po8efKpjY2NLn3TwkUiov6+qXIIiPrPpZdeaq+44goPAKWlpV8RkW8AsCEEByDiCBENKi6KoghAp6p+qa2tbQUArFmzxlx88cXsdkDEMEs0tFRVVUVNTU3utNNOO3T06NFXWms/3dnZqdrd64dvSYgGocImzZKSEjjn1nR1ddXfdddd2wufd44QUd/jDZSoHx4a6+rqbFNTkysvLz991KhRWwB8urOz0wEAgyzRIP5wd2/S1B07dngRuTibzd55zjnnnNDU1OTOPffcCFw0Iur7zyGHgKjPHxgVgJaXly80xixT1ZL0JC+WFRANLYWyg5cB1LW2tv4AbywaseyAqA9vtETUB9LNIKGqqsrmcrlvW2sbnHMl+Xw+MMgSDUlRPp/33vuDjDHfnzJlyr+lITawfRdR3+HKLFEfKLTpOeussz5YUlKyRkQqurq6vDHG8HNHNORpCEFHjBhhQgi3b9++ff699977Itt3ETHMEg2qIFtRUXEagO+JyIQkSVhWQDT8uDiOI1X9RRRFn2tubv4JAy1R72OZAVEvPhzW1dXZxsZGV1ZWdgGA9hDChK6uLs8gSzQsRemD7HFJktyZy+Wmsx8tUR/cfDkERL36YBjKy8u/Yoz5pnMOIYTAbgVEw1vh1LAoipyq/nlra+sV6LE5lCNE1Ds3YCLaR2vWrDHo3uShU6ZMWR5F0TeTJAnsH0tEwK5Tw0KSJNZae3llZeV/FOaM1atXc44g2k9cmSXaD9XV1bahocGfdtppB44ePfraKIpm7ty50wHga0Qi2p2GEMKoUaOsc+4HIYT5bW1tnYV5hMNDxDBL1K8KGzmmTJlyuPf+hyJyKjd6EdEecHEcR+iuq/9MW1vbH2pqauzKlSsZaIkYZon6x/Tp06MNGza4c84552PZbPZWAMcwyBLR3gZa7/3Pvffnbt68+QkegUu0b1irQ7SXZsyYEW3YsMGVlZWdnslk2lT1GHYsIKK9FCVJ4owxH8tkMu2VlZUnNDU1ucWLF/NwBaK9xJVZor1w5plnxlu2bEkqKioqAPxQVQ90zvn0fHYior0SQvCZTMaq6h9EZHZra+uWwjzD0SHaM1yZJdpDM2bMiLZs2ZKUl5efJyLrvPcHOucCgywR7fNN2BibJIlX1feISFNpaWnlli1bkhkzZvBND9Ee4k2YaA8UamQrKio+Z4z5vnMuwx6yRNQbRMSEEIKqllhrzx83btxPN27c+Mvp06dHjz76aOAIETHMEvVWkL1ERNYkSWLYQ5aIejnQiqoGALG19tMTJkz45caNG3/GQEvEMEvUK0G2rKxskTHmqiRJ0hzLIEtEfRZorTHm0+PGjXts06ZNjzDQEjHMEu1XkK2srKw1xlyZJElI7zfcOElEfRZoAaiqShRFcyZMmPD4xo0bf8xAS8QwS7RPQTaXy9WIyIp8Ph/Q3f2DQZaI+jzTAkAIQa21c8aPH89AS8QwS7T3QbasrGy+MaYhSZKQlhYwyBJRvwVaVdUQAqIoOu+YY475VXNz808ZaIne5umPiN4cZCsqKuaKyHcLpQX8rBDRQFBVNcYgiiIP4NMtLS23FeYpjg5RN67MEu0WZHO53KcAXOucA4MsEQ2kHjW0xhhz3lFHHfXApk2bHp02bRpXaIlS3JFNBGDatGnRhg0bXGlp6RRV/b733qgqGGSJqBju1SEEdc6VRFF0Y2lp6RmNjY2upqaGC1JEDLNEQE1NjW1sbHSlpaVnRFF0o/c+E0JgH1kiKhqFgxVCCKOjKLp1ypQpf7Zy5UpfV1fHQEv8fHAIaDirrq62DQ0NPpfLfUxV71DV9zjnPI+oJaJipKreWmuNMc845ybdcccdT6K7ZNBzdGi44soTDVsrVqwwDQ0Nvry8/AhVXR9CYJAloqImItY55wEcaYxZX1ZW9t40yPJ+TsP3c8EhoOEobbWlp5xyyoFjxozZDODEfD7vjTEMskQ0GLg4jiPv/Z2ZTGZKc3NzV2F649DQcMMbNw3Lh7jDDjtMXn75ZTtq1KhbjTFnOueciEQcGiIaJEwIwcVxPD6E8JEnnnjihrq6Onv//fdzZIhhlmioq6qqii677DJ/9NFHXx3H8aeSJEkAxBwZIhpsgdZ777LZ7MfHjh178A033NDEll3EMEs0xE2fPj1qbGx05eXlf1dSUvKlrq4uxyBLRIM50DrnXCaTOWPcuHF/3LRp070MtMQwSzRETZs2LWpsbHQVFRWftdZekc/nXfoZYO04EQ1mEkLwIjL12GOPfaC5ufn/ampq7IMPPsj6WRoeT3QcAhoOqqurbWNjoysrKztdRK5JkiSoKoMsEQ2JMKuqJoRgQgjfLysrO549aGlYfQA4BDTUXXPNNWb+/PlhypQphzvnfqSqY733gYciENFQUuhBKyK/7urqOv3uu+9+Kb3Ps+SAhjTezGnIP7Bt2bJFTjzxxNh7f72IjE17yfLaJ6KhNdmJ2BCCM8Z8qKSkZC0A1NXVCbhwRUMcX0HQkDZt2rTohhtu8B/+8IevjKJoNltwEdEQZ0IILpvNfvjII48ceeONN26qqqqKHnvsMa7OEsMs0WAMso2NjS6Xy12ayWT+Pt3wxSBLREM+0KYdDs4eP378E5s2bfoxN4TRkL7gOQQ0FC1atMg2Nja60tLScwD8T2dnp+fDGxENIzZJkgDgyvLy8hNXrlzpa2trOQfSkMQ6Ghpyli9fburq6vTkk09+75gxY+4HMNY5xw1fRDSsFDaEAfjlyJEjT1+/fv12dB93yxVaGlJ4c6ch94C2ZcsWUVVks9k1xpixSZJwwxcRDb/JMN0QZq396M6dO1cBCOeeey5bEtKQw1cONKQsWrTIrl692m/atOmfoihaoKrc8EVEw1lhQ9jxRx111CvNzc0/4glhNOQe3DgENFTU1dXZ5cuX+/Ly8gpjzKa0XszwOieiYU4BhCiKvIic09LScl91dbVtaGjwHBpimCUqHgaAlpaWvsda+1AI4fAQgoKlNEREUNVgrTUA/i+EcPLnP//5HdXV1ayfpSETAIgGvZkzZxoAGkXRKhE5wjkXeH0TEXUTEeOc81EUfRjAsurq6jB16lSWGhLDLFExqKurs+vWrXPl5eVLjDGzkyRxxhhO0kREPW/4xth8Pu8ymcy8XC73+ebmZldXV8e5kgb/wxqHgIbAA1nI5XIfU9Wt3vusqrJOlojoramIqDHmlZEjR35y3bp1T6XzJTeE0aAOAkSD9mFs8eLFksvlIufcNQBGeu/5kEZE9A7zpvdejTEHp+26tLa2Vjhv0mDG1ws0aFVVVUXXXXedP/LII/8pm81+LkkStuEiInq3NCtiQgguk8kcc+SRR26/8cYbf1RbW2sfeOABbgajwXlNcwhoMKqpqbErV6705eXlp4vIXc45gG24iIj2VKFdV+K9n9jR0fFTdC9wsV0XDTpcmaVB+RB20kknSTabLbHWrjPGvM97D57yRUS05/Ooqqq1NhNC+ERZWdl3TjnlFDz44IMcGRp0ePOnQWfRokXmqquu8plM5h8ymczH8vk8j6slItrbNCtinXMuiqJTH3vssb9ctWqVr62t5VxKg+9a5hDQYFIoL8jlcqeq6haWFxAR7RcVkWCM6cpkMqc0NTX9Ip1T2d2ABg0+gdGgevgKIeBDH/pQJoRwJQCrqnwoIyLaz3lVREY6564EIOxuQAyzRH2ktrbWNDQ0+COOOOIvoyg6MS0vYN03EdH+pFkRm8/nvbX27NLS0toVK1b4uro65gMaPNcwh4AG0YNXmDp16oeTJHkohFCiqlw9ICLqHSoiaq19RVVPaGtrexY8TIEGUUAgKnrpay8kSXKZiIwMISiDLBFRrxHvvYrIwSLyLbxxmAIRwyzR/lq4cKFdsWKFLysrmxvH8RSWFxAR9UEgMMZ2dXV5Y8wFpaWlM1esWOEXLlzIuZYYZon2d7Xg1FNP1VwudyiAf8/n82qM4WoBEVFfTLgi4pxTEfnvqVOnjjr11FP5FowYZon2x8KFC011dXXo6ur6+yiKPuicC7xuiYj6LMyaEIK31h7T2dn5l9XV1aGyspKrs1Tc1y2HgIrVkiVL7OWXX+6nTp16gnNuq3POgj1liYj6mgLQKIp2GGNO2rRp0+OrV6+WefPmcTMYFSWucFHRuvzyywEASZL8N4AMe8oSEfULUVUVkQO89/8BQLds2cK5lxhmifZGfX29BeArKys/ba0t46YvIqJ+TLMihc1gc8rLyysaGhp8dXU152AqzuuVQ0BFel3KWWedlc1kMj8GcGzaMoYPX0RE/URVfRzH1nv/sKpO/PznPx+qq6sV3WUIREWD4YCKzpIlSwyAMGLEiDpr7Yecc4FBloiofxVOBoui6CQR+UJ1dXVYvHgx52IqvmuVQ0BF+IClM2fOfO+OHTt+HkI4hCd9ERENmJC2Q3xm5MiRf7Z+/frtSDeIcWiomIIDUdGor68XALpz586/Mca8R1UDgywR0cDlBOdcsNaO7erqWgog1NfXMztQUWFIoGJ7uNKpU6dOSJLkEe/9iPQa5XVKRDRwVERURF4B8LH29vbfp/MyW3VR0YQHoqKwePFiAaDe+78zxowKIfDkGSKigSfee7XWHmyt/QoATedrouK4QDkEVAyuueYaM3/+fM3lch9T1QedcxG4KktEVCwUAIwxOwAc397e/hQPUqBiwZVZKgreewDQEMI/iEiGq7JEREVFAHhr7Shr7d8A0LvuuotzNBXNxUk0oGpqauzKlSt9ZWXlJ0MI9znnhA9aRERFp7A6m89kMic0Nzf/mquzVAwYGGjApauy8N5/TURsuipLRETFRVQ1WGuzSZJ8FYDee++9XBSjgb8wOQQ0kFavXm3mzZsXpk6d+sl8Pn9fCKFQJ8trk4io+CgAtdZ2ZbPZExsbGx8FOxvQAOPKLA2oLVu2CAAkSfI31lqrqqyVJSIqXoLugxRGdHV1/RXY2YCK5KIkGhC1tbV2xYoVPpfLnaiq9zvnLK9JIqKipwAQRVGXiBzf0tLyOGtnaSBxZZYGjHOu8H+/JCIRAM9RISIqehJCCCJSAmApWDtLA31BcghoIKS1slpRUXEMgJ8457K8JomIBg0VEYjIK977j23evPl3YO0sDRCuzNKASJ/iVVWXpE/3nkGWiGjQEO99sNYeFMfxIgA6e/ZsZgoamIuRQ0ADdN1pLpd7v/f+l6o6pnvfF69HIqJBJEi330dRdNymTZteSX+c7RWpX/Epivrd7NmzLQAYYy6x1h6kqlyVJSIahBkiXZ39QAjhc+henbUcFupvDBA0INfcxIkTR4wcOfLnxpij0kMS+GBFRDT4eGOMFZGfbd++/RNbt24t7Ozl6iz131MVh4D605w5cywAPeSQQ86Lomiccy7wOiQiGrSscy6IyMcPOuigKQB06dKlnNOpX3FllgbkASqXy21R1VOTJFER4cRHRDRIhRB8JpOxqrqpra1tSjrPs6sB9W+wIOoPS5YssQB06tSpZwA4LZ/Pg0GWiGiQBwljrHNOAZRNnz79BACazvdEDLM05J7eAUC994vSCZCHJBARDQ3eWhvl8/mFADSd74n6BcsMqD8fnMKkSZM+aK39paqOZjsuIqIhQ0VEALwA4MMdHR0vpfM7N4JRvwQMoj5XaKYdx/GF1toD2Y6LiGhIEe+9j6LovXEcfwrYteGXqO8vPg4B9dd1NnHixGjUqFE/FpHjnHPBGMOHKSKiISLdCGZUdWtbW9sZ6F6V5cos9TmGCepzS5YsMQBw0EEHTTLGHBdCYJAlIhpqgaJ7IxhEZGJlZeXJ4EYwYpilIfS0DgCqql9IMyx3BhARDU1eRCSEcBEAeM99vtT3WGZA/XGNaWlp6XsB/B+Ag7V75xevPSKioafw5m3bmDFjjrvlllteBTeCUR/jyiz1qcIGgCiKzoui6GDf/ZjOIEtENERzhXPOW2sP37lz51QAMnPmTJYaEMMsDV4333yzBwBVvShdkSUioqEcLIxRdPcUnwtAP/3pT7O0jPoUV8ioz1x77bXmoosuCrlc7jjv/cMhhJjXHBHRkFfoOfu69/64O++882nwiFvqywcoDgH1le9///vdu71CmGOtzQDgTgAioqGv0HN2VElJybkAMGfOHOYN6rsLjkNAfXl9LViwwDzxxBMPWGtPzOfz3hjD2ikioiEu7TlrReSulpaWc8CVWepDfFKiPnHttdcaAPrb3/72k6p6gnNOGWSJiIZJuEh7znrvT5s6depH0iDLzEEMszR4XHfddQYAkiSZk8lkBCwxICIaVkII3lobhxBmAyw1oL7DMgPqs+tq4sSJ0ejRox9S1Y+H7pMTOJEREQ2fMBsymYwRkXtbWlrOSH+YXW2o1zFcUK+rr683APSggw46QVWPCyEorzUiomEWMIyRtNTgE9OnT/9QGmR5LyCGWSp+jz/+uABAkiQz4zg2YIkBEdFwJACctTaTJMk0gKUGxDBLg0RjY6NftWqV8d7P8N4jhMByFiKiYSiEIKoK7/0s4I2DdIgYZqloFboY3HTTTR8VkePZxYCIaBiHDGOM9x6qOnH69OlHgaUGxDBLxe76668vXFO5TCYTgyUGRETDmXjvvbV2RJIkZQBk1qxZzB7EMEvFa926dQEAvPdVqsoSAyIiAgCoahUAPeKII9jRgHr3iYlDQL18PenUqVPfn8/nf62qo1VVeZ0REQ3vHGuMEVV97vXXX//w1q1bXyncLzg01Bu4Mku9ZtasWTZ9+p5kjBntvfcMskREw56EEIIx5n0HHXTQ6cCuFo5EDLNUXD74wQ8qACRJkhMRGGP41E1ERAAQjDGaJEkF8EYLR6JeeVriEFAvXks6f/78zBNPPPETa+2HkyQJxhg+MBERDfckG4LPZDLWOffAhRdeeOqiRYsULDOgXsKgQb3i2muvFQB44oknPqqqx3jvlUGWiIiA7hZd6WlgH7/lllvGgS26iGGWis33vvc9AwBxHE/KZDIWbMlFRERvkBCCLykpKVHVswCALbqIYZaKymc/+9kAAKpaCoAtuYiI6M2BI91HkfabxeGHH84yA+qdJyUOAfXSdaTTp08ftWPHjl+LyAdDCGzJRUREPRX2UfzaWvuxlpYWB7boot54UOIQ0P4qtFhxzn0cwAcYZImI6K0yRwgBIYTxcRx/KP0x3iuIYZYG3pNPPlmYjE6LokjAelkiInoLIQQfx3HsnJsIALNnz2YOIYZZGnhjx45VAHDOnc3RICKitw0dad1sCOFsAOg+W4do/3B5n3rjGtJcLlfivf+liIxjf1kiInobIYoi473/6YQJE066+uqrCydFsm6W9v0hiUNA+6PQX7akpOTYEMJY7z2MMXxIIiKityLee3jvP/T0008fWfgxDgsxzNKA+f73v28AYOfOnSfFcWxCCJ4TExERvUOYDZlMJisiJwKsmyWGWRpgRx99tAKAtfYU4I16KCIiorcMHsYEEQGAkwEgSRIOCjHM0sBZtmxZQPfJLp9UVR6WQERE7yiEIKoKVZ0IABdccEHgqND+YPCg/b1+tLS09DAAvwRwiKqyxywREb1jnrXWGgDP5vP54+66667t4CYw2g9cmaV9Vtj8NXLkyKONMQyyRES0R9nDe6/e+w+WlJSMS3+M9w5imKX+V9j8lSTJCcYYhBD4qoiIiN5VCCFEUWRE5GMAUF9fzzBLDLPU/wqbv0TkzwBu/iIioj0MH8aoMQYicgIAPP300wyzxDBL/S/d/AXn3J+lm794PRER0bsqbALz3h8PALfddhuPAiOGWep3AkDPP//8A0MIx6gqD0sgIqI9Cx/GSAgBIYSPnn766TG6N3/xHkIMs9R/1q5dKwDw4osvjlPV9/B8bSIi2guFMPuBkSNH8iQwYpil/rdlyxYBgCiKJsRxbHnyFxER7U2Y9d6HKIpGZDKZcQA3gRHDLPWzbdu2CQCIyHEAN38REdFeBpD0JDBV/TAAPPXUUwyzxDBL/cdaW/i/H+VoEBHRvgohfGy3+woRwyz1Obn11ls9AHjvj+YxtkREtA8hVgBAVY8FgFtvvZW9yolhlvqVzp49e5T3fiw7GRAR0T4obAIbm3Y0CODeC2KYpf6agNKn6sNU9b1pJwNOQEREtOcBJG3P5Zw7fOTIkQdxRIhhlvpNYcdpZ2fnUSKSAfsDEhHRPlBViMgBAI4E3mj7SMQwS32qsONURI6KoggA2GSWiIj2loQQQhRFks1mjwLeaPtIxDBL/TMLiUzgKBAR0T6HEGOCMQbOuaMA4Nlnn2WYJYZZ6nuHH364AkAI4aj0fzn5EBHRPklLDY4CgCOPPJI9y4lhlvremWeeWZhsjlDlvENERPumR3uuIwH2mqV9E3EIaC/J3LlzAwCTdjMAuPmLiIj2UXof+SAAXH755ew1S3uNK7O0Tz772c+O8d4fCoA9ZomIaF+JqsJ7/56qqqoSsDsOMcxSf0w8APDCCy8c5L0/NAQ+RBMR0T6GkLTXrPf+UO/9QRwRYpilPrd27VoAQDabPdham9Xu90N8iiYion0h6Qawg+I4PhAA1qxZw3sKMcxS37n77rsFAJxzh4l01+1zVIiIaD+oMcYkSXIIAKSnShIxzFIfXTBm1yXzXmMMQggMs0REtM9CCGqMgTHmMADYunUrV2aJYZb6TqGhtYgcJiIwxjDMEhHR/lARQQjhMADYtm0bwywxzFI/zDyqh4kI2GeWiIj2h4ioiEBEDkv/nYNCDLPUdwqnf4nIwWnRPgeFiIh6w8EAuEhCDLPUtwqnf6nqGIBH2RIR0f4pvOXz3o8B3lg0IWKYpT4xd+7cwv8dw6dnIiLaX4VFEWvtGOBNR6YTMcxSnyiUGRzIoSAiol65sXSXrY0B3rRoQsQwS30XZkMIB6UrsywzICKi/SFpoB2T/juPliSGWerbCaeqqipyzo0E3tR3loiIaJ+oKlR1NEeCGGapX3jvS7z3MUeCiIj2O4ikiyLe+xF4420f3/oRwyz1nTiOs8aYOITACYeIiPZbujIbn3/++RmOBjHMUp/LZDIZAFyZJSKi3iDpCWDxtm3bshwOYpilPp1wAODVV18tARBxOIiIqDeEEKCqcRzHJRwNYpilPrNmzRoA3SuzqhqzzywREfWiqKSkpFBmwBI2Ypil3pckCQDAOWc40RARUW8SEbNz507LkSCGWeqPCceKCK8dIiLq1dtLJpPhvYUYZqnvRVFkVJUrs0RE1KuZJI5j5hJimKW+lyQJV2aJiKjXM0lXVxfLDIhhlvpeHMcC1swSEVEvSfvMShRFBnhjwzHRnmB7JdprSZIoAGWgJSKi3iAiAKBxHAeOBu0trszSXovj2Cv7chERUe8K3nsPABdffDFHgxhmqe8454KI8OmZiIh6L8mGoNZaLpQQwyz1T5hFd5kBERFR7wQSY0IIwXMkiGGW+kwcxwCAKIoCywyIiKg3qarm83m+9SOGWeo7hRoma20iIi4t2CciItpvIuKstUkh23JEiGGW+oz3vktVE44EERH1lvS+0smRIIZZ6tO5BgCcc12q6jgcRETUG/cWYwxUNXn99de7OBzEMEt97uCDD+7q8SqIiIho/9KsKowxbv78+QyzxDBLfe8nP/lJlzEmMcYArGsiIqL9EEL3ni9jTOeCBQsKG8B4byGGWeqbh2cAePTRR/Mi0tlzEiIiItrnMGIM4jh+jSNBDLPUb6HWWvsKuxkQEVFv3FMAQFVfSf+dNxdimKU+JbtNOnwVRERE+3djEYGIvAoAa9euZZglhlnq+zALgCuzRES0/0HEmMKiyMsAsGXLFt5ciGGW+k59fb2kT9Gv7jYJERER7TVVhYhAVV8FgG3btjHMEsMs9Z2nnnpKAMB7/1I6+XBQiIhov4nIS+n/cjBor0QcAtrLyab7KciYFzjpEBHR/lJVUVWEEF5I/52DQnuFK7O0t5NOIdQ+H0JACIFploiI9oekhyY8DwBHHHEE0ywxzFLfOfzwwxUAvPfPp5MPwywREe17EDFGVBXe++cB9i8nhlnqYxMnTlQAsNY+X3ii5qgQEdF+EO89stnsHwDgrLPO4sosMcxS37HWAgC8939MksQzzBIR0X7QdO/Fa11dXdsBYO7cuRwVYpilvnPxxRcrABx44IEvG2P+mE5CfIomIqJ9CrPGGBhj/pDJZF4q/BiHhRhmqc89/fTTLxtjXjTGIITAiYeIiPZaCEHT079ebGpqeg3db/t4TyGGWerbp+g1a9aYBx54ILHWvsCVWSIi2h8igiiKfgcAS5YsYS4hhlnqe/fcc48AgDHmWfaZJSKifQ4hb5wi+QwAeO85KMQwS32vcNSgiDyz22RERES0V0QEIYSnAeDZZ5/lCgkxzFL/UdUnuDJLRET7KoQgqoo4jp/iaNC+4nG2tNfGjRunaZj9jXMOACxHhYiI9pIaY2ySJFDV3/S8vxDtDS6r0b4wAEJlZeVH8vn8z9Iwq7yeiIhob8KsiEgIYeeoUaOObWxs3AZ2M6B9DCVEez0BAcCIESN+16PXLBER0V7dS4wxsNb+XlVf5HAQwyz1u9tuu227MeZZay17zRIR0V7p0WP2maampk5wVZYYZqk/n6br6+stgGCMeUJEYIwJHBYiItrjAGKMpj1mHweA2bNnc/8FMcxS/3nyyScLtQW/4mgQEdF++DnAHrPEMEv97IgjjtD0yfrnQHd7FY4KERHtqRCCUVUYY34JsJMBMcxSPzvzzDMVAJxzj3vv1RjDa4mIiPaUGmOMcy7p6up6CgCWLVvGMEsMs9R/5s6dqwCQz+d/IyKvSHdLA05ERES0R6y1MMa8kM1mny4EXI4KMcxSvz5VA8Cdd975nDHmKXY0ICKiPRVCCGkng8eamppeAzsZEMMsDYS0owGMMT9hRwMiItrj8PFGJ4NHAHYyIIZZGiCFjgaq+lOOBhER7anCpmER+SkAJEnCQSGGWep/48ePL7wS+nHaUoXXExERvXv46N78BVX9CQB87nOf45s92mdsp0T7+zAUZs6cOXb79u2/FJGRqqq8roiI6B0EETEAXiwpKflIU1PTH8CaWdrPMEK0rxSAdHZ2/tYY87gxhpvAiIjonZNsCGqtRRRF/9fU1PQigywxzNKAhtm6ujrT0tLiROThtNUsJyQiInr74JFu/rLWPoDu49GZRYhhlgbO008/XSjiv68wSXFUiIjo7YQQRFURQrgfAB5//HGWphHDLA2cwiYwY8xDzjkAYHsVIiJ6O2qMsUmShCiKHgKACy+8kJu/aL/waYh64xrSWbNmjXn11VcfBfBebgIjIqK3EdLjz58cM2bMR2+55ZYusGaW9hNXZmm/n7IBmNtuu+0VY8zD6UlgfMomIqK3DLPpMbYP3nLLLV11dXWWQZYYZmnAzZo1ywBAFEU/Sk8C48RERERvy1p7N/DGvgsihlkaUGPHjlUAUNUtPDyBiIjeKcc659Raew/wpsN3iPYZn4iot64jnTp16nvy+fyvVfVg1s0SEdFu1ForIYRtY8aM+fCtt976OlgvS72AK2jUKxMUAGlubv6DtfYR1s0SEdHuQgjBGANjzANpkDUMssQwS0Vj1qxZFgCMMXewbpaIiN5OFEUdADBnzhxmEGKYpeJRqJv13new3ywREf1J4Ej7y6rqZgC4+eab+QaPGGapeCxbtiwAQJIkDwPYJiICgBMVEREB3f1lISKPjRo16pfpj/ENHjHMUlHRuro6u3nz5u3GmPuiKEIIgRMVEREBaX9Za+3dt9xyS1dtbS37yxLDLBWfp556SgAgjuNWjgYREe1KsiEIABhjWgHAWlaiEcMsFaHC+dqZTKbNe58YY/jkTUREaq213vvXnHObAeDyyy/nvYF6DfuAUp9cU7lc7j5VPSWfz/s01BIR0TAUQvDZbNaqaltra2sFuhfSuKeCeg1XZqlXpS261BizkS26iIiocB8wxjSn9wlmD2KYpeLV42jbjd57BVt0ERENdzafz3tr7aae9wmi3sIyA+qLa0pzuVyJc+7nIjIhPQ2MD05ERMNMCCFkMhnjvf/phAkTTrr66qsDuJeCehkDBvU2ra2ttS0tLZ3GmOZ0xypro4iIhmPIMCaICKIoWnf11Vf7GTNm8G0dMcxS8evRcuW27kVZXmdERMP1luC9V2vt7QAwfvx4rspSr2OZAfXVdaW5XO6AtNRgLEsNiIiGlxBCiKLIiMgvt2/ffsLWrVuTwv2Bo0O9ieGC+kKh1OC1KIo2WWsVLDUgIhpeAcOYYK2FMWbD1q1bk5kzZ0YMssQwS4NGodRARH6oqhJC4LVGRDTMbgXOOQC4GQDGjRvHIEt9gmUG1JfXlk6cOHHk6NGjf66q41hqQEQ0PBRKDAD8LIqikzZt2uTT/8RAS72OwYL6is6cOTPaunXrDhG5nV0NiIiGUbhISwyiKLp506ZNbubMmTzenBhmafApvFIyxtyYHqDA642IaHiw3nsfQvhhz/sBUV9gmQH1+TU2ceLEaNSoUY+IyEedc8EYw1BLRDREhRB8JpOxqrq1ra3ttPSHGWapzzBUUJ+aMWOG3bp1axJF0XVRFHFCIyIaBtKDEr4HQOfMmcODEohhlgavT33qUwEA4jj+gXMub4zhpEZENHSptdZ67181xvwQAG6++WbulyCGWRq8LrnkktDQ0GAaGxsfFZGOOI41hOA5MkREQ5KPokhFpLmpqWlbXV2dBTf/EsMsDXYPP/ywAEAcx99VVdZpExENUSEEo6oSRdF3AWDbtm2c86nP8SKj/rrOdMaMGWN27NjxKwDvZ89ZIqKhl2WNMUZVH3fOHX/XXXd1pj/OvRLUpxgmqD/o4sWL7fr1618B8AP2nCUiGpphNu0t+9277rprZ2VlJXvLEsMsDR1nnnmmAkAmk7lGVRMA3AhGRDR0KIDIe79TRNYCwMaNG7k/gvoFywyovx+eQi6Xa1HV8nw+H9jdgIho8Ash+Gw2awHc1NLScn5hvufIUH+FC6J+sXTp0sLD0yoRET5MERENGaKqsNZeBUB6zPdEfX/xcQiov6+5z3zmMyOee+65nxhjjuZGMCKiwU1VvbXWqOpPXn/99VO2bt3qwFpZ6kcMEdSvZs2aZa+//vodcRw3RFGEEAInPCKiwR1mYa2VKIpWbN26NZk9ezbLx6hfcWWWBuIBKpx55pnvy2azv1LVMarKa5GIaHAK0u33o0aN+ui6deteLWRcDg31Z7Ag6teJb/HixXbLli3PWWt/EEWRAOCOVyKiQTqnp/P46nXr1r0yffp0tuMihlka+iZOnKgAJISwnG26iIgGLQVgvfevW2tXAcD555/PDgbEMEtD3/z580NDQ4O0tbX9TFXXxXEsIQSuzhIRDS4+jmMRketbWlqeqq6utvPmzWOYJYZZGh4efvhhAQBr7X8BUGMMa2aJiAYXq6qJMeZ/AEgURRwRGhAMEDTQD1OhvLy8VUTK8/m85yEKRETFr3BIQgjh5ra2tk8tWrTIrlq1im/YaMDCBNGAqKurEwBwzn3Lew+uzhIRDQq73qZlMplvAUD3OThEA4NXHw3o9XfllVeKcw433XTTliiKTuPqLBFRceuxKrupra1tytVXX20WLFjAWlkaMFyZpQF9un/wwQdlyZIlwXv/b957PmARERV7cOheldWSkpJ/BYAHH3yQ8zYNKF6AVBRz48qVK/G9733vR5lM5tQkSbyIcHWWiKjI9FiVbWlra6tEuveBI0MDGiI4BDTQqqurpaamJlhr/80YA1XlQxYRUXESAMhms/8KAEuXLuV8TcVxURINtLTmCuXl5feIyMR8Ph+MMXzYIiIqEqrqM5mMBdDa0tKSA1dlqUgwLFBRuPfeewVAMMb8gzEGzLFERMWVZUVEtNs/AMCSJUu4IEZFgRciFY3Cjtjy8vI2ESlj7SwRUXEo1MoCuKWlpWUO+8pSMeHyFxWNdHUWIvKPIhJYO0tEVCRhwRgJISTW2n8CINZynYEYZon+RENDg7/66qtNa2vr3SGE9dls1qgqn/yJiAZQCMHHcWyMMdc1Nzc/snDhQrNixQrOzcQwS/RWtm7dKgBERP5OVbuk+1gZ5cgQEQ0INcaIqr7mnPs6ADnrrLM4JxPDLNHbWblypa+trTWtra0/BXBVHMcmhMDdskREAyCEEOI4NkmSXNbR0fHEggULzLx58zgnU1FhTSIV60OW5nK593nvf66qB6X1s7xeiYj6Mcumq7K/VdWPf/7zn3+1urpawbdlVIShgajoJtDFixeblpaW33vv/z2KIq7OEhH190QcglprJYTw9TvuuOPldJMugywVHa50UdFemw0NDXLVVVdlDzjggIdU9SNpoOUDGBFRH1NVH8ex9d7fr6pnfP7znw/V1dVcVKCixGBARTuXbt26Ve67776dAL4SRRG4IkBE1D9EBOkZCX95xx13uHRzLhHDLNHeaGho8NXV1batrW29qq6L49iGENgOhoioD6WtuCyAa++444476+rqbENDA+deYpgl2hdnnnmmorsc5quq2mmMYc0WEVHfUWuteO9fAfA1ALJ8+XLOucQwS7Sv5s2bFxYsWGBaWlp+lSTJf2WzWQOAKwRERH0ghBCiKDLGmH9paWl5tr6+3gBgrSwVNdbA0KC4ThsaGuSKK64oOfTQQx9S1Q9571VE+DBGRNRLCpu+nHMPxHF8ektLi6ZBliuzVNQYBmhQzLFbt26VH//4xzustV+01rLUgIiol+fZ7gMX4a219S0tLa62thaca2kwsBwCGgweeughXbhwob3xxhsfGzdu3NFxHJ/ovfdcnSUi2n8hhJDJZKyIXNHa2tpQW1trV6xYwZIuGhQYBGjQSM8DN9bar3rvnzfGGFVlLRcR0X5Q1RBFkfHe/yabzf49ALNixQquyBLDLFFvmzdvXqiurpaWlpbfW2v/IpvNiqpywiUi2r8wq1EUiTHm0vXr179SW1sr4KYvGkRYZkCDSqHc4KabbvrJUUcddUIcx8ex3ICIaJ+DrM9ms1ZVV7e2tv4nywtoMGIAoEEnLTcQY8wXvfd/ZO9ZIqJ9CrLBWmu899tGjhz5ZXSXF3BFlhhmifpaWm5gWlpanjXGfCmTybD3LBHRXhKREEWRqGr97bff/se0vIALAzTosMyABqWHHnpIq6ur7U033fTwhAkTPm6t/bhzjuUGRER7xsVxHHV2dl69efPmb1ZXV9uVK1dyUYAGJd74adAqHHXrnKtT1d9Za9ndgIjoXahqMMZEIYTHRo4c+eWGhgbT0NDAuZMYZon6W6HcoKOj4wXv/eI4jkVEeFoNEdE7ZFkRUWNMAFC9cePGV7Zu3cryAhrUWGZAg9pDDz2kixYtsj/84Q9/NXbs2PfHcTwxhOD5oEZE9JZ8JpOJvPf/0d7efnVVVVV0/fXXs7yABjXhENBQuI4XLFhgXn755exLL710nzHm4/l8PhhjGGiJiFIhBJ/NZq1z7p6XX3550ic+8Ylw9dVX820WDXq82dNQoFEU4Yc//OEOEZkrIp3GGOUETUT0Rpa11or3/lURufjhhx9O0n0HnCeJYZaoGKxcudJXVVVFbW1tPw4hfKWkpMSC7bqIiHaF2Ww2a4wxS9rb2x+trq628+fP56YvGhJYM0tDxmOPPVZo13Xf4Ycf/meZTOZjbNdFRNTdhqurq+uajo6O/zd16tTohhtu4MM+DRm8ydNQog0NDaGhocF47xd67x+NosiyXRcRDdtJUdVHURSFEB5++eWX61etWmWam5sZZIlhlqiY5+77779f7r777peMMRdaaztFBGBdGBENP8EYIyGEVwBc+Mgjj+xI98VyPiSGWaJitmrVKj9t2rSotbX1gRDCF7PZLI+7JaJhGWbjODYAFrW1tf2qurraLly4kG+qaMhhzSwNSY8++mioqqqKNm3a9MDYsWMPz2azp3jvHR/giGiYcFEURfl8/lt33HHH/7KfLDHMEg1Cjz32mDY0NJgNGzY0H3jggaXW2nHee24II6IhLYTgM5lM5JxrvPDCC+d/4AMfMNdffz1XZGnIijgENISpiMjjjz+ef9/73vfZESNGbI2i6IPOucBAS0RDctJT9ZlMxoYQHo3j+As1NTWFXrKsk6Uhizd0GtIWLlwYFi1aZH/0ox9tE5HPiEieGyCIaIgGWTXGmBDC68aY81taWl6sra01nO9oqGOZAQ15Dz74oE6bNi3auHHjU0cdddTvstnsLOec58McEQ2lLCsiIY5jIyIXtba2ttfU1Ngrr7ySdbLEMEs0FDz66KNh2rRpUUtLy4Pjxo3LxnE8iRvCiGgI8SUlJZH3/m/a2tpWTZs2LbruuusYZIlhlmiIBVqtq6uz119/fev48eM/Zq09PoTAQEtEg52Loijy3l/d1tb21XPPPTdav36947DQcCEcAhqG17zMmDFjxI4dO+4wxpzsnHPgZkgiGqRBNo7jyDl3xzHHHDOloaHBAwhgnSwNI1yRouFGV69ejfXr17++c+fO2QCeNMZEqsrXcUQ0qIQQCkfV/mzEiBGfbmhoyIOdC4hhlmjomzdvXqiurrb33HPPNlU91xjzkrXWqir7MBLR4HgqVw1xHFsA25xzsxobG19Ed+kg5zFimCUaDhoaGnxNTY1ta2v7mYicZ4zpMsaAgZaIBkOQNcaIiLwaQjhv8+bNT9TV1Vnw2G4aplgzS8PatGnTosbGRldWVnaBtfb6JEkKLbv42SCiosyyABDHsffen9ve3t5UmMc4NDRcsZsBDWuPPvpomD59erRp06afHnXUUb/PZDLneu9DGmYZaImo2IJsiONYVPWitra2W6dPn84gSwyzHAJioN0VaO8fN27cjkwmM8V77xloiaiYgmwIIWSzWSsii1taWtZMnz492rBhA4MsMcxyCIjeCLQbN268e8KECVE2m53MU8KIqFiCrIj4ESNGREmS/HVra+u3GWSJGGaJ3irQFo69bRs3btyYOI7P5ClhRDTQRMRnMpnIOffP7e3t/8IaWaI3402a6A3a2Njoa2pqbGtr65e895dns9kIAG8aRDQgcxIAl8lkohDCv7e1tf3j4sWLbWNjI7sWEPXAlVmi3Tz44IOorq62N91004axY8d+cMSIEaekp4Tx4Y+I+pPPZrORc+6/Wltb/6qqqiq67rrreLoX0W54cyb6U9rQ0BAaGhpMR0dHTVdX1zUjRoyIACQcGiLqJ27EiBGRc+6ytra2v6ypqbFNTU2eQZboT3GnNtE7fD6+853vyCWXXBKmTJmyAsDirq4uByDi0BBRXz1MI12RTZLkv9rb2/9y0aJFdtWqVVyRJWKYJdrnz4gACBUVFcviOF6yc+dOh+4SHX5+iKhPgqz3/hutra1fY5AlencsMyB695uL1tbW2tbW1vqurq7/ymazUQiBNxci6u25JqRB9usMskR7jhvAiPbAAw88gJqaGnvTTTdtHDduXFxSUjLJOVe4wXCFloj2RwCATCZjkyT5q/b29n9jkCVimCXqdQ8++CCqqqqiTZs2tR511FGvx3E8xXsPVYWIMNAS0V5T1WCMkTiOjYgsamtrW1ZTU8MgS8QwS9Q3HnvsMV28eLG98cYbt0yYMOFZa+25qiqqGhhoiWgvg6w3xtgoilwI4aLW1tbvTps2LbruuuvYR5ZoL/DmS7QPCifwlJWVXWCtXeO9L3HOeWMMHxCJ6F2FEHwcx1ZEtovI51paWjbwiFoihlmiflW48VRUVEwGcD2Aw9LDFdi6i4jeiYuiKALwTAjhU+3t7fczyBIxzBINaKAtKys7XkRuNsYckyQJAy0RvW2QjeM4UtWfquqctra2xwpvejg0RPuGrbmI9sOGDRvctGnTovb29p9GUTQZwH1xHEcAeGMioj8JsmlrvztUtaytre2xmpoayyBLxDBLNKAaGxtdXV2d3bhx4zZrbYWIXDdixIhIRBy4G5mIAA0hhGw2G6nq1Tt27Khsa2v7Q21trV25ciU3exHtJ5YZEPXuw2EAgClTpnxDVf86n88j7XTAB0ei4Zhiu1tvmTiO4b3/+7a2tn9Bj5MFOUJEvXPzJaLeEdIblNm4cePfJElSE0VREkWRCSFw9YVouE0IIXhrrYmiaKdz7vNtbW3/UldXZ3vMF0TEMEtUdBSA1tXV2Y6OjlWqOkVEnslkMhasoyUaTlw2m7XGmMeiKJrU3t7+/WnTpkXLly/3YPkRUa9imQFRH6mqqoqamprcmWeeedTIkSO/KyLn5PN5h+7DSvjZIxqiD7QhhJDJZKyqNr/22mvz7rvvvufYsYCo73BllqiPNDU1uUWLFtktW7b8RlWnqOpV2Ww2AiCqyleMRENMCMGLiJSUlFgA/zNhwoQZ991333OXXnopOxYQ9SGuDhH1sdWrV5t58+YFAKioqLgUwLdUtcR7z360RENH4SCEV7339R0dHd8FN3oR9QuuzBL1sTTISl1dnW1tbb0iSZJSAP/Xox8t6+eIBi9Nj6aNAPzYGHNOR0fHd7nRi6j/cGWWqB8V6uZOO+20Qw888MCVIvKprq4utu8iGowpVtUbY2w2m4X3/rudnZ1L7rrrru1Tp06NmpubWVZAxDBLNDRdeuml9oorrvAAUFZW9mVjzDdUNWbZAdGg4qIoikIIr4vIX7a1tV0JAGvWrDEXX3wxV2OJGGaJhv5nb82aNXLxxReH0tLSM6y1DSJyXFdXlzfGGH42iYpT+hYFmUzGeO8fVNXq9vb2h+vq6uzy5csDWDZExDBLNJwUXkfmcrmDROR/AVycJAm8994YYzlCRMUjhOCjKLLWWgBYPmbMmK/cdNNNO1hWQMQwSzSspSs6HgAqKio+o6r/Y4z5AFdpiYqGhhBCNpu1qvqktXbpxo0b1wEsKyAqBtxwQjTA0iArtbW1trW19XpjzEQR+eGIESOsiAiPwiUawBSr2rN37Frv/akbN25cV1tbawEIgyzRwOOKD1ERqa2ttStWrPAAkMvlFocQ/tUYcwhXaYn6XQghaDabtd7754wxf9Xa2roGePPbFCJimCWiP2VWr16NefPmhVwud4yI/KeIzM7n81BVdjwg6nvOGJOegYDrVPUrLS0tz6YPm9zkRcQwS0R7YvHixfbKK6/0AFBaWjrPGPMfxpjDurq6goiAfWmJelfaqUAymYx4759R1a+2t7dfB7z5rQkRMcwS0Z4za9aswcUXXxzKy8vHR1H0L6p6oXMOIQQHwPJzTLT/ORaAN8ZEaaeCa6Io+oempqZtXI0lYpglol4wffr0aMOGDQ4AKioqzgXw7yLy0SRJChtU2MaLaB+EELwxxmYyGYQQfqyqX2lra2sFuBpLxDBLRL1tVy3t6aeffuDo0aP/1nv/5yKSyefzXrqx9IBoDxQOP4jj2KjqDgDfeuWVV/7j/vvv38HVWCKGWSLqQz1raadOnXpCCOFfAMxg6QHRnuVYvLmk4Cbn3D92dHT8AmCnAiKGWSLqt8/u4sWLTSHUVlVVXZAkyddF5KPOucIJYmzlRbRbiBWRQpeCR5xzf9fR0bEeAOrr6+2yZcu4GkvEMEtE/Wnt2rVm7ty5CkAnTZo0Oo7jL4cQ6q21h7CelqhboS42jmOEEH5vjPnfnTt3fvvuu+/euXr1ajNv3jwA4OEHRAyzRDRQ0lUlDwCVlZXjAPy1936+iMTOOU3rAxlqaVhJH+ZMHMcSQugEsHLEiBHfXL9+/W+BN5fsEBHDLBEVwed59uzZ9tZbb3UAMG3atFPy+fzXRWSaqiKfz7M/LQ2XEBtUFZlMxqgqjDE3R1H0z01NTY8AwOzZs6Nbb73VgyUFRAyzRFSUzOLFi6Ww4jRlypScqn4NwGTnHJxz7HxAQzXEelWVTCaTloyjWVX/vaWlZTOwq8UdQywRwywRDQbXXHON8d6juro6AEBlZeWnQwh/DeCTALhSS0M5xG7x3v97W1vbegBoaGgwURThkksuYV0sEcMsEQ02aauhAEBPOeWU+OCDDz4vSZIvG2Mmigjy+XwAgEIKIBosQggeQM8Qe5cx5r+bm5tvBxCuvvpqc++990pDQwPrYokYZolosOu5SWz+/Pn2t7/97QXe+78QkVNCCHDOhRCCGmO4UYyKmYYQgjHGRFEkhZXYTCbzX+vXr79lt4c4hlgihlkiGmqf+SVLlpjLL7+8cJOX6dOnn5/P5y8FcA4AJElSaGXEPrVUjCHWxnFc+LGWOI6vaGxsvK1wPS9dutRcdtll7BdLxDBLREPd0qVL7WWXXbZr5WratGlTkiS5NIQwwxgjzjmoqgNg0n+IBkIAEAqHHYQQnDHmdmPM5Rs3buzYLcRyJZaIYZaIhtscsPtK1vTp08/I5/OLvfezrbWjvfdwznkAYAkC9RMNIQQAiKLIWmvhvX8piqIfArhy06ZNDzLEEhHDLBG9SbpSq0hPQpo2bdoE59zFzrm51trxqgrnHEsQqM9DrDHGRlEEYwy8948ZY76TzWavXb9+/dNAd3eChx9+WFgTS0QMs0T0J9auXWu2bNmyq09tZWXlAVEUfTpJkrkhhNKeJQghBOFqLfVGgAUAa62Nogjeex9FUYsx5toXX3zxlvvvv38H0H1i18SJE3X+/PlssUVEDLNE9K7M7NmzTeFEMQCYNm3aqc65ec6586MoOjTtggAArK2lvRXSf6IoiiAi8N4/F0XRdSKyZuPGjQ8XfmLaiYObuoiIYZaI9m2emDNnjr355pt3nZyUy+WOMMbMCiF8xnt/lrVW0traYIwJACznF3qHAGuMMcZaC1V1xpjNxpjrvffrWlpafl94mFq6dKmwMwERMcwSUa/ZvQQBAGbMmPGJnTt3XqCq54vIBGMMnHPw3hc2jbG+dngrlBFIFEUm3cwFAP9nrb3BGHPjxo0bf1r4yYsXL7Znnnmmzp07l6UERMQwS0R9N3fsvlo7c+bMUd77c5Ik+bT3vspa+wEAhWAbACiD7bARAIQQgrHWmiiKoKoIITxtrd0gIjcDuHvTpk2db3c9ERExzBJRv3ir1drS0tKDS0pKpjrnPu29P8sYc5iI7Aq2xpjCIU7CeWhI0PT0uBBCMIUV2BACVPW3URTdZa29YceOHS2bN2/eXvhF06dPjz73uc+Fiy66iKuwRMQwS0QDP58sWbLEhBDQs2VSaWnpezOZzDkhhFnOuUpr7fvSzT5IN7EXuiJw1XbwBdhgjFG8eRMXVHWbtXZjNpu93Vp71+233/7Hwi+qq6uzxhhcfvnlrIUlIoZZIhpcwXbatGmH5vP5iQBy3vvyEMLHM5mMUVV477lqW/zhVQsb/KT7SK7u/9C9iesREWn33reUlJRsXb9+/SuFX1hbW2uttQywRMQwS0SDN9h677FixYpdwXbBggX26aefPl5Epqpqmff+RGPMe0UEPcKtN8YoV24HLLyGwvjbbih8f1T1d8aYHxtj2gBs2rhx4896BlUGWCJimCWiITnn1NfXmyeffFLWr1/vev6Hs84667BRo0adBGCqc26Sqh5jjBm9W7gtrNxKj5VbzmO9E1wV3Zv0FIAREdMzvIYQXrHWPmqMucMY0/Liiy8+uHXr1hd7/iazZs2Kxo4dq+wJS0QMszTsrsO6ujpz8skn82SfYfZ9v/baa+V73/ue+exnPxsuvvjiN33vq6qqxjnnThKRswCc6pw7wRhzgEj3tBVCKNTd9ly9ZcDdg+CKN0oGNC3pMNZaGGNQ2KgH4NUoih4Wka2qeieARzZt2vRMz9/ou9/9rvnBD35gPv/5z4eLLrpIGWCHlUIf4F1HYBMxzNKwtHbtWtOzn+RVV11lFi5cyIlxmM5HS5YsMQBw+eWX+93/Y2Vl5ZGqeqK19mNJkpwG4Djv/TFRFIkxprB6WAi4hVZgu4fc4TLvFUJlz9AqAMRaa0QEhVXX9BS3YIx51BjzC2PMPcaYn2ez2R/fdtttv939ezRr1izL1dfhbc2aNabnw2d6QpvnyBDDLA07ixcvtoV2Tueee+6Xtm/ffm9HR8ePqqqqoqamJscRGvZMfX29PP3003Lbbbf9yfVw1llnjRg9evQEVT0hhHCcqh4XQjjeOXdkHMfZwgpuIeSmdZ5vWsktzIPd5biDbkW3sMK6K7z2CO9WRCAiu1ZbC2PhnNtpjHlWRH5irf25iPzCe/+T0aNHP3HLLbd0vUN45QocoTA/l5WVnVJSUrJ0586d/9bR0fELvHGUNa8RYpil4RFSCjfiXC73cRH5trW2NEmSl0IIn2lvb2+ZNm1a1NjYyEBLfxJun3zySTnqqKP0iiuu+JOVoI985COZ8ePHjw8hHKGqHwJwQgjhwyGEY0IIB4vIqMIO/EK4K/xveirV7rWj6BF6dw++vTGfvtXK5psCKgCIiKZfp6Rfg4iIFIJqIaz2CKwA8Lq19o/GmEdF5JcAfmaM+XUI4ekQwlOtra1/8vmqq6uzTz/9tIwfP54rr/Qnpk+fHm3YsMHlcrnyEML1cRwf6r1/2Rjzjxs3bvx2z5/D0SKGWRrykyEAmTJlyl+EEP5JVQ/I5/OJtTa21naFEOa3t7d/v6amxq5cuZI3VHrb+Wvt2rWyZcsWefrpp+Wzn/1s+MIXvvCWq0IXXnjhyOeee26MtfaoEMKEKIqODiEcA+DwEMIhIYT3OucOi+M4UwiHhY1PPUNvCGHXq/ndAzHeYqX0LRN5d8lDYf6VNKz2/O/o+WM9w2qP1WWEEDqNMS+IyAtRFP0RwLMAHlXVR6Mo+o219tk//OEPL99zzz073urrWLNmjbn++uvN2LFjNT0+ljWv9LYKCwyVlZUXqOoa51yJqiYiEmcyGQBoTJLkL9rb23+dliEAXKUlhlkaYsyaNWtw8cUXh0mTJn04k8lcboypyOfzhfZLVlWDMcbEcQxV/WJLS8uy2tpau2LFCgZa2uuAu23bNrHW4tZbb33XI1JnzZo15rXXXjskiqIPAng/gPeo6nsBvEdEDgNwMIAx3vsx3vuRzrkR1tqMqmYAxCIS91wpfSc9g7GqhjQQJAASAF3W2p0issNa+wqAVwC8BOB5AH8QkReccy/Ecfycqm7LZrMv33bbba+825jMnj3beu8xbty4QrkAgyvt8Weqrq7OLF++3JeXl9caY5Y75xBCCCJi0ge4kM1mbQjhZRH5amtrawPQ3Z6tZzs+IoZZGrTq6upsoXF+aWlptbX2PwAcnM/n/Vv0DlUAms1mjff+G62trV8rhGE+5dP+znX19fXmqaeeEgA44ogjNO2Dulc32+rq6sxzzz13gKqW7NixI2utzUZRlOnq6iqJoijufjYzVkQsgF01DSKShBCCqvq0vVg+juMuVe3K5/P5kSNHdr3++us7d+7c+do999yT7M3XtGTJEuu9x7PPPisACqE19PhMEe3TIkRh3q2oqPhnY8zf5/P5gLeoLw8heGutzWQy8N7fEMfxl5qamrZxQYIYZmnQX1+1tbVmxYoVvqys7ANRFP03gM8mSYIQgk9v9m9FQwhh1KhR1jn3g3w+v2Dz5s07L730UvtWdZJEvTQPypIlS6QQCgtlBgO4mino7ssrTz311K6vp0cI5wor9fkixNSpU0u896uMMXN37tzp3+Xwkp6rtM+EEP68o6PjZgDg/E0MszTo9GzdksvlzgVwBYAjurq6/F6c5OQymUwUQtiyY8eOz/zoRz/axo1hVEzhN73W4b3HfffdV9gctkdCCDj11FPVWou0vhA9gikDKg2YwjxbXl7+flW9Poqic/L5vEOPNw3vJH37YNOSscuff/75v37kkUdenzlzZrRu3TrO38QwS8Vv6tSpUXNzszvjjDNGHHDAAd9Q1aXeezjnvDHG7uVv56IoilT18RDCBR0dHQ8x0BIR9W2QraioOBHADQCOdd3tMaK9+X1UNYgIMpmMUdVHANS0tLTchx7dbDja1FsMh4B68+Gorq7ONjc3u0mTJp0wYsSIO0RkaZIkIT3j3e7D7xklSeIBHG2tba+oqJjR2Njo6urqLB/GiIh6d/5ubGx0paWl0wG0Azg2n8/7vQ2yAJBuDjOdnZ1eVU8AcMeUKVO+iO4aXE3ncKLeuXg5BNQbem7yKi8vrxWR/wQwal+e6N/uKd8YY6Iogqr+VWtr6zcBYPXq1WbevHncGEZEtI96zqPl5eV/aYz5z906Fuz3/C0iJpvNIoRwewhhcVtb2+9YdkAMs1Q0CmUF06ZNOzRJkm9bay/s6ura1XKrt/6cdEKUbDYrIYRrVPXS1tbWzkWLFtlVq1ZxYwER0V4qzJ8VFRUlxphlIrKwq6srqCp6I8j2nMILm8NU9SnvfU1HR8cm8OQw6gUsM6D9ehhas2aNaW5uduXl5Wd1dXX9CMCFO3bs8KqqvRlkgV2vrdDV1eUAzAew6eyzzx67atUqX1VVFfHbQUS056qqqqJVq1b5s88+eyyATQAWpvOr9HKQBbpPrrNdXV1eVcdZa5sqKyv/Lg2xgWUHtF8XF4eA9kXPsoJcLvfnIYRvqmocQuiVsoI94KIoikTkNwA+39LSsiX9mtjPkIjoXe79hYMQcrncmQC+p6pH9VZZ2Lvp+ZZNVdc552ra29t/V1VVFTU1NbHsgBhmqX+e5puamty0adMOzefzy621F3R1de2qi+qvryOE4KMosiLSJSJfam1tXQ68uS0YERG94bvf/a4pHPtcUVFRp6r/rarZfew2s1+ZFoCP4zhS1SdDCAva29s7uChBDLPUb0/zZWVlp4jIGmPMR5MkcQAGpLtAIUCXlJTAOffdbDZbt2HDhtcLdbz8lhERdSvMi8cff/yo97///Zdba+d1dnb2+0LE7osScRxbEfEAvtra2vrfwJvf/hExzFJv2dUbsLS0dL61dhmAkf31WurdMm2PU2ceVtWL29vbf8onfCKiNy9ElJeXfxTAtdbaT3R2du7NITZ9vShRKDu4tqurq27z5s3b2VOc9iagEL2jtDA/HH/88fGUKVMui+P4au/9yPSM7mLYeCXGGJskiRORk4wxd1dUVHwmfarXNWvW8DonomEpnf80DbKfFpEtIvKJfD7v0rKCAV/UKqwK79y506vqRXEc3zF58uTjGhsb3bnnnhuBC2/0btcQh4DeSaE+tqKiYhyA1dbaSXtwPveACSF4a62N4xghhCt27NjxlR/96Ec7WXZARMNNYd4rLy8vMcZ8E0C9c67X2yb2MmeMiay1L6lqTWtr641g+y56F1yxord90Kmrq7NNTU2urKysFMBdACZ1dXUVzdP8W17QxlhV1c7OziAil44cOfLOyZMn/1lzczNPDSOiYTV/Nzc3u8rKyo+p6p0A6tP+sVrEQRYAIu99cM4dbIy5YerUqf8Etu+id7vgOQT0Ng85hd2ul4rI/zjn4hCCF5HBNJm4KIoiAK8BWNLa2roGAGpra+2KFSu4sYCIhpyeG6cqKiouVtXLRGRMkexv2GOqqiKi2WzWhBBudc7N7+joeKmmpsauXLmS8zcxzNK7T4Snn356PGrUqP+x1l7a1dWl6cQy6Fbye5YdAFilqn/V0tLychpouTmMiIbM/XzmzJl23bp1LpfLHSQi/w6gJkmSYi8reMdMi7R9l/f+EWvt51taWn7OfrTEMEtvq7BzdPLkyR+I4/haY0xZMdfH7s2EWOh2AOD/ANS1tLS0A2/uuUhENBilvbUVgOZyuUkhhBXGmI92dXUNhfkbeOMt24sA5rW2tq5ntxpimKW3DbIVFRUnA/g+gGMH22upPZkQjTGRiGgURd/4zW9+80+/+tWv8tOnT482bNjAp3wiGnQK81dFRUWkqn8nIn8fQjD9eBpj/6xIqHpjjLXWBlX9cltb2/+mGUbAjWHDHjeAkcybN882Nja6XC73KQBtIYRj8/m8H2JBFkg3FnjvAeBrRxxxxB2TJk06IQ2ycu211/LzQESDQjpfyYYNG9zkyZOPE5E2Y8w/OufEe18sbRN770YlYkMIwTknURT9T0VFxfJFixYZcGMYgSuzw9ry5ctNbW2tiohWVFT8lYj8u3MOIYQwGOtj95KLoigKIbweRdE/bdq06VsAlKu0RFTses5TU6ZMWeq9/2cAB6Zv04Z615aedbTN27dvv+j+++9/kRvDGGZpGFq4cKG96qqr/AUXXGCfffbZZaNHj65N27ZgGATZ7hlR1YuILSkpgaq25/P5L3Z0dPwcfHVFRMVpV7/VqVOnfth7/21jTGU+nx/Mm7z2eUEijuNIVX+SJMn5mzdv/jVPDOMHg4aRmpoae9VVV/mpU6eO+cMf/nDbqFGjaru6uhwAGS5BFt1/WQtAOzs7nfe+LIqie6uqqv4iffIPs2fP5skzRFQU01U6H4U0yNYnSXIfgMr01CwdZkEWAKIkSRyAP4vj+M7S0tJzGhsb3fTp0yNeLsPwA8IhGF56dCwYb4y5yVr7iXRCGNYTQKGFVyaTgaputNZ+uamp6efAm/s2EhH1p9WrV5t58+aFdP4+LkmSbxljqobpauxbzt1xHFtjTKeqXtLa2nrdueeeG91+++0e7HTAMEtDT6HOavLkyadGUXQjgCOHYMeC/aEhhJDJZKyqvmaM+cbLL7/8n/fff3/CvrRE1N/358WLF5srr7zSl5eXR1EUfdk597ciMjqfzw+Vllu9M3GrBmOMiaIIIYSvtLW1fQvdb56Vc/bwwB2Aw0SP1lszjDG3qOphSZJ4EWGQ7XHzEBHjvfeqWhJFUXk2m51yzDHH/Pr6669/CgDq6+vt1q1bOTkSUZ9ZvHixfeCBB8IDDzyg5eXlZ4nIDwDM895ne6zGMsj2mLhVVUMImslkphxzzDEHPP7445vSMTIMtMPgGuAQDP3vcV1dnVm+fLmvrKysVtWVzjkZJh0L9uthv8cqbbDW/o+q/ktLS8vLAMzatWsxd+5cbhAjol5zzTXXGO89qqurQy6XOwjA17z3XzLGWK7G7tm8DcBns9kohHDta6+9Nv+ee+5JepZqEMMsDc7vrwAIZWVlfxfH8f8bbh0L9ntmVA0iInEci/f+8TiO/3bjxo3XA92rJ1deeSVLD4hov+fqQkkBAFRUVFwQQvg3a+3RSZLs6rzCYdpjhU4HG733n+3o6Hi50MGHQ8MwS4OLUVUVEZ0yZcoyAEu6uro8ul+58Pu+l0IIPooi232iItYnSfK3HR0dPwG6Sw+WLVvGSZKI9lrP+aO0tPTP4jj+VwAznHNwzg37DV77G2i99/fHcXzexo0bt7EXLcMsDSLf+c53zCWXXBImTZoUOefWHHjggRfu3LlzODTT7odMGzSbzVpV7RSRb7388svfuP/++3eApQdEtBfWrl1r5s6dCwDhlFNOGXnQQQf9jar+pYiUdHV1eWNMod6T9jPQquqvOzs7z7377rv/j71oGWZpEGhoaDDV1dXhzDPPHJ3NZq+z1k5j663eVXjll8lkEEL4VRzH/6+pqen7wK7SAwUPXCCit7nv9iwpqKqqujBJkr83xnwkn8+zpKAPAm3U/Uptm3PuU3fcccd9M2bMiNavX89AyzBLxai6uto2NDT4srKy9xhjbhGRsxhk+y7ThhBCofRAVTeJyD9v2rRpCwDMnj07uvXWW9nnkIh23W9nz55tb731VgcAU6dOPcN7/48iUtmjpIBlYH2gRy/al51zn+ro6Gg/88wz4y1btiQcHYZZKiKFWqAzzjjj8JKSkg3W2hMYZPsh0aoGVUUmkzEAgoisCSH8v7a2ticZaolo9xBbXl5+pDHm70MIC0TE5PP5ICLclNsPc3Xai3anql7Q2tq6niu0DLNURAo1QOXl5ceIyDoAH+FhCP0+UXoRsXEcA8AfRGR5HMff3rBhw4sAN4kRDUdf/OIX7be//W0PAGefffYhJSUl9apaJyKHsUvBwAVaa21eRL7Q0tJyfeEwIY4OwywNoMIHsaKi4uMhhA3GmLEMsgOncCxuehLNk9ba/3zppZeuuv/++xMAsnTpUnPZZZcx1BINYUuXLrWXXXZZAKDHHXdc5oMf/OACAF8RkfHOOR5DO/CBVqIokhDC/La2tu8w0DLMUhEE2dLS0k9Ya9cD+EDaWJuT5ADPlwC8MSay1gLAg9babzQ3N/+w8LkrHGTBoSIaOurq6uzy5ct39Z6eMmXK+d77rxljTmRdbFEFWhURzWQyRlUvbWlpWc5AyzBLAxhky8rKTrfW3u69f4/3nq+siktIj1e0xhioans2m/3W+vXrm4DuzhMigoULF7LzAdEgdtVVVxkAuz7L06ZNm54kyVdF5JwQAtJFBrbaKr5FB81kMsZ7/6W2trb/YaBlmKUBCLIVFRVnAbhdVQ92zvF42uJdBdi1SUxEAKAlhPDNtra21kKoffjhh4UrtUSDS11dnT3ppJO0uro6AEBZWVnOWvvXIlKWhlhu7ir+QFs4tvyvW1pa/iO9v3LTLsMs9UeQLS8vnywit3nvDwwhMMgOjlDrVVUKoVZE1qvqv7e0tGwpfB5ZU0tU/HrWxAJAZWXlGQC+pqrTVbUQYpVvygZPoM1mszaE8HctLS3/mm6qZqBlmKW+DLKVlZVlqnqbc+6AEAJLCwZhqBURk25AUGvtumw2+7/r16/v2C3UBk6mRMVzv9z9czljxozSrq6uP/fezzTGiHNOVTVwTh5803IIIYwYMcKGEP6xpaXln9MDcDgHM8xSXwTZsrKyUmvt7WmQ5Yrs4A+1hXZeANCayWT+Z8OGDY2FH0hbenFCJRrA+2R9fb3p2Vpv+vTp0/L5/F8AqAAAttkaGlMy0hXaJEn+ob29/f9xhZZhlvogyFZUVEwWkXUMskNLCMGnzbwlLT/oAPDfqtrc0tLiAB6+QDQQ98eehx3kcrkojuMq59xfqGqpqsI5pyGEwA4yQyrQ+mw2G4UQ/ralpeXfWEPLMEu9GGQnT548KY7j9QyywyPUpj/0sDFmGYAfbNq0qRPYtVKrANgBgahvmPr6eimsxJ599tkjRowY8Tnvfb2InAiAIXaYBFrn3Nfa2tq+wS4HDLPUC0G2tLT0DGtto6qOYdeC4RFqAUgURSZt6fVLY8xqAN9taWn5PQCsXr3abN26VXr2tCSifb8X1tXVmYkTJ+q8efMKnQk+YK2dq6qXiMhHvPdwzgUAyhA79ANtCCGUlJRY7/1X2travsVAyzBL+xFky8rKTjHGNKvqIc451mQNp9k0bekVRZGJogjOueejKForIt/duHHjTwo/b/ed1US05/fAOXPm2JtvvnlXSCkvLz/RGHOx9/7z1tr3piHWSzcuJAyjKRhp264QwhdbW1uXMdAyzNJeSIvOXVlZ2UnGmI2q+l6uyA5f6evMICJRFEXw3uetteuz2eyV69evbyn8vMWLF9szzzxT586dyxIEonewdu1as2XLFrnyyisLm7pkxowZU/P5fI33fpoxJnbOQVVd98fPcO4d5oE2SZLFHR0dKxloGWZpD9TU1NiVK1f6ioqKjwBoDyF8gCd7UY+J1QOIenRAeEBEVkZRdEtjY+OLhc81W3sR/en9bvfPRWlp6Xszmcwc7/0iY8wnVBVJkgCAA2B5j6T0WtE4jo2qfqG1tXUtAy3DLL2DRYsW2VWrVvnJkyePN8Z0GGOOSpKEQZb+ZHJNV2t3dUDw3v8+iqKbjTFrm5ub7y38xBkzZkTjx49Xtvei4XqPq6+vN0899ZSsW7duV/iYPn36Gfl8/hLv/Sxr7XsLBx2gux7W8N5Ib5pwVVVENI5jqOpnWltbb2KgZZilt1BdXW0bGhr85MmTPxBFUTuAj6TneTPI0tsKIQQAGkWRtdYihABjzJ3W2jXZbPbW22677Y+Fnztnzpzo5ptvDmAnBBr6zJw5c0zPWtiysrKDs9nsec65i0MI5xhj4JyD994DEJYS0LsFWmMMrLXOez+jo6NjEwMtwyz1sHr1ajNv3rxw+umnHzJq1KhNIvLJJEkcgIijQ3s61yItQYiiCCKCEMKz1trb4zi+fsOGDXelPwdr1qwxN910k1m3bh17J9KQup/NnDnTfvrTnw4XX3xx4YFNpk+ffnaSJJ9JT+k6Mu0PC7CUgPY+0AZjjLHWbvfeT+3o6PhRYY8LR4dhlt8DANOmTRvZ2dnZZK09m0GW9kfa2guF1drUw8aY67u6um684447nuj5IMUWXzSY588lS5YY7z1WrFix64SuyZMnT8hms+eHED4D4CQAKHQlAAC+8aL9CbRp28Q/eO/L2tvbf1rY68LRYZgdtuN/zTXXyPLly+3o0aNvjaJoGoMs9ea8i+7VWmuMEWstVPU1EblDRH6YJMnGjo6O3xV+cm1trbXW4vLLL2ewpaIPsCEELF++fFeAyOVy7zfGTAkhfFpVJ4vIAd57hBB2fQ54z6NeCrTedvtNkiSld9xxx5O1tbW25wMVMcwOm7Gvrq42aZ3s2jiOL2KQpb5SqK211too6r7EvPcviUh7FEU3hhDaWlpa/lD4+XV1dXbbtm1y2223sRSBijbAlpaWHhzHcYX3/tOqWmGtPQQAa2GpP+ZUn8lkLICfqWppW1vbHwAYcE8Cw+xw0qOX7H9ls9kv7dy5k0GW+mVRIQ22KARbVUUI4fdRFG0A0Kyqd+webI0xuPzyy3mMLvUns2TJEtm9hKC0tPTgESNGTHLOVSVJMt1ae7iI9AywYEcC6icujuPIe3/XqFGjqtatW7ejMM9yaBhmh7zCDsiKioq/sdb+W1dXF4MsFU2wBfB7EWkXkfU7d+5su+uuu57vOWfMnDnTfuYznwkXXXSRctKm3rwfXXvttXL99df/yebEc88995DOzs4yALO995NE5Ii0JV3POlgGWBqwQOucu338+PFzoijCqlWrWKrFMDs8gmxpaemCOI6vyufzHt2vJvi9oAENtgB8CMFYa02PUoQ/WGvvFJEWEWnbuHHjoz1/0aWXXmqfffZZue222wqTNydw2htm1qxZ5vDDD9ee5QPpXHm0936Sc26q9/4ca+37egTYYIwJ6dzJMgIqlkDb0NHRsYgbwhhmh7RCaUFFRcVUAOudc5J+D/h9oKIKtruv2AKAqu40xjwIYFMURRtfeOGFh++///6k5y+cNWtWNHbsWB7SQG97z6mvrzdPP/203HbbbW9qZ5TL5aIoik4IIUwJIUzx3n/SWjsKAEsIaFAE2mw2Gznn/qmtre3rbNnFMDsk1dXV2eXLl/vS0tJPRFHU5pwbE0JQEeGqAg2KYGuMsYUett57iMgvjDH3GWPastnsPbfffvsTu88vs2bNsgy3DK9peP2TzYTl5eVjjTFnASj33k8MIXw8PWUJ3nt4770xRsFOBDRIAm0mk4mcczXt7e2reKgCw+xQYwH4yZMnHxnH8V3e+6O894FBlgZjsE3DRZSehgMA8N53WmsfNsa0Atgcx/HP1q9f/1zPX7x69Wpz7733yu9+9zuWJQzd+4nMnj3bJEmCCy64oOfhBQCA2bNnH/baa699zBgzCUBFkiQnRVE0EgBCCEgXX10IQbgCS4NxjgQQ4jgWAOe2tLRs4Aotw+yQGuOKiopRAO4A8EkeU0tDQaHdF/DmVdu0O8KLURT9LL3m77DW/rSpqenF3X+P2tpaCwDsbzs457bCgQUA8FY9NmfOnHlIkiQfBzAphDDJOXcCgPekPY93rb4Wfj+20aKhMDWKiERR9JpzbnJHR8dDhePqOTQMs4N2fKurq83JJ5+s3/ve927JZrPnspcsDdUVicKqbWETmbV2V0mCqj5njPl5HMcPOOfuy2QyP37/+9//m2uuuWb3CV7q6+vN448/LhdeeCE7JhTRXHbttdfK97//fXP00Ue/ZdnI/Pnz7TPPPHMkgE8YY0723p8SQvgYgA/sFl6DMSZw9ZWG7GSYHqpgjHnKWnvWxo0bt1111VVm4cKFbG3IMDv4FF4vnHPOOf+byWSWuu4DwRlkaViFWwBWRKQQblUVSZJ0GmMes9beb4z5kff+F6NHj37s1ltvff6tfrP6+nr75JNPyvjx43XZsmU9Ay6Dbu/fD6S+vl56jPdbriilJQNHW2uPS5LkDFWdGEI4Oo7jEYXvc/ogU+iUwfBKw0YIwWezWeu9v2f79u3lCxcu7KqpqQHYq5thdjApFH7ncrmlxpj/ZS9ZYrjdtXIrxhi7W80tAPwhXcm4X0QeSJLkx5lM5rdNTU2/f7vftBByjzzySE1LFQpBlyH3ned9KRxI8Mwzz7xjaAWAqqqq9zvnPiAiJwL4pPf+ZFU9GmnJQOF7mAZY3+P7zPBKw5mL4zjK5/PXb968+bMsN2CYHVQKK7K5XG4WgFuTJGEvWaI/Dbfa83Xz7qu3aceEl621TxhjHlPVhwH8DMCvrLW/b2pqeu2d5rZrr71WfvCDHxhjDA4//HA988wzde7cucDQXtXdtbq6du1abNmyRbZt2yYhBHzuc59717KNqqqqA7z37wfwEWPMx0MIJwI4xjk3QVUP3v37o6pvKi8xxrDVINFugTZt2fVvbW1tf8sNYQyzg0KhBdfkyZP/LIqiLd77UWzBRbRPAdeKCAoBCgBUFc65LhF52RjzVBRFT6rq48aYX3jvHwXwu3Hjxj3f0NCQf7c/bPXq1eaee+4RYwyeffZZKYS0twm+GIAAvPv8/KaAWvh6jzjiCA0h4IwzztDduwe8lerq6sxTTz11GLprWY8NIRwH4BhVneC9PzKEcHAURdmeY15YdQ0heAZXor2b1wD4TCYTqeq8lpaWNQy0DLPFzgDQsrKyQ40xPwJwbJIkXkTYuYBoPwIuAO0RoszuIRfobqwfQnjZGPOyiLwYRdFTIvKEqj4pIk+HEH4bQni5pKTk1a6urldaW1v35Wbyplf0hRC833/JNJTub6nEySefHB966KFjvPejReQgETkcwJEiMkFVxzvnxgE41Dl3sLV2TOFAjLcIrbs2aQE8qICoFwKtxnGcd86Vd3R0/IglBwyzRTuWNTU1JkkSPPnkk41RFFV2dXWxBRdR39wY0GODGXqWKhhjICK7/knDGUIIUNUEwItp2H3eGLPNe/+CMeZ5EXnBe/9Ha+0fkyR5KYqiV+M43p7P57vGjRuXb2hoSNDPK7PV1dXxU089lRGRkhDC6BDC6CiKDgkhHGKMOQTAe0Xkvap6mKoe7pw7LIRwqIgcIiKxMQaF8VDVXf+kY6G7jWFhtZX3BqLenrRUQxRFRkSeNcactmnTpm0NDQ2murqaG8IYZotH4bVBaWnpMmvtEnYuIBq4FZD00DLtsRFJ0P3mBCKCnoF312QosqtxfwghiEgeQD6EsNNa+6q19jVr7XYAOwB0AtgJoFNVdxhjXg8hdAJQEUm89wrAWWu9qoqIKADrvY/SVc6o+4+UEao6UkRGAhihqiMAlIjISO/9Ad770d770caYkQBiVc10d/zpDqndjQJ23Sx7BtXCD4e0dEPTVVZJW7myRICon4UQfCaTsSGEH5WUlJTNnj07WbRoETesMswWV5AtLy+vjeN4eWdnJ4MsUfGGXRRKFwDAGKOqWgizu3bg9wy6hfDbM/j22Re4W0BNg3nP/7ZrRbXn11340ri6SlTUCh0OVm/evPmSqqqqqKmpifWzDLMDq7DhK5fLTVLVtu4FWXYuIBoKobfnvxdWewsB+N1+gx4Bs2co1r34NT1XUTlvEw2hQJt2OPiLtra2/+WGMIbZgWYAhLKysiMA3CciH3TOBXYuICIiond4WA5xHCuAqS0tLW2LFi2yq1at4oYwhtn+H7tFixYZ55x98skn26y1Z7FzAREREb1rmlUN1loD4Dnn3MQ777zz6WuuucbMnz+fG8L2AYPXPqqpqbGrVq3yo0ePXpbNZj+VJIkTEdbJEhER0TsSEQkh+CiKRltrJ44ZM2atcw4PP/wwB4dhtn9UVVVF1113nc/lcvPjOP5/+XyeG76IiIhobwKtCSG4OI7HRVF0yC233LJh2rRp0aOPPsrVWYbZvlVXV2d/8IMf+MrKyk8CuClJEpOOI0s2iIiIaG8Y773LZrOnjR8//jcbN258iIF2Hx4MOAR7d9EBQC6XO9B7fx+AD3nvueGLiIiI9pWKiFprO0MIZ7W3tz/ME8L2IZzRnpk5c6ZBdxPyq6y1H3LOeQZZIiIi2g+Stv4bKSLfnzJlypiJEycquODIMNvbampq7Lp161xFRcVfxnH8qSRJHI+qJSIiov1OsyImn897Y8xHdu7cubK6ujpUVVUxY+whDtQeqK6utqtWrfLl5eVnici1+XxewTpZIiIi6sVAG0JwI0aM+LNx48b9cdOmTfeyfnbPcGV2D66viRMn6uTJk9+jqmtV1aoqzzUnIiKi3mY7OzsDgP+sqKg4ubGx0V166aVceHy3oMYheOfxqa6uNg0NDf6cc865NZvNzurq6vIsLyAiIqK+UDhQQUT+b8eOHRPvueee19B9aphydN4aV2bfQVVVlW1oaPAVFRVfHjVq1CzWyRIREVFfKpQbGGM+PGrUqOUAQl1dHfPaO2AwexuFfrK5XO5UEfleV1dXYby4mk1ERER9yTjnfDabPeGII4549sYbb3ywurraPvTQQ1ydfasHAA7B246LTJo0aZS1diuAj7CfLBEREfWjQv/ZHSGEie3t7b+85pprzPz587khbPfkzyH4U7W1tQZAsNZ+21r7kRCCY5AlIiKifiTeewVwgIisOfbYYzNbtmzhBnSG2Xe3cOFCu2LFCl9eXn5RJpOZ19XV5QFEHBkiIiLq15BmjHXOOWvtKUccccS/XX311X7RokXMbrunfg7BGxoaGkx1dXXI5XITQggPhhAOZBsuIiIiGkAaQgglJSU2hDC1tbV1Y11dnV2+fDmPu01xA1iPYP+e97zHLFy4UH72s5/9MIqijyRJwjpZIiIiGtB8IiJQVahq6bhx46698cYbd6B7oY0bwhhm31BVVRXdeOON/rXXXvurKIoWOueciLC8gIiIiAY80HrvQxzHBwE46sknn7xx5syZ9te//jU3gzHMdqupqbHXXXedr6ioONlau9Z7XxgblhcQERHRwKfZtP9sJpM5/uijj36mqanpwbq6Onv//fcP+9VZhrX0lK/HH388BrDVGHM8ywuIiIioCKmIqDFmexzHn2xubn4c3Zv5h/UK7bAPbIVTvkII/2qtPT4tL2CQJSIiomIj3ns1xozx3jcAkNra2mG/UX1YlxlUV1fb66+/3udyuUnW2hVdXV1BRFheQERERMWZZtNygziOjx43btwrN9xww49qa2vtAw88MGzLDYZzmJXa2lps3759FIBGVT1UVcFVWSIiIir2DBNCUGPMOUcdddQtN9544/Pofts+LAPtsA1uCxcuNNXV1QHAN621x3jvPYMsERERDYYwm54ONlJVr5o/f75dtGjRsC03GJYrs9XV1faqq67ylZWVlcaYy7q6urwxxoDlBURERDQY0mxabhBF0VEvvPDC6zfffPPdw7XcYDiGWamtrcXvfve70ZlMZl0I4SCWFxAREdFgzDSqGuI4PvvII4+8+aabbno+zXbDKtAOuwBXXV1tqqurwwEHHPAv1toJ3nu24SIiIqJBGWZDCAAwAsCVK1euNNXV1cAwe9M8rFZmq6urbUNDgy8vL58cRdEVXV1dgeUFRERENGjTrIhxzvk4jsf/+Mc/fvmWW265Z7iVGwynMCu1tbV4/vnnSzKZzPoQwntYXkBERERDINAKgBDH8VkTJky46YYbbvgDhlF3g2ET5ArlBSUlJV83xnw4hMDDEYiIiGhI5FnvPURktKouA4D0MIVhYViszPYoLzg5iqKrkiQp/N1ZXkBERESDP82m5QYlJSXHjhs37qkbbrjh4erqavvQQw8N+dXZ4bAyKRMnTtSTTjopDiFcoapxWizNIEtERERDJ9QZI11dXSGE8M3Jkye/f+LEiTocst6Q/wsuWLDAVFdXhwMPPHBpHMcTnXPOGGN5yRMREdFQy3UhBLXWHua9/2Z1dXWorq4e8ot3Q/ovuHr1ajNv3jzN5XJHq+rD3vuRqjpsT8ggIiKiIU9DCKGkpMSGEKa2trZuXLhwob3qqqv8kE3wQ/m7uWXLFkm/qZeJyAHp0W8MskRERDRUiYiIc06dc5edd955I9NygyGbf4ZsmK2trbUNDQ2+rKzsfGvttPTIWpYXEBER0VBPsyaE4OM4/vCLL774V4sWLQoLFiwYsplPhvDfS2bMmDF6x44dPwFwpPde2YqLiIiIhgkFoFEUdQI4ubW19Zdp+WUYan/RIRnuamtrDYCwc+fOf7DWjnXO8chaIiIiGk5EVVVERqrq/wDA3XffPSQXMYfca/fa2lq7YsUKn8vlTgRwlXNO0iDLWlkiIiIaPmm2R+/Z8ePH//Kmm276WV1dnb3//vuHVO/ZobZaKd57AJAQwv8CiFWVm76IiIhouAZayefz6pz75qRJk0YvX758yOWiIRVma2trzapVq3x5efnn4zielM/nvYhw0xcREREN1zBrvPchiqKjrLVfAxAWL148pPKfDLG/i+RyuQO99z8BcEQIYVicfEFERET0DgqbwfIiclJLS8v/XXPNNTJ//vwhsRlsyAS9+vp6AyAA+Ftr7ZEhBM8gS0RERLRrM1gJgP8EoGlZ5tD4yw2Rv4cBECoqKj4K4CHnXCb9u7FWloiIiAhACMGXlJTYJElmdnR0rF+wYIG9+uqrB32qHRIrl7W1tQIAqvqfAEq46YuIiIhot9BnjDjnICLfnDx5cslpp502JPLSoA+z1dXVdsWKFb6ysnKatXY6N30RERERvXXuc855a+1HVbW2urp6SGwGG+x/ATn11FP12GOPzXjv/yOEoCJckCUiIiJ6y+BnjHHOhTiOv5bL5d5/5ZVXDvrV2UEdZhcsWGAWLlwYPvCBDyy21n48n88HrsoSERERvS3x3quIvCeE8PcAQnpy6uD9Cw3WLzw9X1jPO++897zyyis/V9VDu0tl2cGAiIiI6B0UWnUlAE5pbW39aeEE1cH4lxm0we+uu+4SALp9+/a/sda+V1UDgywRERHRuyq06sqq6jcAYDC36hqUK7OFVdmKiopjADzinMuCrbiIiIiI9lgIIWSzWaOqFa2trW3V1dW2oaFh0KXaQbmSeffddwsAFZF/FpER6UlfDLJEREREe0hEVFURQvj3yZMnRxMnThyUeWrQhdmamhp71VVX+alTp56hqhckSRKMMdz0RURERLR3Ydbm83lvrT1ZRD43WFt1DbovuPDUkCTJvwAw6QEJRERERLS3QdCYQneDr8+cOXPUYGzVNajC7OLFi+2CBQtCaWnpdGttKQ9IICIiItq/LOicC9baCTt37lwMINTX1w+qfDjY6iJMLpczzrn7rLWfSJKEYZaIiIho/wTp9nxJScnHGhsb/5j++KB4+z1oknd9fb0FEFT1s9baT3BVloiIiKh38qD3Plhr35ckyZ8D0MFUOyuD6OuUs846KxvH8Y+NMcc651RE2FeWiIiIaP+piEBEXgVwfHt7+7OrV6+WefPmhaJP4oNhdJcsWWIAhBEjRsyPouhDSZIEBlkiIiKiXiPp6uwYa+1XAWh6QFXxf+GD5Ws877zzRr/yyis/U9Uj0g4GDLNEREREvUcBqLW2K47j45ubm58YDKuzRR8I0x11+tprr1Vba4/03vPYWiIiIqLeJyEENcaM8N7/NQC99957i37hUwbD11daWnoQgJ8B+ABXZYmIiIj6jIqIGmPycRyf2Nzc/Os0jxXt6mxRh8LZs2dbABpFUW0URR/kqiwRERFRnxLvvRpjSpIk+RoAra2tLerFz2L+4gwAnT59+iE7d+78BYD3hhC4KktERETUtwq1sy6TyZzU1NT0y9raWrNixQpfrIGxKNXX1wsA7ezsrLPWHhZC8AyyRERERH1OAARjTKarq+uvAahzrqi/2KL9uqZNm3ZIZ2fnL1T1vd2lsoPuxDIiIiKiwUgBwBiTGGNObG1t/VWxdjYoypXOtK+s5vP5xdbaw9JaWQZZIiIiov4hIYRgrc2IyFdRxJ0NpFi/pnPPPffg7du3/wLAYexgQERERNTvVERgjOkq5s4GRRcQCx0MXn/99Zooit7HDgZEREREA0K898EYU5LP578MQBcvXlx0C6FSjF/PnDlzRr/88su/APBBdjAgIiIiGjCF2tmdqnp8R0fHk8VWO1tUIbGwKvvKK69cbK093DnHVVkiIiKigSMAvLV2pLX2iyjC2lkptq/l7LPPLomi6KciMoGrskREREQDTkUE1tpXkiT52ObNm3+HIqqdLZqgWF9fbwBoNpv9TBzHR3NVloiIiKgoiPc+iMhBURTVAdDZs2cXTUaTYvo6crmcTZLk4SiKPpbP54MxxvL6ISIiIhpwQbr9YfTo0R+57bbbXkp/XAf6CyuKVF1XV2fSwZgZRdHH8/m8MsgSERERFQ3jvQ/W2vfu2LHjEgCavlUf+C+sGL6IT37ykwoAIYS/SEOt8pohIiIiKqI0a4x479U5V3fKKaeMXLZsWVEcajXgYbaurs4uWLAglJWVnW2MOcs5x1VZIiIioiLMs845jeN4wsEHH/wpAJqe2jqgiqFm1gAIuVzuZgDndXV1eYZZIiIiouITQgiZTEaccw9PmDBh4jXXXBMwwG/UBzRNL1myxAII06dP/1gIYXqSJFyVJSIiIipSxhiTz+fVWvuJp59+uhKA1tXVDWh2G9AwG0J3e7J8Pr/EGJMB4HmZEBERERU1FRGIyBeBN/Y+DZSBLDMwALS8vPz9qvoLVR2jqgP9NRERERHRu4RZAIiiKAA4ubW19ZGamhqzcuXKAVmUHLCV2fPOO8+kyX6etfYgVfUMskRERERFT0IIQURsCKEOgBozcC/7ZSD/3BNPPHHkoYce+lNVHZd2MeCJX0RERETFT0UEAF4dM2bMR2+99dbCEbf9XnIwIOFxzpw5FoC+733vO89aO945FxhkiYiIiAYN8d6HOI7HvPbaa5cAwEC16RrQldny8vItInIaj64lIiIiGnSCMUZCCE9OmDDh49dcc83Ogfgi+j1Bp+24UFlZebox5jQekkBEREQ0KBnnnFprJ/zud7+bAQBLly7t90zX72G2q6sLADSEUIPuFdrAa4GIiIhoUFIRQT6fXwwAl1122dCumV29erVpaGjwuVzuiBDCnCRJAICrskRERESDkDHGOOdUVSdNmTLlJACh8BZ+SIbZG2+8sfDnfcFae0AIge24iIiIiAYvAeCttdZ7XwO8cShWf34B/fpnVVZWZp1zPwVwTOj+27KLAREREdHgpdLdp+uPAD7S0dHxAvqxTVe/BcmZM2dadDfVrTTGHOOcY5AlIiIiGvzEe++jKDpERC4AgLq6un7LeP32B82aNSsAgPe+Om2yq/zeExEREQ0Nqgrn3CUrV640y5cv77dag34Js9/5znfMwoULQ1lZ2bHe+1ySJDzti4iIiGiIMMbY9BCsT9xwww1nAND+2gjWL4HypptuMgBgrf2CtTYLgBu/iIiIiIaQEILGcSzGmAUA4L3vlz9X+uvPOPvss0uiKPq5iIznxi8iIiKiIUel28vZbPYjTU1Nz6EfNoL1eaAsbPwaMWLEFGvteG78IiIiIhqSxHvvrbUHhRA+BQBz5szp81KDPg+Vn/70pwsbv+aJiIIbv4iIiIiGrHQj2BcAmJtvvrnPN4L1dZmBARAqKirGhRB+rqojVVXBelkiIiKiIZtnoyhSa+1pGzduvH/t2rVm7ty5fRZq+3Rltr6+XvD/27ufH7vq847jn+c55157bI9tDHHA5oex+Wl+BUIoJlUNNkPsBHDrQisUVVlELCLZ3XXNH5FdlLJhEkRQ+CE2CEeqIuFWqdSkitSkUeMOcUlR2BWwHd97vs/TxZxjjwHDzPiOfW/8fq3smXOP5e/dfPTV80OSmf1tVVVrMrMhyAIAAPxJK2bmpZS/k6S33357RbOfrfS7Z2ZmqlLKL9z9zqZpiqSK7xgAAOBPVtcI9t6GDRtue/XVVz/QCjaCrdjN7KFDh1xSllK+amZ3to1fBFkAAIA/bVZKCXe/5qOPPvq6tLKNYCsWZhfMFvtmux8h+G4BAAAuC9k2/n9TklayEcxW8L05MzOzsWma30janJmM5AIAALhMwqwkc/dT/X5/55tvvvlOmwNHHmpXJFy2s2Ul6etVVW0u89e0BFkAAIDLg0lqqqqaysxu5uyKZMEVeWk3WzYzvynmygIAAFx2IsLbmbPPaH7m7Irst12JMOvf+ta34pFHHrkxIh4ppZi70/gFAABwGXF3b5omzezeffv23ScpDx8+PPJMOPIw210h93q9v6yqaqos6AQDAADAZaWYmUfE05I0Nzc38n6tlWgAM0nau3fvUTPbNRgMCjezAAAAl6Xw+bFW/7Vx48a7XnnlldMa8czZkd7Mzs7OuqTct2/fHWZ2f9M02f4HAAAAcPnxiAhJN3/wwQcPSWd2EYzuHxjly1588UWXpFLKX5tZT1IR62sBAAAuZ1FVlczsb9qcONKXjzpo2mOPPVYNh8N/M7O7m6YJbmYBAAAua+nulpm/X7du3a1vvPHGCY2w1GBkQbPtTsvMvFfSXRFBiQEAAAAsIqKqqq2DweBhSXbgwIGR9VONLGy+8847JkkR8Vd1XZvmSwwAAACAMLMspRyUlFu3bh1ZA9goywzsgQceqNeuXfsLd79jOBxSYgAAAADpbKnB/0bEbT/96U8/1IhKDUYSNrsSg02bNt1nZjtLKZQYAAAAoGNN00RVVVtWr179F9LophqM5CVdicFwOKTEAAAAAJ8Mne5hZhkRB6XRTTWwEb0jH3vssXo4HP67md3RzhPjZhYAAACdNDOT9Pu6rm87cuTIRxpBqcEFB87Z2dkuEH9J0u0RkQRZAAAAfIxlZrj7Vnf/qjSaUoMLfsFLL73UveOJuq5dlBgAAADg04W7q2maJ6XRlBqMqszA9u7d+69m9uXBYMAUAwAAAJwvzHpm/vfGjRt3vvrqq6d1gaUGFxo6K0m5b9++nWZ2T9M0IsgCAADgfNkzItLMtn/44YcPSNLhw4cvKDte0IcPHjzY3ezuN7NaUsN3BAAAgM9QqqpSZj4unZ2KtVwXWmZgkrR3795/MrPdg8GguHvFdwQAAIBPExHR6/U8In7Z6/W+/NZbb3WFs8sqNbiQm1mXlN/4xjeuz8wHSimUGAAAAOCzA6S7l1IyM+9ommZnG2KXfcG67PD5xBNPuCQbDod7qqqaKvPtaMZXBAAAgM9Rer1eVdf11yTp4MGDy86ky/7gU089FZIyM7+uEezVBQAAwOUhIiwzlZn7JemVV15Z9owuu4DP5cMPP3yFmf2npM2ZeUFXxAAAALhsdNvATvR6vdvfeuut/9H8JWss9UXLupntRihMTU3tqqpqcyklCLIAAABYJCullLqu10raLUkHDhxYVi5d1ofm5uZMkpqmeczM5O7BdwIAAIBFh1D3lKSI+JokbdmyZVllq7bMz+S3v/3t6tixY7+o6/qupmmK5hcoAAAAAIsR7u4RcXz79u23Pf/886e0jG1gS76ZnZ2dNUk6fvz47Zm5s2maZb0HAAAAlzWLiHT369999937pOVtA1vyB1566SWXJHff0+/3K81v/aJeFgAAAEsKs2q3gUmakaTjx48vOVMuOcy+8cYbIc3Xy2amIoIgCwAAgCVbMKJrryS9/vrrSx7RZct4PmdmZq5omuY3kr7ASC4AAAAs05kRXatWrbrtzTfffFdLHNG1pJvZro4hIr7i7l/ITEZyAQAAYLmslFKqqlprZg9J0qFDh5aULZcUZrs6hrquH3afz7V8BwAAAFgud08z02Aw2CNJpSyt0mBZZQaPPvrov0h6cDAYFHdnJBcAAACWJSKi1+t5RPy6ruu7jxw50iwpDC/x2Txw4MD1EXFXKUXeXs8CAAAAy+HuVkpJSTeb2W2SNDs7u+iMuegHDx8+bJJ0+vTpB919bZm/A6ZeFgAAABfCIiLquq4l/bkk/fCHPxx9mD127JhJ0mAweKRdYZucPQAAAC5Ulyszc7ckbdu2bdE505bwXH7ve9/zH/zgBz+v6/qe4XAYlBkAAABgBLpcOVdV1c4jR478UYtcbbvYMGqS9KMf/Wh7RNze1stSYgAAAIBR8IjIiNjW6/V2Sotfbbuohw4cONCtsH1w9erV/YigXhYAAACjVHq9njVN85Akzc3NLSprLirMbt269Zw6BuplAQAAMEoRYQvz5g033LCovLnomtmZmZmqaZqfV1V112AwoF4WAAAAI82zVVV5RMwNh8M73n777VNaRN3sYgKpS8q6rm+IiFuapqFeFgAAAKPmpRRl5g3T09O3SNLs7OznZs7PDbPdfNmIuL/X662KiBD1sgAAABixiCjtNrAHpcXNm/3cB44fP97VLzzUzpcNjhoAAACj1vVlNU2zS1rcvNnF3LCapJyZmflZZj4wGAyKu1ccNwAAAEYpIqLX63lm/rqqqruPHDnSfG4AXsTv8/HHH99aSunmy9L4BQAAgJFzdyulKCK213W9Q5JeeOEFX3aY7eplB4PBXe4+XUqhXhYAAAArxdq62VUR8SVJOnr0qC07zHb1smb2Z9TLAgAAYKUt2GfwoCS99957yw+zr7/+ekhSKeUr0tlhtgAAAMBKiAjLTEXEfW0eLcsNsyYpdu/ePZWZ90QE82UBAACwotzdSylqmubO3bt3b9L80gRbcpjthtT2+/3bSilbSykS9bIAAABYWZaZ6e6b1qxZc6ckHT582JccZrshtVVV3dvr9UxSQ5gFAADARVDcXRFxryTNzc0t/WZ2x44dKUmZeT/nCQAAgIul69OKiK9I0nXXXXfe5QmfddNqkjQzM3M0M3exLAEAAAAXKcxGv9/3pml+uX379vuef/750mbTT4Ra/4wgm/v27buyaZpbWJYAAACAi2XB8oQdv/vd77YsyKdaVJjtmr/M7BZ3vzIzP7OLDAAAABghK6Vkv99fW9f1TunsMq9Fhdmu+auUcl9bfMuyBAAAAFw07l7MTJl5nyQdO3Zs8WG2a/4ys3vazV/JkQIAAOBi6ZrAhsPhPZL09NNPf+rl6vlKB0xSPvrooz+T9MBgMAhqZgEAAHARw2z0+30fDAb/8cwzz9z9ne9851PDrJ8vyD755JNXRsT2tvmLelkAAABcNF0TmKTrf/zjH285X3b9xA+6DQtN0+zITJq/AAAAcClYKSV6vd60md3c5lT73DD7zjvvdENq76zr2mj+AgAAwKXg7uHucve7F+bUzwyzVTW/FyEzv9S+hOYvAAAAXEr3LMypnxlmX3vttZCkiLg9M890kgEAAAAXU0RYZqqUcmubU7tNYOcNsyYp9u/fv7qUcnNEsPkLAAAAl0TXBJaZN+3Zs2dai1hna5LUNM11EbFlvvcLAAAAuCS6m9mrVq1atV06u6n2U8Ns1yHm7rfUdd0rpYSYZAAAAIBLFGYjovR6PS+l3CJJL774op83zM7NzZkkZebt7eYvJhkAAADgkumGEZjZzvbvOm+YvfHGG7u6grsk0fwFAACAS2pBHr1DkrZt23ZOHezHw6pJyr179/6zme0aDAbF3SuOEQAAAJcozEa/33dJP//JT35y/4JfpXTuzaxJyqeeemp9Zl7LGlsAAABcat1Eg4i47sknn9ykj000+HiY1alTp65umqabZECYBQAAwKVk7e6Dq06ePLlFkl544QX7RJjtJhmcPn16R13XlSQmGQAAAOCSi4io69rqur5Zko4ePfrJMNvtunX3W9tVYUwyAAAAwCXn7tFOMbhVkt59991PhtkFu25v4sgAAAAwTtpSg5ukcyZwnQ2z7a5bDYfDm9qHKTEAAADAJRcRlplqmmaHJH33u9+NT4RZSfn973/fM/NGmr8AAAAwLtzdMlOZef2zzz7b14KJBl1tgUnShx9+eHUp5R/MbMrMCLQAAAAYFxYRvZMnT77w29/+9v80fymbLkmHDh1ySVq9evWWuq435vzVLEEWAAAAYxFkMzPcfV1EXNPm1/nhBZJUSpEkDYfD6+u6tohgkgEAAADGRkRkXdeSdOPC/OrS2fEG7r6DowIAAMC4cfeuTnbHOflVOjuWy923fexhAAAAYJxsOye/StJrr72WkpSZ13M+AAAAGDfd2Nimaa5t82vpwqxJKprvENvazph1jgwAAABjxCJCEXHts88+W2l+PJedCa179uxZ1zTNtaUUuTuTDAAAADA23L0Ls1v+8Ic/bDjzc7UjuOq6/mJmbmwXJgAAAABjJTPl7tODweAaSXruuefMn376aWt/eY2Z9dtnuZkFAADAODFJ6e51N2v2V7/6lfn7779vklRV1TV1XSsiCmcFAACAMVTaKQbXSNL7779/tmY2IrZKjOUCAADA2Nva/eFMmDUzxnIBAABg7C3Mrb558+ZzZsx2M7wAAACAcbIgp14nSZs3b05/+eWXuzB7DZMMAAAAMM7anQhflKSXX345XFLs2rWr1zTNpjbMcjMLAACAsePulplqmmbT/v37V0tKl6Qrr7xyfURsiggWJgAAAGBcWUQoM684ceLEeqltABsMBtNmdgVlBgAAABjnMNvm1Y1r166dPhNmJV1lZrXaHbecEwAAAMZUVlXlpZQvLAyzV7cDaLmaBQAAwNiKiDQzSbr6TJh1981mpoggzAIAAGCcpZnJ3TefCbNN01xlZjIzwiwAAADGlpmlmalpmqvOhNmqqq7iaAAAADApuvx6pgEsM5WZNH8BAABgbGWmtbn1ynPCLEcDAACACXL2ZnY4HF7F9i8AAABMAMtMmdl8mH3uuec8Iq7gXAAAADDu3F0RoVLKRklVNRwO12Xm31dVtVEsTQAAAMB4SzOzzDy5Y8eOf6zXrFkz3TTNVESIIAsAAIAx1zWATZVSpv3kyZPTmTnFuQAAAGBSZOZUZk57r9ebNrOptgEMAAAAGGfW5tapuq6nPTOnq6qqRb0sAAAAJkPWde0RMe3uvr5Nt1zNAgAAYCLCrCSVUja6mW3gPAAAADAp2sEFqut6vUfEhm5eFwAAADAJzEyZud4lcTMLAACASbTBzWx9+xdqZgEAADAJ5hu+MtdTMwsAAICJZGbrPTPXcRQAAACYNBGxziWt4SgAAAAwadx9yiWt5igAAAAwQUyaX2nrZjbVjuVi+xcAAAAmQrfS1iNiSpLcnVMBAADA2Otyq5nN38yacSkLAACAydHezK72zOy3PyPRAgAAYBJYexnbd0k9VtkCAABgkkSEMrPnZtbnOAAAADBpzKzvmdnjKAAAADBpuptZwiwAAAAmUc8l9dtuMBrAAAAAMAksM+fLDCQxYBYAAACTyAmzAAAAIMwCAAAAF1NmEmYBAAAwmczMPTMJswAAAJg4mene7QIDAAAAJomZmUv6I0cBAACACXTKJZ1oL2eT8wAAAMAEyDa/nvTMPMV5AAAAYOISbeZJN7MT7vSAAQAAYHK0+fWESzrZrrOlzAAAAACTINv8evL/AWmyS23/9rOLAAAAAElFTkSuQmCC;" parent="1" vertex="1">
          <mxGeometry x="159.5" y="17.5" width="36" height="37" as="geometry" />
        </mxCell>
        <mxCell id="77b5d1e07de64d0e-3" value="" style="shape=image;verticalLabelPosition=bottom;labelBackgroundColor=#ffffff;verticalAlign=top;aspect=fixed;imageAspect=0;image=data:image/png,iVBORw0KGgoAAAANSUhEUgAAAWgAAALQCAYAAAC9lOpQAAAQ3ElEQVR42u3da4xmZ0HA8f+8MxQQy03TD8ZCA0JbLJdYkKqNSjASUQkaY2IokUQjCYmJRD+hJvABjcEEjMaY+MEbgrdEihaiaLhEuRWDttoWpYVCg6YqFUULZd8ZP5xzOmene5n7vLv7+yVvdnd29szsu2/+77PPec5z1jp+i/FxasfHn1ZdV11fPat6anVF9aTqsvGxCOBgNquHxscD1f3VvdUd1d9V/1jds+PPbIx/bvM4v9G1Yw5zs7/gZdW3VC+pvqO6dowxwEl6YIz1B6q/qD40xvxMHbvgA73zL/SN1U3Vy6trdnzu1uyxNnsAHIXdNOeu6h3V743hPrZQH2X8FuPxl+Ovv7P6yer7q0fNnpzl7HPFGFiVaG9W67MufaV6Z/Wr1fvHj63PPveCCPTaGNwpzN9Wva566exzTrU9Fw2wyqa5543Zx26pfqH64CzUy1UP9GL2TvKM6merV44fn95lFkbKwAU6sp43bLP63THU/3KGBh7Y+iF+8xvjO8h69drqrdUNs3eghTgDF7C1Tp+6Xa+eNw5CH6o+Ohtpbx7WFzysb3rZsDzu1xtWZdQwlbHh3xW4SM0b977qNdWdY7w3x1H3iY2g52cyX1X9SXX1GOu1Qx6hA6yaafp22XAtxyurf60+Phu87jvS6wf8xqaznG+ufrF69GzobyoDuBTMZxEe27CE+InVe9qe3t3a74H3G/Zl9TUNawO/p9OXywFciubL8941jqg/3z5XeewnptMXurJhTeDzMtcMMDc18ePVy6r79hPpvQZ6+gJXN6wDfLo4A5wz0p+svq/6xF4jvZdATwd+RvVX1VPanm8G4JGmRt5bvbi6ey+R3m2gpxOCT6ne23C20sgZYPcj6bsbtry4r11e0LKbS62nM5BPqm4e47wUZ4Bd2Rgj/fSxoU8Ym3re/p7vE6YNjBbV29o+IWhaA2Dvkf6msaW72q1zfRcHXTasc76pYTenR3muAfZsMTb0mnEU/e7Oc1n4+i6Kf1P1S23Po1jnDLD/SC+rb21Y3fEP54r02jkOslk9s7q1+urs1wxwGKb9pv+nekHDTnhnPGm4OEu0p300frN6fNt3GwDgYNbGpj5hbOxZb1hypimOaY3eT1U/keV0AIdtunH20xrugfihtu/OclrJd/6hrYY7at9WPS5TGwBHYZrS+GL1nOozbd8I4OEg77RVvbG6PFMbAEc5it5qmEZ+Y2fY8W4e32lq44XV37a9/hmAox1JbzWs7PjorMWnBXiq9+s7w1wIAEdia2zu63e0+OER9FTsG6sPtMvLEAE4tFH0WvXt1d9MTV7sKPZr214CAsDxjaLXGlbPPdzktdno+ZkNKzcu2zG6BuDoA13D3cGf3XjxyvwWVTe1fU9BcQY4Pmtjex9dvWL82GJa4/yocfR8dds3OQTg+EztvbNh59CvTOvwrh/j7OQgwMmYenxtw7akW1OMXzr+uPQcAZyY5bzJU6BfNCs4ACc3in64yYuG+wxeN37QyUGAkzM1+LrqykX13LbvkSXQACcb6K3qidVzF9Xzx99wcQrAyZtafP2i4YyhQAOsVqCftaiumg2tAThZU4uvWlRXCDTAygX6ikX1ZIEGWLlAP3lRPcbzAbByHmNrUYAV5cpBAIEGQKABBBoAgQYQaAAEGgCBBhBoAAQaQKABEGgABBpAoAEQaACBBkCgAQQagNWxcUTHXeZWWsClY61aP4qDCinAJTSC/u3qvvEdxRsAcDGPnJfV11evOoovsHVIj83Zz6/x7wZcQq45SwsP9DiqEfQTx9G5KRTgYh9Bb43NO3RHeZLwVMMqkU3/hsBFamrc8qgODsCK1h8AgQZAoAEEGgCBBhBoAAQaAIEGEGgABBpAoAEQaAAEGkCgARBoAIEGQKABBBoAgQZAoAEEGgCBBhBoAAQaAIEGEGgABBpAoAEQaACBBkCgARBoAIEGQKABBBoAgQZAoAEEGgCBBhBoAAQaQKABEGgABBpAoAEQaACBBkCgARBoAIEGQKABBBoAgQZAoAEEGgCBBhBoAAQaQKABEGgABBpAoAEQaACBBkCgARBoAIEGQKABBBoAgQYQaAAEGgCBBhBoAAQaQKABEGgABBpAoAEQaACBBkCgAQQaAIEGQKABBBoAgQYQaAAEGgCBBhBoAAQaQKABEGgABBpAoAEQaACBBkCgAQQaAIEGQKABBBoAgQYQaAAEGgCBBhBoAAQaQKABEGgAgQZAoAEQaACBBkCgAQQaAIEGQKABBBoAgQYQaAAEGkCgARBoAAQaQKABEGgAgQZAoAEQaACBBkCgAQQaAIEGEGhPAYBAAyDQAAINgEADCDQAAg2AQAMINAACDSDQAAg0AAININAACDSAQAMg0AACDYBAAyDQAAINgEADCDQAAg2AQAMINAACDSDQAAg0gEADINAACDSAQAMg0AACDYBAAyDQAAINgEADCDQAAg0g0AAINAACDSDQAAg0gEADINAACDSAQAMg0AACDYBAAyDQAAINgEADCDQAAg0g0AAINAACDSDQAAg0gEADINAACDSAQAMg0AACDYBAAwg0AAINgEADCDQAAg0g0AAINAACDSDQAAg0gEADINAAAg2AQAMg0AACDYBAAwg0AAINgEADCDQAAg0g0AAINAACDSDQAAg0gEADINAAAg2AQAMg0AACDYBAAwg0AAINgEADCDQAAg0g0AAINIBAAyDQAAg0gEADINAAAg2AQAMg0AACDYBAAwg0AAININAACDQAAg0g0AAINIBAAyDQAAg0gEADINAAAg2AQAMg0AACDYBAAwg0AAININAACDQAAg0g0AAINIBAAyDQAAg0gEADINAAAg2AQAMINAACDYBAAwg0AAININAACDQAAg0g0AAINIBAAyDQAAINgEADINAAAg2AQAMINAACDYBAAwg0AAININAACDQAAg0g0AAINIBAAyDQAAINgEADINAAAg2AQAMINAACDYBAAwg0AAININAACDSAQAMg0AAINIBAAyDQAAINgEADINAAAg2AQAMINAACDSDQAAg0AAININAACDSAQAMg0AAINIBAAyDQAAINgEADINAAAg2AQAMINAACDSDQAAg0AAININAACDSAQAMg0AAINIBAAyDQAAINgEADCDQAAg2AQAMINAACDSDQAAg0AAININAACDSAQAMg0AACDYBAAyDQAAINgEADCDQAAg2AQAMINAACDSDQAAg0gEB7CgAEGgCBBhBoAAQaQKABEGgABBpAoAEQaACBBkCgARBoAIEGQKABBBoAgQYQaAAEGgCBBhBoAAQaQKABEGgABBpAoAEQaACBBkCgAQQaAIEGQKABBBoAgQYQaAAEGgCBBhBoAAQaQKABEGgAgQZAoAEQaACBBkCgAQQaAIEGQKABBBoAgQYQaAAEGgCBBhBoAAQaQKABEGgAgQZAoAEQaACBBkCgAQQaAIEGQKABBBoAgQYQaAAEGkCgARBoAAQaQKABEGgAgQZAoAEQaACBBkCgAQQaAIEGEGgABBoAgQYQaAAEGkCgARBoAAQaQKABEGgAgQZAoAEQaACBBkCgAQQaAIEGEGgABBoAgQYQaAAEGkCgARBoAAQaQKABEGgAgQZAoAEEGgCBBkCgAQQaAIEGEGgABBoAgQYQaAAEGkCgARBoAIEGQKABEGgAgQZAoAEEGgCBBkCgAQQaAIEGEGgABBoAgQYQaAAEGkCgARBoAIEGQKABEGgAgQZAoAEEGgCBBkCgAQQaAIEGEGgABBpAoAEQaAAEGkCgARBoAIEGQKABEGgAgQZAoAEEGgCBBhBoAAQaAIEGEGgABBpAoAEQaAAEGkCgARBoAIEGQKABEGgAgQZAoAEEGgCBBhBoAAQaAIEGEGgABBpAoAEQaAAEGkCgARBoAIEGQKABLk0bR3Tc9fGxqNY8zcBFPMhdG3t3wQT6C9VyfABcrJaz5q10oOcj5ddVnzuqdxWAFYv0152lhQeO6pbnF2D1HNUUx1L4gUvIkcxDG0EDrCjL7AAEGgCBBhBoAAQaQKABEGgABBpAoAEQaACBBkCgARBoAIEGQKABLhobngIuAJvj47AHJwYorDQb9gMYQcOebY2DiA9XnzikAcV0jKurG2ZfA1Yy0A9Vl3kqWEGbDfd5+43qdw752D86Bnr6GrBqHtqovizQrLjLx8HERnXqEAYlp8Zjwip7cKP6/Phi9V89VnkkPYX51CEc71SHf9IRDsvU4gcW1f2zDwJw8oGuun9RfVqgAVYu0J9aVHeMvzC9AXDyphbfsahuFWiAlQv0xxbV7dV/5aIVgJP28AnC6vZF9Zkx0gk0wImaVhfdXn122ovgfTt+E4CTGUFXvbe2N4u5ZfzRFVUAJ2dq8LumQK9VH6/uHH9uFA1w/DbHBt8xNnltMRb7oeoPZp8EwPEHuurt1Veq9cXsg79ffWkMtpOFAMdna2zvg9XbpmBPgV6v7q5uHofYS88XwLFZju29ubpnbPLmYlbvqreMwXanCYDjMw2W39LsmpQpxFOUP1y9e/y5UTTA8YyeFw0rNz7SbLHGfKQ8XV74BnEGODZrDVvgvmFHi08L9LJh3uPWhrOI6x3O3rtwGP/9Wz/kh2k8VsGp8bX49upj42tzeaZA1/Z14K9ruBZ8vsoDTsqD44v2y+OPB3lMx3jQ08oJm6aWPz829xH7IW2c4Q+sV5+tfr76tVnh4aRcW72w4dZsB51+m9b9X+tpZQUCvVH9XHXfztHzaXMdZ3gRb1bvqV48m/4A4OCmpr6neklnWZhxtkBPUxvf0DAn/fjxc+0ZDXAwW+PjC9ULGtY9n3GbjcU5ht7r1SerV8/q7gpDTvJFPX9x7/eR1zEn/DqeltW9uuECwbOe61s/z4E2GvYlvby6cXZgOG5rsx8P8sj/BDnhqY2N6k3Vr4w/X57vRX+u359Gz39efW/DScMNzzPAnkzt/LPqZW2f69vab6AbA701jqL/unq+SAPsK84fbVh48b/tYnvn3UxXTHuU/nf18uoT4xdyEQvA7uN8V/UD1Rfb5d77e5mLm9boXdVwO5arjKQBdhXnT1Uvqu7tDOudDzKCnkzr9j49DtHvMpIGOG+c76y+a69x3mug55G+Z4z0R0Qa4Kxx/vAY53v2Guf9BHoe6c9V391wRnJaKmLfDuBSttn2Urp3jo383H7iXPu/fHtrjPuXqj+sHtewTnq6G4u10sClOGqedkp8U/XjDZtz7XvTuYPsrzHtfFf1l9U/N0yCP278Rl0aDlwKttre+Og/qx+r3jxr4L6vXD2MDZDWxuPc1nA/rWdUz2x7E2qhBi7WMC9no+Zbqh+u3t/2zbcPtK3A+iF+oxvVv1dvre6vrm97kyXTHsDFZGraovq36meqnx5H0Puabz7KQNfpN5u9tfqj6gnVs9teK700ogYu4BHz5izMp6rfql7RcG3Iol1egLKX6YmjMF96d8P47vKDs693avaXBFhlm23PMU+//tPqlxuW0XWYo+bjCHSzd5Ppm76xek3D5eKPnb0jLWefa2QNrMJIeRotr8+69GD1joY7TX1wFuZzbni0qoGeh7rZsP9Z1Q9VP1Jdc5YnZqtHbhEJcFQxPldz7mq4qesfN1wVeKauHYnjjN/Ov9Bl1fMatjB9UcM94r7W6wU4Yf8xhvi9DSsz/r7hPpbHFuaTCPQ81NME+9yV1XOqbx5H2U+trqieVH1VNmUCDs+p6v+qBxpWnd1b/VPDAofbGm6cPbfR9lz0sfl/lguEXYrlUC0AAAAASUVORK5CYII=;" parent="1" vertex="1">
          <mxGeometry x="1112.5" y="9.5" width="23" height="45" as="geometry" />
        </mxCell>
        <mxCell id="77b5d1e07de64d0e-4" value="" style="shape=image;verticalLabelPosition=bottom;labelBackgroundColor=#ffffff;verticalAlign=top;aspect=fixed;imageAspect=0;image=data:image/png,iVBORw0KGgoAAAANSUhEUgAAAggAAAIICAYAAAAL/BZjAAAgAElEQVR4XuydeZwcZbW/z6nuWZIZIAmBQDKZ6erpHlGWqyjidq/BBcWfIKKDQMhMN1xRNhfQi14VEFwRwRUUNd0zYRGiKKKi1y0ugCKCKJvdPV092UgIkACZZJau9/w+PUkgxCRd3VXdtX3nT3jf857znLcnz1RXvcWEHxAAARAAARAAARDYhQCDCAiAAAiAAAiAAAjsSgCCgD0BAiAAAiAAAiDwbwQgCNgUIAACIAACIAACEATsARAAARAAARAAgeoEcAWhOiOMAAEQAAEQAIHQEYAghK7lKBgEQAAEQAAEqhOAIFRnhBEgAAIgAAIgEDoCEITQtRwFgwAIgAAIgEB1AhCE6owwAgRAAARAAARCRwCCELqWo2AQAAEQAAEQqE4AglCdEUaAAAiAAAiAQOgIQBBC13IUDAIgAAIgAALVCUAQqjPCCBAAARAAARAIHQEIQuhajoJBAARAAARAoDoBCEJ1RhgBAiAAAiAAAqEjAEEIXctRMAiAAAiAAAhUJwBBqM4II0AABEAABEAgdAQgCKFrOQoGARAAARAAgeoEIAjVGWEECIAACIAACISOAAQhdC1HwSAAAiAAAiBQnQAEoTojjAABEAABEACB0BGAIISu5SgYBEAABEAABKoTgCBUZ4QRIAACIAACIBA6AhCE0LUcBYMACIAACIBAdQIQhOqMMAIEQAAEQAAEQkcAghC6lqNgEAABEAABEKhOAIJQnRFGgAAIgAAIgEDoCEAQQtdyFAwCIAACIAAC1QlAEKozwggQAAEQAAEQCB0BCELoWo6CQQAEQAAEQKA6AQhCdUYYAQIgAAIgAAKhIwBBCF3LUTAIgAAIgAAIVCcAQajOCCNAAARAAARAIHQEIAihazkKBgEQAAEQAIHqBCAI1RlhBAiAAAiAAAiEjgAEIXQtR8EgAAIgAAIgUJ0ABKE6I4wAARAAARAAgdARgCCEruUoGARAAARAAASqE4AgVGeEESAAAiAAAiAQOgIQhNC1HAWDAAiAAAiAQHUCEITqjDACBEAABEAABEJHAIIQupajYBAAARAAARCoTgCCUJ0RRoAACIAACIBA6AhAEELXchQMAiAAAiAAAtUJQBCqM8IIEAABEAABEAgdAQhC6FqOgkEABEAABECgOgEIQnVGGAECIAACIAACoSMAQQhdy1EwCIAACIAACFQnAEGozggjQAAEQAAEQCB0BCAIoWs5CgYBEAABEACB6gQgCNUZYQQIgAAIgAAIhI4ABCF0LUfBIAACIAACIFCdAAShOiOMAAEQAAEQAIHQEYAghK7lKDjABLT5849vj0b3aWPW2om4vZWovay1tGqmGWWNWzSmFkUygxV3EnObYtXCiqOiSTRC0lphYxJPsiJTNJrSRJsikQlhc0zjyBYlNKVMsyzRlqmompqcJBonknERNV4uPzuxdu3t40SkAswYpYFAaAhAEELTahTqXwKLook5C2ZO7cMdLSoyU4tGOpUpSdKkl5njIpLQmHuFqIuZIm7WKVKRA1nNwiOKpUhCBVI0whrlxZRnpzRzS+SZiS3FjRvGiFaU3cwVa4MACOydAAQBOwQEPEHgrJZ4nGYqNTkjYppzKRp5dYToP0XoNaxRnIgD9lkVEaESEd1Fwn9UZvlOMxJ5gojGS6WxLUTLJz3RFiQBAiEmELBfOiHuJEr3CYFLtVisVLmU396qqVeI8PEk2tu3SQB+niMgUlIkPyVRP51U5j2a1rq1VBqbIlpughIIgEBzCEAQmsMZq4SYgK6fOi8i7acx0ems0ZEhRmG7dBF6gIiun1RP3zA6eutjtgMiAAiAwB4JQBCwOUDAUQKL2nv1npM14sVMdAQR7yMkM5mD9hWBo9BqDjb9BQXxViZ6hoQeEU0tGys+dfNaun1LzcEwAQRAYLcEIAjYGCBgg0BPzxI9qkXSGvEJxHIwCc9lJs1GSEytk8D0DZJMT7LIY4ropzJVzoysvr5QZzhMA4HQE4AghH4LAEAtBF40b4muZmpnMPFbhDlGInNxdaAWgs0bW7nKwMxPklBJCf1qvDy1dDWEoXkNwEq+JwBB8H0LUUAjCXR19c9oa2k/PUKRk4T5UBJagCsEjSTeuNjTX0swryGhh4TU7c9uUdn165eNNW5FRAYBfxOAIPi7f8i+AQSSPUteTJp2EhEfy8yvIaJoA5ZBSPcJlIXoblHq12KqW0dWLXvQ/ZSQAQh4hwAEwTu9QCbuEdB6uwdfrUW0E4npRCZKuJcKVnaLgAgVhfjHGqkf54zsnTgR0q1OYF2vEIAgeKUTyKPJBC7VenuKr9c0PpFJezcxzW9yAljOywSE1imiHyhWPy4Wt6zA+QtebhZyaxQBCEKjyCKuFwlwb/fgkdNXCkjOZub9vZgkcvIWARHZxELfUkS3FUrZe3BlwVv9QTaNIwBBaBxbRPYIgcSCxV0Ujb6FNe0yxpUCj3TFp2mIrBNRl6rJyM9H1mZW+bQKpA0ClghAECxhwiC/ETjggP7OWZ0zjyTiy5j59X7LH/n6gIDInaZSn4qORe/91xNLn/VBxkgRBGoiAEGoCRcGe5wA6weeemCks+1jLPwBPI7o8W4FJL3KAU1C8q2y0OWlUvZxfAURkMaiDIIgYBMEgMBZLfHu8aMjkcgNzNQdgIJQgl8JVE5xFDqtUBq7C2+k9GsTkfcOAhAE7AVfE+iLDXxeOPJRZor4uhAkHygC08c+i/pavjR0Ia4oBKq1oSoGghCqdgej2O7u02a3RVqXM/Gr8CKkYPQ0iFVse6EUjRPxX8pj46cYj9+0Poh1oqbgEoAgBLe3gass0TPwao5o32HiF+F0w8C1N9AFiYhJzP8SVT6nUFr2+0AXi+ICQwCCEJhWBreQhJ5aohF/Qkj68GKk4PY5DJVtex8EFcSULxZGh74XhppRo38JQBD827ugZ6716ukLIkRnE1M86MWivhASEBpVQt8ulHq+SHSpCiEBlOxxAhAEjzcohOlpyVj6PGa6gJh6Qlg/Sg4ZASFarUR9ZcQYuho3NIas+R4vF4Lg8QaFKL3KFYNzNJaPMfGCENWNUkFgmoAQrRclXyiUWr9JdN0UsICA2wQgCG53IPTrL4omYz1LmPlzxHxQ6HEAQOgJiMiTiujjI8bYEM5SCP12cBUABMFV/GFefFG0t6f7+IimXUXMsTCTQO0gsDsCIrJKiC4sGK0/xhUF7BE3CEAQ3KAe7jU5Hk+9QiP6lkZ8ZLhRoHoQsEBA5B9KqfcXRof/gnsULPDCEMcIQBAcQ4lA1Qj0zk8v1NroGmZ6e7Wx+P8gAAIvJCAivyqPT77XeOzGUbABgWYQgCA0g3LI10jMWbwv79tyGWv8wZCjQPkgYJuAKPm2+fTYRcWNy5+2HQwBQGAvBCAI2B4NJNAfSXTPOFWLakuJuKWBCyE0CISNQFmZ8r7C6PSNjGbYike9zSEAQWgO59Ctoh946ryWjraHiXlO6IpHwSDQNAJq88QzZt/oE9c/1rQlsVBoCEAQQtPqZhXaH0nqHbcx81vwvoRmMcc6YSYgQiYJ/TFfWvdWojsmwswCtTtLAILgLM9QR0v0DC7WNP66EM3COxNCvRVQvAsERGSTKPkI3vHgAvyALglBCGhjm1lWX9fAAmqN/JiIXtHMdbEWCIDAvxMQofsnVfldo6PLDPABATsEIAh26IV+bn8kEeu8nJk+yEwzQ48DAEDAIwREZKsQX1MwNl+Emxg90hQfpgFB8GHTvJCy3jVwRLRF+w4zv9IL+SAHEACB3VxNILpPTHpvYTRzH/iAQK0EIAi1Egv9+Je3JPXDP0bM/8tE7aHHAQAg4HECQjRBor6UN9ouw5HNHm+Wx9KDIHisIV5Op08/4z+E1DAzH+HlPJEbCIDAbq4miDyqTDl9ZOXQ38AHBKwQgCBYoYQx1KenzxOmK5moDThAAAR8S2BSmfLxwmj26m1vmMYPCOyZAAQBu2OvBHp7lxyoKe2HzNrrgAoEQCAgBITunRQ5vlTKrgtIRSijAQQgCA2AGpCQHI8PvDZKkd8SEY5JDkhTUQYI7ExARI7NG9lf42oC9sXuCEAQsC92Q6C/NaF3XK0xnwM8IAACwSaglCwtE51bKmXHg10pqquVAAShVmIBH79w4Rnz26PyT2bCOxQC3muUBwLPERDZOEWTLzMMvEoau+J5AhAE7IbnCCT0wZM11m4GEhAAgXASKCt1RrE0lAln9ah6VwIQBOyJaQLJWOp7xJxiJg1IQAAEwklAhBSJfD9fyi4OJwFUvTMBCELI90PvvCUHajOjv2Gmw0KOAuWDAAjsICDy6IQqv2F0FK+RDvOmgCCEuPvxnsH/F41oWSKaG2IMKB0EQGB3BEQ2mko7c2R06Y8AKJwEIAjh7DslYqlLNI0/Tjj4KKQ7AGWDgCUCk6TkqlwpW/ldgZ+QEYAghKzhlXL79MEhIe103G8QwuajZBCokYCICBPdkjOyp+K8hBrh+Xw4BMHnDawl/dmz+/ebO7vjt0x8ZC3zMBYEQAAEhOjBZ8bKb1y/ftnjoBEOAhCEcPSZ4vHU4RGh3zHz/iEpGWWCAAg4TECINptT5WOKq5bd63BohPMgAQiCB5vidErJ+MDbmbSfEDH67TRcxAOB0BEQUaJOLhjDPwhd6SErGP9gBLvhWjI2OMiatjTYZaI6EACBZhNQJOcWirFvEV2qmr021msOAQhCczi7sMrLWxKxwz6uadqnXVgcS4IACISBgOIv5krPXky0fDIM5YatRghCADueoOPaNP2gYWI6OYDloSQQAAEPERCR26eETsbLnjzUFIdSgSA4BNI7YY5r64sf9CcieoV3ckImIAACQSagRP5ZMOiVRHgjZJD6DEEIUDdjsUXtraw/Skw9ASoLpYAACPiCgKzZMjmWXL16+VZfpIskqxKAIFRF5I8BXV39c2a2dP6NmGL+yBhZggAIBI2AEK0eGx9/2dq1Nz0RtNrCWA8EIQBdj88f6I60R+5honkBKAclgAAI+JmAyJMTyjxqdHSZ4ecykDsRBMHnuyDZs+TFrEXuJObZPi8F6YMACASEgJA8Y07S64qrs/8MSEmhLAOC4OO26/rAEVHW/sjE+/q4DKQOAiAQQAIitEXU1H8WRq+/L4DlhaIkCIJP2xzvWnx4tLX1TiLax6clIG0QAIGAExChcVHmGwqjw3cHvNRAlgdB8GFbk7ElRxNHVzBTuw/TR8ogAAIhIiBCSkTeWChlV4So7ECUCkHwWRvjC1NHRaL8Z7yq2WeNQ7ogEGIClVdGE8mivDH0hxBj8F3pEAQftSzRkz6SNbmHmSM+ShupggAIgACJiKlMef3IyqHKV6P48QEBCIIPmlRJMdGdfokWpb8TUYtPUkaaIAACILArgbIoOSpfylZ+l+HH4wQgCB5v0DY5GDyUI9rfmKnNB+kiRRAAARDYIwERmZwSOroESfD8LoEgeLxFlUOQom3aw8Tc4fFUkR4IgAAIWCIw/QhkWR1RWDU0YmkCBrlCAILgCnZri3Z3nza7LdqWY6K51mZgFAiAAAj4hIDIxs0TE304ltm7/YIgeLY3/a3JeEeeibs9myISAwEQAAE7BEQeyxljMaLlk3bCYG5jCEAQGsPVdtSknqo8rXCU7UAIAAIgAAIeJiBCD+SNzEs9nGJoU4MgeLD1ST39K2Z6kwdTQ0ogAAIg0AACcmeumH1dAwIjpA0CEAQb8BoxNamnriei05gZvWkEYMQEARDwHIHKQUoidFuhlH2n55ILcUL4R8hDzU/qg18i0i7AKYkeagpSAQEQaAqBbY5A1xaM7LlNWRCLVCUAQaiKqDkDkj2p0zjCWRyE1BzeWAUEQMB7BETIJKH35kuZjPeyC19GEAQP9Hzba5sjf2HCy5c80A6kAAIg4C6BsllWi3Aks7tNqKwOQXC5B7FY6qBW5gIx4SAkl3uB5UEABDxDoDypJFkqZUueySiEiUAQXGz6vHlLOvbtiI4w0TwX08DSIAACIOA5AkK0YeLJiRetfPrGjZ5LLiQJQRBca/SiaFKP/YyZj3UtBSwMAiAAAh4mICIr8sbYW3CQkjtNgiC4xD0RG/gfTYt8wZ3lsSoIgMDeCAjRBBHhPQHTkKSNiXvd2jGmyOUjRvaSSiJu5RDWdSEILnQ+oQ8eq7H2SxeWxpIgAAIWCAjJQ/li9jALQwM/pC+WOoQ0fsTNQstm+V3F0WW3uplDGNeGIDS565UnFlo48kCTl8VyIAACNRCAIDwPywuCUMmmPCWvLK7K/rWGNmKoTQIQBJsAa5k+f/7xMzvb9l9NzLNrmYexIAACzSUAQfCeIIjQ05s2b+7asGH55ubuhvCuBkFoYu+T8fQPmeikJi6JpUAABOogAEHwniBsz+iOXDHztjpaiil1EIAg1AGtnim9evojGskVeMdCPfQwBwSaSwCC4E1B2P7OhssKpeylzd0R4VwNgtCEvidiqUWaxr8gorYmLIclQAAEbBKAIHhTELZlJZNK8QmFUgY3etvc59WmQxCqEbL5/2OzUrNa5vA/majLZihMBwEQaBIBCIKXBWH6gcd14+bES1auxCFKjfxIQBAaSZeI+vTUHcT81gYvg/AgAAIOEoAgeFwQKo4g8oe8kX29g21HqF0IQBAauCV69cELNeIv4b6DBkJGaBBoAAEIgi8EQYj44ryR+UwDtgBC4mVNjdsDyZ4lL2Yt+le8hKlxjBEZBBpFAILgfUGoZChC4+bU5CuLq2/4Z6P2Qpjj4gpCY7qv9enpIjH1NCY8ooIACDSSAATBH4KwXRIezxs9BxNdqhq5J8IYG4LQgK4nY+lrWKOzGxAaIUEABJpAAILgH0HYJgkylDeyabyvwdkPBwTBWZ6k62e8qIXlQSKKOhwa4UAABJpEAILgN0EgNSXl15RKy/7SpC0SimUgCA62uaurf8aMls4nmGmmg2ERCgRAoMkEIAj+EoQd2ZapZVaxeN3TTd4ugV0OguBga5N66tfM/EYHQyIUCICACwQgCP4UBBH6U97I/Be+anDmQwNBcIYjJXrSR2oR+ptD4RAGBEDARQIQBH8KQiVrpeSYQim7wsXtE5ilIQgOtDIxZ/G+vF/LOmae4UA4hAABEHCZAATBv4IgIlu3TKqFa9YMP+nyNvL98hAEB1qY0NNDGtOAA6EQAgRAwAMEIAj+FYTpzIVuyRmZ93hgK/k6BQiCzfYlegZerUUid9kMg+kgAAIeIgBB8LkgENGUqLcYxtD/eWhb+S4VCIKNlsXj/ftFpOMRZj7YRhhMBQEQ8BgBCIL/BUGE1m+d2vyS1auXP+Wx7eWbdCAINlqV1NOfYaZP2AiBqSAAAh4kAEHwvyBUKlBKvlIoZT/swS3mi5QgCHW2qU8/4z+E1N+YOVJnCEwDARDwKAEIQjAEQURMEvO1eRygVNcnDYJQF7b+SJ/e8Xtifm1d0zEJBEDA0wQgCMEQhO1V3JsrGq8mWlH29KbzYHIQhDqa0qen3kvM19UxFVNAAAR8QACCEChBIKXUBYXS0NU+2HqeShGCUGM7Djigv3N2Z2eemA6qcSqGgwAI+IQABCFYgkBEG9SmyUThqRue8ckW9ESaEIQa25DUU19j5vNrnIbhIAACPiIAQQicIJAoyeZL0298xI9FAhAEi6Aqw+Lxgb6IaA/jxsQaoGEoCPiEgIgIM48J0Ual6KaRUuYin6Te0DT7YqlDSONHGrpIE4KLkJowJw9fufKGh5uwXCCWgCDU0MaknvoLM7+yhikYCgIg4FEClX8wiGSCiDcSyfe2Tqlvr149vMaj6bqWVlAEoQIQV4Zq20YQBIu8+mKpE0njH1kcjmEgAAIeJSAkI6Toynzpn98j+tuUR9P0TFpBEoRpqIpOyZUyN3sGsIcTgSBYbE4yns4zUcLicAwDARDwAIHtVwn+ICzfnTLN305NzXx67drrtnggNd+kEDRBEJI1+WK2yzcNcDFRCIIF+H364IVC/CVmBi8LvDAEBNwiICLjJHSrEnW9ROghpbTHS6XsuFv5BGHdwAmCiBDRJXkje3kQ+tPIGvAPngW6fXr6SWKaY2EohoAACDSRQOW8fSK5RYRuNTliGMbIGhyI42wDgiYI2+lszhUz+zhLKnjRIAhVepqMpa9hjc4OXutREQj4i0DlKQMi/gcL3WaKuSJiUi6Hmwob3sSACgKRyLKckR1oOEAfLwBB2Gvzpo9UfpqYO3zcY6QOAn4lUBahPxOpFabiu3ncvHdk/bLH/VqMX/MOrCCQTKpNUwfg8KQ970wIwl4+tUk9lWXmQb9+sJE3CPiJgBA9S0J3EcmdSvGdE+bmu1evXr7VTzUEMdfgCgKREvpJwci8I4h9c6ImCMIeKHZ1nTlnZqt6jIhanQCNGCAAAjsTqHxfwGtI6D5huVtN0W+Kq7J/BSPvEQiyIFRom+Nbu0fWfn+V98i7nxEEYfc94EQs/TNNo+PcbxEyAAH/E6g8bsgkBRF+ULGs4LL8vLBqaMT/lQW/gqALgoj8Jm9k3zx9jhJ+XkAAgrCbDdHTc/rBbZGWtdgrIAAC9giI0ASxfGiiPHnzypU3brQXDbPdIBB0QagwVVMqAWH9990FQdjNJy6hp2/WmE5248OINUEgaATKE+aLimuGc0GrKyz1hEIQhG4rGJkTw9JTq3VCEHYh1Ts/vTDSTiutAsQ4EACBvRMQoj/li5n/wiVcf+6UMAhCpTNTMnWIYVz/L392qTFZQxB24ZroSQ1rEV7SGNyICgLhJGCW1StGVg79LZzV+7vqsAgCiSzPGVlcOd5pu0IQdoKh62f2tLAq+fvjjOxBwHsERCSfN7J93ssMGVUjEBpBIKJJJS8ulbKPVmMSlv8PQdip032x1OdJ44+FpfmoEwSaScA06Y0jo5nfNnNNrGWfQJgEQUS+njeyH7BPLRgRIAjb+7hgweKujrbWIhG1BKO1qAIEvEVAREp5YyxBtNz0VmbIZm8EwiQIRFSeMMt9o6PLDOwKIgjC9l2QiA1erGnap7EpQAAEGkhAymfljGXfaeAKCO0wgZAJAomoK/PG0EcdxujLcBAEIuruPm12e7St8uRCpy+7iKRBwCcEKm9fHJtoia9de90Wn6Qc+jTDJggkNEYT47Hc2pueCHvzIQhElIgNnq1p2jVh3wyoHwSaQUAUXZQvZa5oxlpYwz6B0AlC5XlcpS7Kl4ZCv0chCDT9xsaHiRl3WNv/XYIIIGCFwBOTSpKlUnaTlcEY4y6BMAoCiZRyuF8G9yAk9METNNZuc/cjiNVBIFwE8D2vf/odSkGo3K2o1GnF0tBN/umU85mG/gpCUk/9HzNXXtSBHxAAgeYReHZq83jSePym9c1bEivVQyCsgqBE7iwY2dfVwywoc0ItCLFY6pBWjR4m4lBzCMpmRh3+IqBEvlMwsmf5K+vwZRtWQajcijA1ab7UWD38j/B1fVvFof6HMRlLX8ManR3W5qNuEHCJgIhQwWR5V7GY/adLOWBZiwRCLAgkSm7Ml7KLLaIK3LAQC8KiaJ+uryemOYHrKgoCAY8SEJFxEb6iUMpc4tEUkdYuBEItCERP54stBxBdNxXGjRFaQejrGbyQItqVYWw6agaBZhOQyjUDpkfUmHnMyPpljzd7/VrX6+4+I75y5dLKyaqh/wmzIFSar5RcWihlQ3mIXmgFIRlP/5OJDgv9px8AQKAJBJQyTyyUhn3xtFBi4WAvR7Uf543M4U1A4/klwi4IQjKSL2YTnm9UAxIMpSD0LlxymBaNPsBMWgOYIiQIgMB2AorkTtrC7yysy2zwB5SzWpL61EPEMpkvZvEHBBGFXhCEFMnEy/OlG//ujz3sXJahFIREPPUjjfhE5zAiEgiAwAsJyKRpam8dGV36+8pVWr/Q6dPTNxPTyULyEARhW9fCLgjbv2b4baGUfaNf9rFTeYZSEJLx9ONMdIBTEBEHBEBgG4HKvQZMtHRS6CN+OykxEUt/nFk+y8wMQXh+R0MQKvuans4bmVlh+5yHThB6YwPviWiRyulYoas9bJsb9TaXgJCsUSafPDKauau5K9tfrTeWOjGi8feJqG1adHAF4TmoEIRtKExFqZFSZsj+bvNPhND9I5nUU/cz80v90yJkCgKeJ1AWU67etGXssg0blm/2fLa7JNjVNbBgRmvk/p2vKkIQcAVh130cxpsVQyYIx7Ul9XkbmXmG336JIV8Q8CIBEbqfhM7OlzJ/8WJ+1XO6VEvGRx/Y9YkmCAIE4d/3jkzmiuv3Jbpjovq+CsaIUAlCIjb4cU3TPheM1qEKEHCRgMiYEH0xb5Q+T7Si7GImtpbu01O3EHP/bv5axE2K26HgK4bnd4eIXJ43shfb2nQ+mhwqQUjG06uZaIGP+oNUQcBzBERkRXl8MmU8duOo55KrIaFEz+C5rPHXKzclQhD2DA6C8AJBeCZvjM0hWm7WsNV8OzQ0ghCLpdpbNX6GiFp82y0kDgIuEhCSZ0jok3kj+3UX03Bk6fiCgb5om/ZPIm7dXUB8xfA8FQjCzoJAptpSnu+H00Cd+KCERhD64oOfI9I+7gQ0xACBMBGYPiaZ6K9jE08es3bt7Vv8XnsslprVwrR2b/ciQRAgCHva50Ly7Xwx+36/fw6s5B8SQeiP9MU7NxLRPlagYAwIgMCOMw14Y5nVycXi0G/cYbIo6uw9Di9vSepHlJhp/t7qgSBAEPa2P1RxXXshBDcrhkIQ4vGz9ovI1JPMFHHnlxxWBQF/ERChynesP8sbmXe4lDknYuljNZalGzePvcihxyc5GUstZY1T1WoSotVK0UeqjQvD/2eN5mtEV4WhVqs1muPUPbI2s8rqeL+OC4UgJPX0Z5jpE35tEvIGgSYTeMKcnHr1yOrrC01e97nlknr6YWZ6ceU/CMmN+WJ2sd1cenvOeGckIrfajYP5IKCUurpQGrog6CRCIAjTXy+M7TghLegNRX0gYIeAKP4zg7sAACAASURBVHXF1vKWS1evXr7VTpx65yZj6fcxy5eJuWNHjOl7IBSdnh/N3lhv3J6eJS9ui0T/QUTRemNgHgjsRGAyV2zpJLpuKshUAi8I+oGnzmvpbF8X5CaiNhCwTUDoXxOq/M7R0WWP2I5VR4CentMPbtGiv2eixB4eO3xm0iwfMjp6/WO1htf1U+dFqe0hZt6/1rkYDwJ7JFDm3tzKpcUgEwq8ICTig2drpF0T5CaiNhCol0Dlb3Mmdfak8HCplB2vN0798xZFk/HYl5j47GpX+UTk93kju6i2tRZFk3rsT8x8dG3zMBoE9k5AlLooXxq6Isicgi4InIynVzJRV5CbiNpAoB4CIvKrKaGzSqVsqZ75duf09qTfENHkWmLusxpLRC7OG9nLrY5P6qmvMfP5VsdjHAhYJiCyLmdkK0/DVB4DDuRPoAWhd96SAyMd0fWB7ByKAoE6CYjIpCI6b8QYW+rGiXDx2f37abM6KlcNzqj5yaLKEc9Cr8uXsn+vVn6iZ3Axa7xsd19ZVJuL/w8CVgiUx82e4trhlVbG+nFMoAUhEUst0jT+nR8bg5xBwGkC275OkB+qrWPnFtYt3+B0fCvxEt0D7+Zo5Go7V/VEqJg3NvftTW6SsdRLWeM/ElGnlbwwBgTqIWAqeedIKfvjeub6YU6gBaEvnvoREZ/oh0YgRxBoKAGRxxTxBwpG5gcNXWcPwWOxVKyFqXK5/3hH1hd1fc4YWrK7WF1dZ86Z0ar+zERJR9ZCEBDYAwEl8ouCkT0uqIACKwjz5i3p2Hdm9Blm0oLaPNQFAtUJyKQovkFK68526eQ37tUH3xsh7Spieu7Rxep5732EiFQOcjoub2R/tctITuqp3zPzf9pdA/NBoBqByiO48vTUrMJTN1Te8xO4n8AKQqJ78FAtqj0YuI6hIBCwSkDEUGKmC6Vlv7c6xclxPT1L9FaO/IA1PtLJuDtiidDTW6c2H7zzmQ19eqpyhkLgD7BpBE/ErI+AqPKr8qVlf6lvtrdnBVYQpg9c0ehb3saP7EDAeQIiNC6kvlswhly5ez+ROK5NmzrwPNG0Kxp9BU9E/po3spVHGKU3lnqrxvyzRq/pfMcQ0c8EROR/8kb2S36uYU+5B1YQEvrgXzXWXhHEpqEmENgDgcprF0dkSr21sGpoxAVKnOxZcghpkT8z877NWH/6Ei+pgS0TU7/obGsvOfk1RjPyxxoBICD0QM7IvDQAlfxbCYEUhFgsdVCrxjWfuBbEBqOmsBCQSaXkQ4XS0LVuVByjRe0tsdg3WeMz3FifiCaqHbTkUl5YNgQEgvrypkAKQm/PwHGRSOTnIdiXKBEESAnlt0w88dK1a2/f4gaOePfAmyIR7ZfMjBuC3WgA1nSdgBL1noIxdIvriTicQCAFIakPXs6sfdJhVg0JJyL3CNO3GxI8QEFZeD4zWT5BL0Cl762UsirLSYWV2Z8RkWp2zfPp+Jkd8bm3kdAxNR941OxksR4INJCAkHw1X8x+qIFLuBI6oIKQvo+ZXuYK0VoXFbk5Z2RPqXVa2MYnutMv0aL0UNjq3lO9IvTTLZNmas2a4SfdYJKIDX6YWbuYmWa5sT7WBAEvERCiB/PFzOFeysmJXAInCAsWDOw/szXyuG/uZIYgWNrHEITtmISeUlI+ya1HF+PzB7qj7dqtInQkjjC2tHUxKAQEKnfKlml8vmHcFKij/QMnCIlY+i2aRr/wzZ6EIFhqVdgFYdvd+nxVWeQzpVJ2kyVoDg9KxAavYuazmbnd4dAIBwK+JyCmvCs/mr3V94XsVEDgBCGppz/pq++qIQiWPk+hFgShfymR9xdK2RWWYDk8KNEz8GpN075FzJVLqIH7neEwLoQLKQERdWXeGPpokMoP3Ic9qacqd1Mf65smQRAstSqcgiBTSsmVWyaf+owbTygccEB/5+zOji8Q87mWmoRBIBBiAiLyx7yR/a8gIQiYIPRHknrHU806pMWRjQBBsIQxhIJwlyrTewsrMw9bAuTsIE7EBk7QePqqwUHOhkY0EAgsgc25ojGbaEU5KBUGShDiXYsPj7a2/sNXzYEgWGpXaARBZIxIuyRndF9NdGnTH12s3IQYadeuZuKTLDUGg0AABJ4jUJ4qH1VctezeoCAJlCAkY6kUa5zxVXMgCJbaFXRBqNyDyET3bZ6YeOvatTc9YQmKo4MWRftisXcL8/eYaaajoREMBEJCQBR9MF/KfC0o5QZMENLXsEZn+6o5EARL7QqyIIjIJiH6QMHILrMEw+FB01cN2iLfZ6ZXOxwa4UAgVARE5Ia8kT09KEUHSxD09F2++yUHQbD0WQqiIIiQKUx/KBQzb7AEweFBh1J/60R85oUs2md8c26IwwwQDgScJCBC9+eNTENeb+5knlZjBUoQ+vT0Zt+9zQ2CYGmvBksQREh4o2mqE0ZWDt1pCYDDgxYsOKmro3XfB4h5jsOhEQ4EQktARMbzRrbyFZ0EAUJgBMG3/4BAECx9jnzb391UJ6KuyxtD77NUuPODuE9P3UzM/c6HRkQQAIEJ0zxydHT4/iCQCIwg9OmDA8TakO+aAkGw1LJACILIuilSbzGMYVeetInFUq9qZf6ZkMzGMcmWth0GgUDNBJQp5xZGs9fUPNGDEwIjCEl98KvM2gc8yHjvKUEQLLXM74JgCn9k68SGa9048Gju3BP2mb3v/reSyBshBpa2GwaBQN0ElNBwwcgM1h3AQxMDIwh9euoOYn6rh9haSwWCYImTXwVBiO4zyTy1WBzOWSrU4UGJntQ5mkaXEfP+DodGOBAAgd0QEKE/5Y3MfwYBTmAEIRlP55ko4bumQBAstcxvglA510AJp0dKxg1unKwW70olIy00zMyvsgQYg0AABBwhICIr80a2x5FgLgcJiCD0t/bFOzcTUYvLPGtfHoJgiZlfBGH6wCPmX0wqOadUypYsFefsIC0RG7xI07SPE9E+zoZGNBAAAQsEypNFY58SrRi3MNbTQwIhCMnYkqNZi/7Z06T3lBwEwVLbfCEIIhtNkg+NGEPDlopyeFBv9+BrIxHtWmKqvHURPyAAAi4REFGvzxtDf3BpeceWDYggpD7IGn/FMSrNDARBsETby4IgIiYx3zL11MZzSpt+vMlSQQ4Omj//+Jmd7XM/Q0TnE1HUwdAIBQIgUAcBEfXJvDH02TqmempKIAQhoaeGNeYlniJrNRkIgiVSXhUEIRlRis4bKWV/YakQhwcl9MFjNdZuIKK5DodGOBAAgToJKJHbC0b2hDqne2ZaIAShL57+LREd4xmqtSQCQbBEy3uCIJOi6MZ8aex9RMsnLRXh4KD580+d29He/lUSORWPLjoIFqFAwBEC8rdcMfsKR0K5GCQQgpCMpx5k4kNd5Fj/0hAES+y8JAgiYihT+kdWDv3NUvKODuqPJOMzjiOJ3Ib3JzgK9gXBhGiCiEYat4KfIksbE/f6KWO3cxWhYt7I+J5ZQAQh/TgTHeD2pqhrfQiCJWxeEITKPxqs1BdzpaFLLCXt8KCuroEFM1u0W4n5lQ6HRrhdCAjJQ/li9jCAIeqLpQ4hjR8BixoIiGzMGVnfv+ckAIKwKJrU9Qnf/jUFQbD0qXNbEERo1ZTIEaVStuk3IRJN7/EPMdOXLMHCINsEIAjPI4Qg1L6dKo87543WNqLrpmqf7Z0ZvheE3u7Bl0ei2r3eQVpjJhAES8DcEgQRUkLq1IIxdIulRB0eFDsoFWuZSX9h4gMdDo1weyEAQYAg2P2AKNN8TWF0+G67cdyc73tBSOgDp2scWeYmRFtrQxAs4XNFEETdO25OHbty5Y0bLSXp8KBkLJVhjU4j4laHQyNcFQIQBAiC7Q+JyFk5I/sd23FcDOB/QYgNfm77qXEuYrSxNATBErymCoLImCn07pFS9pduvNe9tyf9Bk2jZcw03xIcDHKcAAQBgmB3UymRbxaM7Hl247g53/eC0KenfkzM73AToq21IQiW8DVLEETJUhkf+1hh3fINlhJzdFB/JBHvvJ1FjmXmiKOhEawmAhAECEJNG2Y3g0XkD3kj+3q7cdyc73tBSOrpPzPT0W5CtLU2BMESvoYLgtCokBpw6XhUTvSkztY0vpyYfH/ns6WGenwQBAGCYHeLitAjeSPzErtx3JwfBEF4mJle7CZEW2tDECzha5QgVO42JqGvTW2iS0ubmv+EQmLB4i5ubf0uM73FEgifDhKiNUzTX5n44ncOBAGCYPujJjSaMzIx23FcDOCLD+ve+CTjqVEm7naRob2lIQiW+DVCEETo/vKU+X5j9fA9lpJwdFB/a58+83wh7TPM1O5oaC8GE/PoclmUFtFO05hPIeaDvZjmjpwgCBAEu/tTSB7PF7Pz7MZxc77vBaFPTz1BzPu7CdHW2hAES/gcFoQppczPFkpbP+/GMcl618Aro62Ra5noSEvFB2GQmEfnjB0itija29N9fCSiDYjwscw002slQhAgCHb3pJA8ky9m97Mbx835vheEZDy9lcnHf4FBECztfycEofJ1AjPdVSZ1WrE4vNLSwg4Ois/u3y8yq+MTRHyhbw/2qpfHCwTh+SDz5i3p2KdDO0uTylUFOoqIPfE7CYIAQah3q+80bypXzPj6EWVPfBjrbcT8+WfN7GyfGqt3vifmQRAstcEBQXiWRH06Zwx92dKCDg/q7R58rRblG339dZgdJnsQhJ1D6gef1hNtb/0sMy8SkfluvoQKggBBsLPdd8x96hne94knlj7rRCw3YvhaEHR94IgWjjzgBjjH1oQgWEJZryCIkCkkfy4YpTcRrRi3tJiDg7q6+ufMbJl5LbF2soNh/RfKgiDsXFRvzxnHaJp8lpkOJ6LOZhcMQYAgOLHnylPlo4qrlvn2pF9fC0KiO3W8FuWfONFI12JAECyhr0sQRDYqUmcVjOEfWFrE2UGs66e/KUrRnzBz8G9CrMauRkF4gSzEBt4X4cjHadvBUS3VlnLi/0MQIAhO7CMlcnLByC53IpYbMXwtCMlY+n2s0bfcAOfYmhAESyhrEYTKVQMi+lHeyFT+ahdLCzg4KDFn8b68X8s9zPwiB8P6O5QNQdhR+IvmnrCP2nfOFSy8REhmNvIrCAgCBMGJD5xS/OFCaelXnIjlRgxfC0IinrpUI3bl1buONQuCYAmlVUEQkmcVm68ZGVn2oKXADg9KxlIfZI19+wvBYRzPh3NAEHbObeHCM+bPaKFbiOS1jcgZggBBcGRfCX05Z2Q+4kgsF4L4WhCS8dS3mPh9LnBzbkkIgiWWVgRBKfX5LZNPfWbt2tu3WArq4KAFCxZ3zWxt/SMz+fpgFAeRvDCUw4KwI3gslprVKuoY0SLXMpNjz5xDECAITnwWhOT7+WL2VCdiuRHD34Kgpyrf7x7vBjjH1oQgWEK5V0EQGlUmva2wMvOwpWCODuqPJGKdX2eN0r5+3NZRJrsJ1iBB2Gkl1vUzuyNippn5o3bPVoAgQBCc+EiI0B/zRua/nIjlRgy/C0Lle96j3ADn2JoQBEso9yQIiuicQnHz99w48Kive+BNFIl8l5h6LBUR5kGNF4Tn6HZ19c+Y2TLjcJHIh4jpPfWcOQFBgCA48XEVokK+mEk6EcuNGL4WhD499QAxH+EGOMfWhCBYQrmrIIjIH9VU+YyR1dcXLAVwcFDlwKPorI7vEPM7iSjqYOjghmqiIOwMMXFQ/wE0Y+YxTNqHmOnVVgFDECAIVvfK3saJyMq8kfXtHxC+FoRkPP0QE/n6bVkEQbD0OXxOEETGTKIPjxjZ71ia6PCghJ5awsRfcvL7bodT9GY4lwRhZxh618AR0RY+mUj772r9gyBAEJz4IAnR6nwxs9CJWG7E8LUg9OnpR4nJ34+SQRAs7ftkz5IXixb9vDZlnptbPbzG0iQHB/XOP2Wh1tZ+LRG9rZGP1zmYsrdCeUAQdgLCvbHUWzSm04noJGaesSssCAIEwZEPkNDanJFZ4EgsF4L4WhCS8VSBiXtd4ObckhAE51giEgjUSGD6XRAztAFm7TRmetWOr4wgCBCEGrfSboeL0Pq8kTnIiVhuxPC1IPTpaYP8/lgZBMGNfY81QeDfCMTnD3RH2vh8Yn4HEU3mi9nDgImoL5Y6hDR+BCxqJyBEG/LFzIG1z/TGDF8LQjKeGvX9y28gCN74JCALENiJQOWeF3cem/VeGyAINnoi8mTOyM61EcHVqT4XhPQqJupylaDdxSEIdgliPgiAQAMJQBBswBV6MmdkIAg2ENY9tS+eWk3Evr0BZLpwCELd/cdEEACBxhOAINhgLPRUzsjsbyOCq1N9fQWhT0+v2f6GN1ch2locgmALHyaDAAg0lgAEwQZfkY05IzvHRgRXp/pcEFKPEbNv7xDFFQRX9z4WBwEQsEAAgmAB0h6GiMimvJGdXX8Ed2dCENzlj68Y3OaP9UEABPZKAIJQ/wYRoU15IwNBqB9h/TP79NRaYj64/ggemImvGDzQBKQAAiCwJwIQhPr3Bq4g1M/O9kzcg2AbIQKAAAiAAK4gNGoP4B6ERpGtHhdPMVRnhBEgAAIgYIcAriDYoIenGGzAszk1Gcc5CDYRYjoIgAAI4ApCo/YAzkFoFNnqcXGSYnVGGAECIAACdgjgCoINejhJ0QY8m1P79JRBzDGbYdydjpsU3eWP1UEABHAFoUF7AO9iaBBYK2GT8XSeiRJWxnp2DATBs61BYiAAAnhZk609ILQuZ2R8+6Sdz89BSD9KTC+y1UC3J0MQ3O4A1gcBENgLAXzFYGN7CK3NGRnfvg7A14KQjKceYuKX2Gif+1MhCO73ABmAAAjskQAEof7NIUSr88XMwvojuDvT14LQp6ceIOYj3EVoc3UIgk2AmA4CINBIAhCE+umKyMq8ke2pP4K7M30tCEk9fTczvcpdhDZXhyDYBIjpIAACjSQAQaifrojk80a2r/4I7s70tSD0xVM/IuIT3UVoc3UIgk2AmA4CINBIAhAEW3R/lytm3mArgouTfS0IyVj6GtbobBf52V8agmCfISKAgEMEFi48Zf6M6IyriGlhrph5rUNhfR0GglB/+xTJDYVi9vT6I7g709+CoKc+xcyXuYvQ5uoQBJsAMR0E7BI4tDURP+p/WXgJM3UTUVRIHsoXs4fZjRyE+RCE+rsoSl2RLw1dVH8Ed2f6WhAS+uCZGmvfdRehzdUhCJYA9vQs0VtYe2uhNHStpQkOD1qwYHFXR1vrsAjNcDh0KMKJSWcWVmYe9lKxie5UP0f4w0TyUmZ+QV8hCM93CoJQ/64VkQ/kjezX64/g7kxfC0K8Z8nbopHoz9xFaHN1CIIlgInu9Es4Qv8kkj8pzewfGVn2uKWJDg7S9VPntVDrlcS8mIh9/dlxEIu1UGIenTOG77E2uHGjersHX65F+ONE/DoiOZB5932EIEAQnNiFZZJ3FYvZW52I5UYMX/+S6+4ePLQ9qj3oBjjH1oQgWEJZEQQtSg9NDxYZE5H/zZeGKmYulgI4OCihp47XiL5KzLqDYYMdykVBiB2QOijaQYPM/B5mepkV0BAECIKVfVJtzKSSl5VK2b9XG+fV/+9rQeii/hkz9I6xPf0V4FXoL8gLgmCpTS8QhGlHEGGmu0nRmblS9lFLQRwcdMAB/Z2zOjsvYaYPElGLg6GDGarJgtDV1T9jZrTjHcJ0OjO/pXJfQS1gIQgQhFr2y+7GVn5HPbPF3Gf9+mVjdmO5Nd/XglCBltRTW3b9/tAtmHWtC0GwhG1XQdgxaVoUiD45adBVJcqOWwrm4KBET/pI1uRaZn6lg2GDF6pJghDvPuN10Yg6VYhOY+ZZ9YKEIEAQ6t07O82byBUz7Q7EcS2E/wUhnt7ARHNdI2h3YQiCJYJ7EoTnRIHkobKoMwxXvufujyRiHecz86XMtJ+lgsI2qIGCkFg42EsRPl5j/hAxOXJqHQQBgmD3IypET+eLmbol1e76Tsz3vSD06emSU78UnABacwwIgiVk1QTh+SsK9NmNzz75xSee+MmzlgI7OGjBgnfu39Ey6yek0WscDBuMUA4Lwty5Z+wzq1O9XCP+lLAc4/TXjBAECILdD54Qrc8XMwfZjePmfN8LQjKeepCJD3UToq21IQiW8FkVhEowEVprlsvvKK5adq+l4A4P6u05451aRL7NJHPxtMN2uI4IwlktsdhkbyvTecR0TiPZQhAgCLZ/LQiVckbG1zcy+18Q9PRdzPRq2810KwAEwRL5WgThuasJSrKbxsbO37Bh+WZLizg8KBkfvJVJO77WG+QcTsMb4eoXBF6wYGDOjCifokX4c0S8bzMKgiBAEOzuMyF6OF/M+PePVyLyvyDEB5czae+220zX5kMQLKGvRxC2X03YUiZ5q2Fk/2hpIYcHxQ5KxVpn0F1CdJDTl8EdTrWx4WoUhAQd1yY9B71W0+R7zBxrbHL/Hh2CAEGwvedE/TpnDL3ZdhwXA/heEBLxwU9rpF3sIkN7S0MQLPGrVxCeu5og8ve8kbX0DLylhGoclAzCseA11vyC4RYFYfbs/v3mzur8ATO90c0/YCAIEAQ72316rlJX50pDF9iO42IA3wtCXyx1Cml8k4sM7S0NQbDEz64gbLs1QZ4Vof8uGNnllhZ1eFBPz+kHt0ZafspERzoc2vvh9ioI/a1JveOTRHwWER3ATJrbBUEQIAh296AodUa+NJSxG8fN+b4XhHhX6vBoK//DTYi21oYgWMLngCA8t46Iun9K+A2lUnaTpcUdHbQomujuOYkjvIyZWx0N7eVg/y4InIylT2GWjwlR0mtnmUAQIAh2P07KpJcXRjP32Y3j5nzfCwJRf6Qv3lk5IKemk9LchP7CS69yc87InuKZfDyaiJOCsL3EZ0XUZXlj6Eo3Su6dt+RArUP7ApOWdmP9pq+5XRAq70KIRLRPEVPlVcqePb8EggBBsPMZEREzb5TaiVaU7cRxe24ABIGoT089Rsz+fN4UVxAsfQYaIAjb1hW61yyX0yOrlrnxTg9O6oP/ycQ3+3b/Wure9Pc7PyWmQ0ik1w83a0IQIAgWt/buhwk9mTMynhVgq7UFRRD+QcyHWy3aU+MgCJba0TBB2HZzwhYR+mKhZHzODeOfP//4mR1t+19KxBcwU8QSEAxqKAEIAgTBzgYTokK+mEnaieGFucEQhHjq10RcuevZfz8QBEs9a6Qg7EhARP5Owu/PlzJ/sZSUw4OSsdRLifk6ZjrK4dAIVyMBCAIEocYt88LhQn/NGRnfv58lGIKgp75LzGfaaqhbkyEIlsg3QxC2JzKlRL6+ZeLJT61de/sWS8k5PKhXH7xQY76Ym3QokMPpByIcBAGCYGcjC8mt+WL2XXZieGFuIAQhGUu9nzW+1gtAa84BgmAJWRMFYVs+Io+Zyjx9ZHTZby0l6PCgWCx1UAvTd4n4OC889udweZ4PB0GAINjapKI+kjOGvmwrhgcmB0IQEj1nvkyLKH8+TgJBsPQxaLogTDvC9KukrylvGvtEcePypy0l6vCg6XM+mK8mJn/ehOswj2aFgyBAEOzstUlFryq59FWlnbx3nRsIQSAirS+e2krkw+fKIQiW9rMbgrBTYuUpkTcYRvbOyvlolhJ2dNBxbcnYQRnWqHKkeIujoRFstwQgCBAEGx+NqVxx8wyi5aaNGJ6YGhRBoKSeeoSZD/EE1VqSgCBYouWyIEznKCI/mzAnl6xceeNGS0k7PEjXB45oYe3nRLzA4dAItwsBCAIEod4PhQgV80amt975XpoXIEFI385Mb/cSXEu5QBAsYfKCIOxIVJXlhMLK7M/cuZpAlIilLtI0vhxXEyxtnboGCdFqpegjdU0O2CTWaL5GdFXAympYOSKyIm9kj2nYAk0MHBhBSOiDV2qsXdhEds4sBUGwxNFLgjB9NYHoYZM2v6ZYdOfehK6u/hkzWjoeZeZuSwAxCARAoDkERL6XM7L/3ZzFGrtKYAQhHhs8NappNzYWVwOiQxAsQfWaIEwnLTQmQv+bL2W+ZqkI5wdpvbHUsRGNbvPl/TfO80BEEHCdgBJ6b8HIfNf1RBxIIDCC0Nt1eiLS2pJ3gElzQ0AQLPH2pCBsf9KBiB4o0+SJhnHjqKViHB7U1XXmnBkt5nXM7Pvnrh1Gg3Ag0HQCE2b5JaOjyx5p+sINWDAwglB5d3yfnnqSmGc3gFPjQkIQLLH1qiDsSF5EtgrTtwvF7IctFdSAQb09p7+GtegPNb++l6QBTBASBJpJQESeyRvZWdu+hfT/T5AEofIkwwpmfr2v2gJBsNQurwtCpYjKuQlE/Kgoc3FhdPh+S4U5PGju3DP2mdVpfpgrJzEy470ODvNFOBDYGwERuSdvZI8OCqWACUL6q8z0AV81B4JgqV1+EITnryaQSSTX5I2xjxAtn7RUoMODKq9V1iJ8LTPjvQ4Os0U4ENgTASHJ5ovZwLzCPVCCkNAHTtc4ssxX2xeCYKldfhKE5woSKQnRWXkj+ytLRTo+6OUtfT2Hn08R/jQRdToeHgFBAAReQEApdU6hNOTPY/9308tACUJ8wUBftC3yL1/tWQiCpXb5UhC2VyZC102YEx9z64Clynsdokzf0pjfYQk2BoEACNRFwJwqHz6yatmDdU324KRACUKFb5+eeoKY9/cg692nBEGw1Co/C0KlQBHaIGSeUzCGf+jWDUzJntRJHOHKI5k4idHSrsMgELBOQEQ25Y3sHLc+39YztT4ycIKQ1H12oiIEwdJu9bsg7ChSCd1i0vgHDOOm9ZYKd3zQomhCj92oMb+TiKKOh0dAEAgtAflNrph9U5DKD54gxNL/wxp90TdNgiBYalVQBGH71YQtSmTxSGnsdrde6NK7cMlhWkvkxyQUZ+bA/R6wtKkwCAQcJKBEPlcwsp9wMKTroQL3iyERSy3SNP6d62StJgBBsEQqSIKwo2AR+fuWSfWmNWuGn7QEoQGDEvHU51n4Q8zU3oDwCAkCOieclAAAIABJREFUoSFQNuX/FUezPw9SwYEThAMO6O+c1dn5NDNpvmgUBMFSm4IoCNuvJpgkcl6+lL3OrZc/zZmzeN/9Z7X8joRehqsJlrYjBoHACwiIkHpi0+Y5Gze6826WRrUjcIJQAdWnp/5EzK9tFDRH40IQLOEMqiA8fzWBnt60eXPXhg3LN1sC0oBBye6Bt1NE+zEOWGoAXIQMNgGhe3NGJnBnjgRSEJL64CeYtc/4YkdCECy1KeiCsA2CTCqhKwtG9pNu3Qkdn92/X2S/jqWs8UmWGoNBIAAClXOVr8gXMxcFDUUgBaGve/CNFNV+7YtmQRAstSkcgrBdE0RKU0LHlUrZRy3BcX6Q1qcPvEIo8ktmqpwrjx8QAIG9EFDKPLFQGr4taJACKQhdXf1zZrZ2unbjV02bBIJgCVeYBGE7kEkhyuSL6z5IdMeEJUgOD5o///iZHW1zPuybq3EO149wIGCVgNpCBxbWZTZYHe+XcYEUhAr8vlj6t6TRMZ5vBATBUotCKAjbLydQyVR8zsjo0jssgWrAoET34KGs8TBrfGQDwiMkCPidwF25YsYf97zVSDqwgtCrDw5EWBuqkUfzh0MQLDEPrSBse0ukyURZ9fTUBYWnbnjGErAGDErog+cyaVcw08wGhEdIEPAnAaHzc0bmG/5Mfu9ZB1YQ+mKpQ0jjRzzfNAiCpRaFWRB2ABKSNSJyQcEYusUStAYM6p1/ykKtbcY3iOR4PBLZAMAI6TsCyqSXF0Yz9/kucQsJB1YQYpRqb4nT00zcaoGDe0MgCJbYQxC2f+MgIiT0oymic0ul7DpL8BowqDeWOiXC/AVi6mlAeIQEAb8QmHp6rDx7/fplY35JuJY8AysIFQjJeCrDxKlagDR/rLpDTHVh89f12YqRaC8T3e6zrBuWrohsJUX/nR/N3uTWI5HTNzG2738VE6XJ6yLesE4gcKgJCN2cMzKnBJVBoAUhFku9qlXju4PaPNQFAiLqT+aELC6uHV7pFo1ELPUqZl7GTAm3csC6IOAGATVVfmth1bJfurF2M9YMtCAsWDCwf0db5IlmgMQaIOAmAVN4cMR44Caiv025lAcnYqlLmPmjLtzEWBaRtczc7VLtWDakBLZO8YJVq5auDWr5gRaEStP69NS/iLkvqA1EXSDwHAGR3BRFjjWM7426RSUWS81qYb6LmQ4hoob/fhERUaZKj6wcvr5PT60n5v3dqh3rhouACBXzRqY3yFU3/APsNrx4T+q0aIRvcDsPrA8CzSKglLqsUBq9nGhFuVlr7rpOvHvg7ZFI5GYimdHIpx0qT3bki9nKlQMVj6cOjxJX7iaPulU31g0PAWHz/fmR4W8HueLAC0Lf/FPnUnt74E64CvKmRG0OEBB6qszyqmIxm3cgWt0h+vTUHcT81roD7H3iVK64bp+dT5pMxAYv1jTt0w1aD2FB4DkCUzIRM4wbXbta14xWBF4QiEhL6qlnmRmHuzRjR2ENDxGQSVGUyZey73czqVgs9dJWpt8S82wn81BC3y0YmffuEpOTeuoXzHysk2shFgjsTEBExvPGWCfRcjPIZMIgCJSIpT6kaXx1kBuJ2kBgTwSmD1iaNBcXVi/7vVuU5s1b0rHPDP4ks3aRI185iKzLGWNdu/sFvf3xy78y8UvcqhfrBpuAmOqT+dGhzwa7yibcROQFgJVX2EZnd1aeZsB3k15oCHJwg0CZRH6WM7LvdOvchErR8QUDfVpr5AaN6RX1QqjcmGia8ubiyqHf7ClGb9fpiUhLy9+JqaPedTAPBPZIYNLsyq0eXhN0QqG4glD5mqFPT28gpjlBbyjqA4G9ERCSx0X4woKRud49Ume1JHoml7BG32Tm9lrzEKFf543Mm6vNS+ipfo3ZtWOpq+WH/+9bAuVcsWUm0XVuPVLcNHBhEYTK1wwXaRp/oWlksRAIeJiAKPWjLVPy3jVrhl17LXosloq1MF3JzO+yjEroqUmRQ60eM52Mp7/CRB+0HB8DQaAKAZPUFSPFoYvCACo0gkC0KNoX1zcTUVsYGosaQaAaARF6WpRcUBjNZiuPCVYb36D/z4nugXdpkcjXiemgqmuYcmFuNHtV1XHbB8RiqfYW5l8x0+uszsE4ENgLgfJ4eeLAlStv3BgGSiEShOl3MxSYONAHW4Rh06JGhwmI/KLM6oPF4nDO4ciWw3VR/4wZeudXiOhMZorsbqKI/DVvZI+u9R6K6TdQtrffy8QHWk4IA0FgNwRE5PG8ETuY6FK3hLqpfQmVICT0wTM11r7bVMJYDAR8QECEJkTkY22lsWseouWTbqWc6Bl4GWvaUiL6jxc+7SCT5Sl6XXFV9q/15JboSR/JGv2VmbR65mMOCFQIiMgH8kb262GhESpBqDS1T09vxp3NYdneqLNWApW/0tVU+bSR1dcXap3r5PiknrqCiM997r0OIt/MGdnz7KzRqw+cF+FIaH6522GFuf9OQIgm8sVMzTfV+pll6AQhqafuYeaj/Nw05A4CjSQgQqYiusQU+XKplB1v5Fp7i63rp85rofafCkn3ps1jvRs2LK/cQ2Tnx/IhSpV/DIhoxM5iwZkrbfhqdvrywb9yRrbyjpHQ/IRPELpTb6YI/dKRw1pCs01QaBgJiNCGKZFXlkrZkpv1z6fjZ66l27c4kcO2mxbpMWaetbd4QvJQvpg9zIk1/R6jL5Y6hDR+xO912Ml/+uwNVicUi8M/tRPHb3NDJwiVBvXFU6uJeIHfmoV8QaD5BCqvS+Tv5EubzycX701wsu4DDjinc9Y+W5/gvTzRBEF4njgEYZrFE7li5gAn96EfYoVTEPTUMDEv8UODkCMIeIXAeJkOXbky87BX8rGTR0/P6Ue2atF793QlEYIAQdh5f4nI7Xkje4KdPefHuaEUhOnHntpmlHBHsx+3LHJ2i4AIKSG6nYx17ynQHZXv6H39k4ynrmXi3b7ICoIAQdhBoPL1wtTW8Xhp3fdd/arNjQ9bKAVh29cM6crjUnWfB+9Gs7AmCHiBgBBtME1JFUezP/dCPjZyqNy0eD8z/8euMSAIEITnBYEeyRuZUL74K7SCkOgZOEOLRL5n45cLpoJAaAlUriYQ0W95YvzU3NqbKi9C8+VPPN6/X1Q6HiXmF5ziCEGAIDxHQOj8nJH5hi83uM2kQysIlaOXk7peZKaFNhliOgiEl4DQk4r4koKx9Jt+hRBfmDoq0sJ/3PmmRQgCBGGawPRrxUsLiVaU/bq/7eQdYkEgSujpKzWmC+0AxFwQAAEREvolmdq5uZVLi37kkYilPqZp/PnnLivjMcfn2hjmpxiUyHcKRvYsP+5pJ3IOtSD09CzR2yLRyvnzUSdgIgYIhJqA0JhJ6pIRY+jLfuSQjKVuYI1Pm/7DEYIAQSAqlyfMQ4tr3HtHidufo1ALQgV+Uk/9oKbXzbrdMawPAh4nIET3lcVMG8bwPzye6gvSmz//+JmdbfvfTcxHQBDwFQOJ/CJnZI/z0x52OtfQC0Jvz8AxkUjkt06DRTwQCDOBynHNIuoyKj3+RT89EhmLpQ5pYb6bWNbgJMVtOzisXzGYpvm2kdHhO8L8OQ69IEx/APTUA5W/GsK8EVA7CDSCgJCsIkUn5EvZvzcifiNiJvRUPzNfnC9mDm9EfL/FDKUgCP0rZ2RC9d6F3e1LCEJFELoHByiqDfntg4t8QcAvBJRSn392q/rs+vXLxvyQczKWSuVL2awfcm10jmEUBGWq8wqjQ759MsepPQFBmCbZ35rUO9ZXe4GLU9ARBwTCSECEnhZlHlcYHf7z9H2A+PEFgbAJggg9kzdkHpF7bzL1ysaAIGzvRG9P+rxIhPCueK/sTOQRWAKi5FYprT/NT/cmBLYZFgoLmyAokU8UjOznLKAJ/BAIwvYWx2f37xeZ1fkU3s8Q+D2PAj1AQISKeSPT64FUkEIVAmEShMp7F7ZOReauXv29p7AxiCAIO+2CpJ76KDNfgY0BAiDQWAJKyccKpewXG7sKojtBIGSCcHneyF7sBLcgxIAg7NTFWCx1UKvGjwWhsagBBDxLQOipSZEFpRK+4/Vsj3ZKLEyCUCazp1gcXumHvjQjRwjCLpQTsTO+oGlyUTPgYw0QCCMBpeiyQilzSRhr92PNYREEJeobBWPofD/2qFE5QxB2Ids7b8mBkY7o+kYBR1wQCDOByle8YxMT3Wt9/AbIsPUvLIKAqwf/vrMhCLv5tCfjqWuZ+P1h+0WAekGg0QREyVfypeyHG70O4jtHIAyCICJDeSObco5aMCJBEHbTx66u/jkzWzufDEaLUQUIeIOAiJhSlhcVVg2NeCMjZGGFQBgEQU1MLiysuWG1FR5hGgNB2EO3k7H0UtYoHabNgFpBoKEERK7JGdlzG7oGgjtOIOiCIErdlC8NTb/FEz8vJABB2MOO6OrqnzGjtXMjE7Vh04AACNglIFImdUixGN5X59ol6Nb8oAvClkltf5x7sPvdBUHYy6cuERu8ipk/xMzg5NZvJ6wbCAIicnveyJ4QiGJCVkRwBUFEiIbyxSyuFO9hT+Mfviof9mQ8vYmJ9gvZ7wSUCwKOElBldVhh5dBDjgZFsKYQCKogiND41qnNc1avXr61KSB9uAgEoZog6IOfIOLLcRXBh7sbKXuCgIj8PW9kX+aJZJBEzQSCKAiVI5VF5AuF0tD/1gwkRBMgCBaa3aen1xDTfAtDMQQEQGAXAuNlddhKXD3w7b4IoiCQyMackZ3j26Y0KXEIggXQCT3VrzHfYmEohoAACOxMQOipnJGZi9c7+3dbBFEQlNCSgpG53r9daU7mEASLnJN6+mFmerHF4RgGAiCwg4DQGBE9LUy/V6b5nZHR4d8Bjn8IBE4QhEZzRibmnw64lykEwSL7Pn3glULan3EvgkVgGAYCeyBQOW6ZiR9XIo8QqxsKxoblRHdMAJg3CQRJECo3Hpim+q/iyuE/eZO2t7KCINTQj6Se+j9mfnMNUzAUBECgOoEyCa1WIiXS+CdlJTeVStl11adhRDMIBEsQ6O68kXlNM7gFYQ0IQg1d7OoaWDCzNfIIEe1TwzQMBQEQqJGAkKwhoTwLrZgkuq1Uyv69xhAY7hCBwAiC0Fh5wnxJcS1e52x1a0AQrJLaPi6pD17OrH2yxmkYDgIgYIOAiGxglntF+O5ymVYYq0p3E60o2wiJqRYJBEYQlLo6Vxq6wGLZGEZEEIQat0Eslmpv0ehBJu6tcSqGgwAIOERg+j4G5j+LqDuVitzFLRN3Fgo3PONQeITZiUAQBEFIVo6NP/nitWtv34LmWicAQbDO6rmRyZ7USRzhH9YxFVNAAAQaQkCEhO4T5t+Iortkku4bWZtZ1ZClQhY0CIKgxFxSMIbxWGONexeCUCOwHcOTeuonzHx8ndMxDQRAoMEERMQQop+zkt+VtciDhrE0T0SqwcsGLrzfBUGEfp03Mri5vI6dCUGoA1plSrwrlYy08D+Yqb3OEJgGAiDQRAJSOYtB5AdmWW6JEI20rdqy6iFaPtnEFHy5lM8FYcKcKr9iZNWyB30J3+WkIQg2GpDoSV2gRfjLNkJgKgiAgEsERKavJvyMlGQnybx/fJweX79+WeVQJ/zsRMDPgqCUuqRQGroMDa2PAAShPm7bZy2KJnX9X8wUtxUGk0EABDxBQITuJ6FvT9Hm20ql5TiLgYh8KwjTJyb+I0n0tylPbC4fJgFBsNm0ZM+SF5MWeQgnLNoEiekg4CECQvJQvpg9zEMpuZaKHwVh+sTEsvnK4qpl97oGLgALQxAcaGJST32KmXEZywGWCAECXiAAQXi+C34UBFLyhVwp+3Ev7CU/5wBBcKB7lbMRWjXeQESdDoRDCBAAAZcJQBD8KwgismXT5rF5GzYs3+zyNvL98hAEh1pY+aqBI9GHHQqHMCAAAi4SgCD4VxCmJs2jjdXD97i4fQKzNATBuVZysif1VY7w+c6FRCQQAAE3CEAQfCoIor6bM4bOIiJxY98EbU0IgqMdXRTt02OriPkgR8MiGAiAQFMJQBB8KQibt0xuPnD16uVbm7pZArwYBMHh5nZ3nxFvj0rlq4Y2h0MjHAiAQJMIQBB8JwhlUXJUHm/9dPQTAkFwFOe2YIlY6lJmuhiPPjYALkKCQBMIQBD8IwiVRxqJ+Uv5YuaiJmyNUC0BQWhQu5N6+j5melmDwiMsCIBAAwlAEPwjCCSSyxnZFzVwO4Q2NAShQa1PJNIHsCk5Zp7VoCUQFgRAoEEEIAi+EYTNk2pzEqdeNuaDAEFoDNdtXzXog2cyad9mpkgDl0FoEAABhwlAELwvCJV3aSiiD44YmW843H6E204AgtDgrZDUB5cza+9u8DIIDwIg4CABCIL3BUEpdUehNPQ2B9uOULsQgCA0fktwn55+hJjwHVnjWWMFEHCEAATB24IgIkbeyPbivANHtvseg0AQGst321cNCwd7OcoPM3NrE5bDEiAAAjYJQBA8LQhTk0qOKJWyj9psM6ZXIQBBaNIWScQHF2ukXd+k5bAMCICADQIQBO8Kgijz/fnS8LdttBdTLRKAIFgE5cAwTsZT1zDx+x2IhRAgAAINJABB8KggiLo+ZwwN4KuFBm7+nUJDEJrDeXqVylsfo0z3aMyHN3FZLAUCIFAjAQiCBwVB5NHNE0++fO3a27fU2E4Mr5MABKFOcPVO0w8+raelve0hYuqoNwbmgQAINJYABMFbgiBCW9TU1H+MrL6+0NjOI/rOBCAILuyHRCz1Kk3ju11YGkuCAAhYIABB8JYgmKb5hpHR4d9ZaB2GOEgAguAgzFpCJWKDZ2uadk0tczD2/7d3/7F11ecdx5/n3B+O7UBDguOQ3PhXbMZadYhRVUwQlqqwjTC0TdQUCDEuXStN65DW0gq0dQJEh7rSdl27SbMm4rghQL12dGhCKmoJ0FYdlVqtnaY1vva9YcYE7JCEOD/se+/3ma6hEaTQYJ/745zveSPxF/c+3+d5PQflo5t7z0EAgcYIEBCiExAq5j49Wdj9QGM2zyl8ghCJa+DuoL/3wK5ApfqFG/5BAIEICRAQIhIQTL6xv1DYIbKvHKHLIzGt8AlCE1fdL9e0BL2d/ymqFzexDY5GAIEzBAgIzQ8I1R0cP5V9/8zMCF9KbNL/oQSEJsH/8tgeGV6V7dVJUdnY5FY4HgEEXhcgIDQ5IJgdLh/J9k4dHjnKRdk8AQJC8+xPn7xhw2DHua3tBVHllw0R2ActIEBAaF5AMJOFktlFxeJokSuxuQIEhOb6nz69r2voinQ69T0RyUSkJdpAILECBISmBYRypVL5PX6xEI3/9QgI0djDUhfVXzaoBl/l8dARWgqtJFKAgND4gPDa45vtzsnC6BcSedFFcGgCQsSW0t87/EUV+UtVZTcR2w3tJEfARKadkzuSM/HbT6qBbAxEvlRPCzMzUR2ZmNrFrejrCb3M2vwhtEywRry8v3f4G4HqYCPO4gwEEECg2QJO5In81K7tze6D898sQECI5BWxLT3Q2/OYql4byfZoCgEEEKiRgJnsmygUruZeBzUCrWEZAkINMWtZKpcbbG3NrH5CVX63lnWphQACCERGwOy5+YVDH+ABTJHZyJsaISBEcy9LXfX1Db4rZaufUpVLItwmrSGAAALLFqh+EXShvLj1+ef3Hl72m3lDQwQICA1hXvkhWzp3rg/a099XkYGVV+GdCCCAQHQEzKyw6MqXHziw58XodEUnZwoQEGJwTXR13dzXks4+o6KbYtAuLSKAAAJvL2B2sCTBtkLhwV/AFG0BAkK093O6u76NQ12pltRzqtIZk5ZpEwEEEDhTYLa8uHD51PTeCWiiL0BAiP6O3hQS0i2pn4jKuhi1TasIIICASPX5CovusqkXxvbDEQ8BAkI89nS6y/5Nf5rTbOW/VeVdMWuddhFAILkCx8qLdunU9CifHMToGiAgxGhZv2w1lxva1JYJfi6q58WwfVpGAIEkCZgcL5cWLuGvFeK3dAJC/Ha21PHatTvOPX9NdlJEzo/pCLSNAAKeC5jI0cVXS795YI5fK8Rx1QSEOG7t9Z43bryurX3VuoKKro/xGLSOAAI+CpgdPjx/vGt2dnzex/GSMBMBIfZb/ouWC3vni6KyIfajMAACCPghYHZof+H4ZpHxk34MlMwpCAh+7D010Ds8papdfozDFAggEFsBk4P7C7tyIlKJ7Qw0viRAQPDkQujoGFy95pzVT6vIb3syEmMggEDMBKq3Tz78avA7c3MPHotZ67T7FgIEBI8ui87One3ntqX+TVWv9mgsRkEAgRgImMn3Dx87tH1u7t8JBzHY1ztpkYDwTpRi9JrqUyDbMm0josEtMWqbVhFAIMYCZvbN4wvZoZmZkRMxHoPWzxAgIHh5SVya6e95771BoHd6OR5DIYBAZARM7CsTU9lPi4yUItMUjdREgIBQE8ZIFtGBnuHbNdC/j2R3NIUAArEXcK5yZ7449gURcbEfhgF+RYCA4PlF0d87PKgiD6tqyvNRGQ8BBBokYGYVEx3OF3btadCRHNMEAQJCE9AbfWR/99AlQRB8l1szN1qe8xDwT8BMjprZH+SLoz/ybzomeqMAASEh10NPz/CarOozovLehIzMmAggUGMBE8mX3PzWYnH8YI1LUy6CAgSECC6lni0N9H5kn4hdqarsvp7Q1EbAIwEzMxF9bqKQ2cqXET1a7FlG4Q+J5Oz69KQDPR/5Jw3kYyKSTuD4jIwAAssQqH7fQEz2TBRHh5fxNl7qgQABwYMlrmSE/t5bb1DRUVVtXcn7eQ8CCPgvYCYLTtzHJwu7x/yflgnPFCAgJPia2LRpR649m/mxqPKgpwRfB4yOwFsJmNhs5ZR739TM2PMIJVOAgJDMvb9xah3oHX5SVT8IBQIIIFAVcGY/yBdGt4qIIZJcAQJCcnf/hsm3pQd6uj+pQfB5OBBAINkCztk9+WLxPpF95WRLMD0BgWvgtMCWrlsvD1Ja/TSB7yVwXSCQMAEzO+Wc2z55YOyphI3OuG8jQEDg0niTQP+GwQ5tXb1XVa6CBgEEkiFgJk+XbP5G7m+QjH2/0ykJCO9UKlGv25bu7+75eJDSf0zU2AyLQAIFXMU+lT9w/Gsi44sJHJ+Rf40AAYHL420Fqn/lkErpv/IrBy4SBDwUMHml4iof4q8UPNxtjUYiINQI0t8y17QM9Hb+s4juVJXA3zmZDIFkCJiJE5VHS85uKxZHTyVjaqZciQABYSVqCXzPlp7hG4NAv6oi5ydwfEZGwAsBMztiIrfnC6Nf92IghqirAAGhrrx+Fc/lPrq2Lev2VJ/kxrMc/Not0/gt8NqzFOR7urBw4/6Zh+f8npbpaiVAQKiVZILq9Pfc+meB6ud4fHSCls6osRUwkaMm7p781O4vx3YIGm+KAAGhKezxPzSXG1zbmml/TESu4NOE+O+TCfwTeP0JjD+yk/N/lD84PuvfhExUbwECQr2FPa+/pWfow0EQjKjouZ6PyngIxEngmDm7faI4Ohqnpuk1WgIEhGjtI6bdDGYHetu+KRJs55cOMV0hbXshsPQLBbEnSyZ/zC8UvFhpU4cgIDSV36/D+zftyGk2U1TVlF+TMQ0C0Rcws4orlS+anN6Tj363dBgHAQJCHLYUox775ZoW6dnwSVW5j08TYrQ4Wo2tQPW7Bmby+bLIPXxqENs1RrJxAkIk1xL/pjZvvm1ja8b2iMgH4j8NEyAQWYEfuoXFD+dfeGg6sh3SWGwFCAixXV08Gn/tCZHBI6qSi0fHdIlA9AXM5CURd8NEYfcz0e+WDuMqQECI6+Zi1HcuN9jakmm/JRB5QJVfO8RodbQaPYF559xnTiy+sntm5vET0WuPjnwSICD4tM2Iz9LTM7who3qXiP05X2SM+LJoL1ICZlIRk5GT5crnpqfHXohUczTjrQABwdvVRnewrq4d725JZe5V1euj2yWdIRARAbNvl0rubwrTYz+LSEe0kRABAkJCFh3FMXtzQ+/PZIK/FdUPRrE/ekKgmQJm8rSruL+afH73D5rZB2cnV4CAkNzdR2byC7uGrrJU6l4Ru4zbNkdmLTTSBIGlHyyq/NRV3F9PHhh7ogktcCQCpwUICFwMkRG4sHvoTyyVuk9MLuIeCpFZC400QKAaDFRkvxP5bL4wOt6AIzkCgbMKEBDOSsQLGi3Q1z28PR3Il020n6DQaH3Oa6TA0q2RVabMyR354q5vN/JszkLgbAIEhLMJ8d+bJlC9h0IqpQ+ayBZ+9dC0NXBwHQSWfpWgVnQV97HJA2NP1eEISiIQWoCAEJqQAvUW6Oq6uW9VquVbovIeEUnX+zzqI1BHgbKZ/G9lsXL91Atj++t4DqURCC1AQAhNSIFGCXR0DK5ec845j6jYtY06k3MQqJWAmTxZOTI/OHV4/GitalIHgXoKEBDqqUvtughs2jS0rjUTfEJVP6sqPDmyLsoUrZWAc+7+YHHxS/tnHp6rVU3qINAIAQJCI5Q5oy4C1U8UzmlrvzIdyL+I6gV1OYSiCKxAwETmrGy3yXzp6fwrD726ghK8BYGmCxAQmr4CGggvcHfQ11d8T8rJp0T1Fj5VCC9KheULvHY7ZHtUtfx3+wv9Pxe52y2/Cu9AIDoCBITo7IJOaiCwpXPn+qA1fa0EcpeKDNSgJCUQ+PUCZoWKyP0Vk8eLxdGDcCHgiwABwZdNMscZAoOpgd62y0X1JjEdUpU2iBColYCZnVSRPc5kb754/FmR8UqtalMHgagIEBCisgn6qJtATgZbW3pW3xCo3CRiV3FPhbpRe1546X6H3zVnDx87VXn0pZe+ftzzgRkv4QIEhIRfAEkbv6vr5vOywapbg8CqT5K8jPsqJO0KWN68S98rEHnOifuWnjyxO39wfHZ5FXg1AvEVICDEd3d0HlKgf9OOnGTStwVB8PsicqmItIQsydu9ELBFM/mJqX2nYqUHC4W9B7wYiyEQWKZscOFHAAAE9UlEQVQAAWGZYLzcT4Fc7qNrV6XLnwhUrxfRLaLS7uekTPVWAmZyQkUmzdljx0vZf5iZGeGeBVwqiRcgICT+EgDgVwW2pQf6ugfFgttFpV/M1vEYai+vkzkxm3IiX8sXso+IjJS8nJKhEFihAAFhhXC8LTkC3d07e7Op1GdE5DoxWSsiqwgM8dp/9euFInJKRQ+L2H+UFspfLMzs+UW8pqBbBBorQEBorDeneSDQ1zV0RSpI3aWBXPn69xYyHozl4wjVTwQWzOyHZnJ/vji6z8chmQmBegkQEOolS93ECHR3D12STQV3iMlNfLLQ3LVXPykw0XFXtgem/m/0x83thtMRiLcAASHe+6P7SAlsS+dyHeeKtKxdlU1/SJ0OidpFhIb6LGnprgQiE87socpi5dFSsDA7PT37qsi+cn1OpCoCyRIgICRr30zbYIHOzp3t7SldF2SDjapytYj8oYi+T1WCBrcS6+PMxJnYT8XkcTH3nUpQnpmfLx2anR2fj/VgNI9AhAUICBFeDq35KdAv17S4vo7OoJI6X6zSp6nUVhGp/nsxwUFETP7LiXtWRJ4VF+RdqjLnXPBysTh6ys8rgqkQiKYAASGae6GrRApcmtm8+eKOVSm33tTWi9N+Tclvicm7ReU3VHS9DywmMivmqr8g+B9z8jMJZEJNXz5ZdrPT0ydnRcYXfZiTGRCIuwABIe4bpP/ECGzceF1bOt2xISOVCwLVThfIusDZegtkg4peoCIbRGSdiZ4nauepaLYROCa2KCZHln5CaHbIRA6qyosmelBFXzZXOVQxeykwffHYojvIMwwasRXOQCC8AAEhvCEVEIikQPX7D5mMrslk0qvT5lqdaVsq5Vpd2bVJKlW9l0PazNJqkrJAgsAsXR3EqZbViTOViqqWzaz6pb9TgdqJSiU4qVI5WQnSJ0ql8nypZEf4Az+S66cpBEILEBBCE1IAAQQQQAAB/wQICP7tlIkQQAABBBAILUBACE1IAQQQQAABBPwTICD4t1MmQgABBBBAILQAASE0IQUQQAABBBDwT4CA4N9OmQgBBBBAAIHQAgSE0IQUQAABBBBAwD8BAoJ/O2UiBBBAAAEEQgsQEEITUgABBBBAAAH/BAgI/u2UiRBAAAEEEAgtQEAITUgBBBBAAAEE/BMgIPi3UyZCAAEEEEAgtAABITQhBRBAAAEEEPBPgIDg306ZCAEEEEAAgdACBITQhBRAAAEEEEDAPwECgn87ZSIEEEAAAQRCCxAQQhNSAAEEEEAAAf8ECAj+7ZSJEEAAAQQQCC1AQAhNSAEEEEAAAQT8EyAg+LdTJkIAAQQQQCC0AAEhNCEFEEAAAQQQ8E+AgODfTpkIAQQQQACB0AIEhNCEFEAAAQQQQMA/AQKCfztlIgQQQAABBEILEBBCE1IAAQQQQAAB/wQICP7tlIkQQAABBBAILUBACE1IAQQQQAABBPwTICD4t1MmQgABBBBAILQAASE0IQUQQAABBBDwT4CA4N9OmQgBBBBAAIHQAgSE0IQUQAABBBBAwD8BAoJ/O2UiBBBAAAEEQgsQEEITUgABBBBAAAH/BAgI/u2UiRBAAAEEEAgtQEAITUgBBBBAAAEE/BMgIPi3UyZCAAEEEEAgtAABITQhBRBAAAEEEPBPgIDg306ZCAEEEEAAgdACBITQhBRAAAEEEEDAP4H/Bx5PVPhE9vBqAAAAAElFTkSuQmCC;" parent="1" vertex="1">
          <mxGeometry x="1879" y="3" width="58" height="58" as="geometry" />
        </mxCell>
        <mxCell id="RyiA7vY_gyk_zUofpBs4-2" value="" style="rounded=0;whiteSpace=wrap;html=1;fillColor=#E07AFF;fontColor=#ffffff;strokeColor=none;" parent="1" vertex="1">
          <mxGeometry x="27" y="-162" width="2312" height="161" as="geometry" />
        </mxCell>
        <mxCell id="RyiA7vY_gyk_zUofpBs4-3" value="&lt;b&gt;Problem&lt;/b&gt;" style="text;html=1;strokeColor=none;fillColor=none;align=center;verticalAlign=middle;whiteSpace=wrap;rounded=0;fontSize=21;" parent="1" vertex="1">
          <mxGeometry x="80" y="-130" width="580" height="20" as="geometry" />
        </mxCell>
        <mxCell id="RyiA7vY_gyk_zUofpBs4-4" value="&lt;b&gt;Solution Statement&lt;/b&gt;" style="text;html=1;strokeColor=none;fillColor=none;align=center;verticalAlign=middle;whiteSpace=wrap;rounded=0;fontSize=21;" parent="1" vertex="1">
          <mxGeometry x="1350" y="-140" width="580" height="20" as="geometry" />
        </mxCell>
        <mxCell id="RyiA7vY_gyk_zUofpBs4-6" value="&lt;div&gt;The Academic Organization App centralizes all essential academic tools into a single platform, enabling students to manage their schedules, deadlines, notes, and files efficiently. By integrating features like schedule management, note-sharing, peer collaboration, grade calculation, and campus navigation, the app simplifies academic organization and enhances productivity. This all-in-one solution reduces the stress of juggling multiple apps, ensures students never miss deadlines, and improves their overall learning experience.&lt;/div&gt;&lt;div&gt;&lt;br&gt;&lt;/div&gt;" style="text;html=1;strokeColor=none;fillColor=none;align=center;verticalAlign=middle;whiteSpace=wrap;rounded=0;labelBackgroundColor=none;fontSize=21;" parent="1" vertex="1">
          <mxGeometry x="1050" y="-60" width="1270" height="20" as="geometry" />
        </mxCell>
        <mxCell id="RyiA7vY_gyk_zUofpBs4-7" value="Students struggle with academic disorganization, managing multiple schedules, deadlines, and scattered resources across different apps or platforms. This leads to missed deadlines, inefficiencies in study planning, and increased stress." style="text;html=1;strokeColor=none;fillColor=none;align=center;verticalAlign=middle;whiteSpace=wrap;rounded=0;labelBackgroundColor=none;fontSize=21;" parent="1" vertex="1">
          <mxGeometry x="30" y="-70" width="772" height="20" as="geometry" />
        </mxCell>
        <mxCell id="163ea859c18c2f6b-11" value="&lt;b&gt;Constraints&lt;/b&gt;" style="text;html=1;strokeColor=none;fillColor=none;align=center;verticalAlign=middle;whiteSpace=wrap;rounded=0;fontSize=16;" parent="1" vertex="1">
          <mxGeometry x="75" y="846" width="40" height="20" as="geometry" />
        </mxCell>
        <mxCell id="163ea859c18c2f6b-14" value="&lt;b&gt;Enviromental Conditions&lt;/b&gt;" style="text;html=1;strokeColor=none;fillColor=none;align=left;verticalAlign=middle;whiteSpace=wrap;rounded=0;fontSize=16;" parent="1" vertex="1">
          <mxGeometry x="47" y="591" width="270" height="20" as="geometry" />
        </mxCell>
        <mxCell id="163ea859c18c2f6b-17" value="&lt;b&gt;Constraints&lt;/b&gt;&lt;br&gt;" style="text;html=1;strokeColor=none;fillColor=none;align=center;verticalAlign=middle;whiteSpace=wrap;rounded=0;fontSize=16;" parent="1" vertex="1">
          <mxGeometry x="655" y="846" width="40" height="20" as="geometry" />
        </mxCell>
        <mxCell id="163ea859c18c2f6b-20" value="&lt;b&gt;Constraints&lt;/b&gt;&lt;br&gt;" style="text;html=1;strokeColor=none;fillColor=none;align=center;verticalAlign=middle;whiteSpace=wrap;rounded=0;fontSize=16;" parent="1" vertex="1">
          <mxGeometry x="1815" y="846" width="40" height="20" as="geometry" />
        </mxCell>
        <mxCell id="163ea859c18c2f6b-24" value="&lt;b&gt;What other apps the app talks to?&amp;nbsp;&lt;/b&gt;" style="text;html=1;strokeColor=none;fillColor=none;align=center;verticalAlign=middle;whiteSpace=wrap;rounded=0;fontSize=21;" parent="1" vertex="1">
          <mxGeometry x="735" y="121" width="260" height="20" as="geometry" />
        </mxCell>
        <mxCell id="163ea859c18c2f6b-25" value="&lt;b&gt;What information do I need to query from the phone?&lt;/b&gt;" style="text;html=1;strokeColor=none;fillColor=none;align=center;verticalAlign=middle;whiteSpace=wrap;rounded=0;fontSize=21;" parent="1" vertex="1">
          <mxGeometry x="1362.5" y="491" width="260" height="20" as="geometry" />
        </mxCell>
        <mxCell id="163ea859c18c2f6b-26" value="&lt;b&gt;What information will stay in the the phone?&lt;/b&gt;" style="text;html=1;strokeColor=none;fillColor=none;align=center;verticalAlign=middle;whiteSpace=wrap;rounded=0;fontSize=21;" parent="1" vertex="1">
          <mxGeometry x="745.5" y="481" width="260" height="20" as="geometry" />
        </mxCell>
        <mxCell id="936c7dcc6c945c4-9" value="&lt;div style=&quot;text-align: left&quot;&gt;&lt;span style=&quot;font-size: 16px&quot;&gt;&lt;b&gt;Feature 1-&lt;/b&gt;&amp;nbsp;Persona 1 (&amp;lt;Name&amp;gt;):&lt;/span&gt;&lt;/div&gt;&lt;font style=&quot;font-size: 16px&quot;&gt;&lt;div style=&quot;text-align: left&quot;&gt;&lt;span&gt;&amp;lt;Description&amp;gt; --- &amp;lt;The action that the person does over the app&amp;gt;&lt;/span&gt;&lt;/div&gt;&lt;/font&gt;" style="text;html=1;strokeColor=none;fillColor=none;align=center;verticalAlign=middle;whiteSpace=wrap;rounded=0;fontSize=21;" parent="1" vertex="1">
          <mxGeometry x="47" y="102" width="468" height="19" as="geometry" />
        </mxCell>
        <mxCell id="936c7dcc6c945c4-13" value="&lt;div style=&quot;line-height: 0%;&quot;&gt;&lt;span style=&quot;background-color: transparent; color: light-dark(rgb(0, 0, 0), rgb(255, 255, 255)); font-size: medium;&quot;&gt;Device &amp;amp; Platform Diversity&lt;/span&gt;&lt;/div&gt;&lt;div&gt;&lt;span style=&quot;font-size: medium; background-color: transparent; color: light-dark(rgb(0, 0, 0), rgb(255, 255, 255));&quot;&gt;Geographical &amp;amp; Campus-Specific Factors&lt;/span&gt;&lt;/div&gt;&lt;div&gt;&lt;span style=&quot;font-size: medium; background-color: transparent; color: light-dark(rgb(0, 0, 0), rgb(255, 255, 255));&quot;&gt;Academic Institution Variability&lt;/span&gt;&lt;/div&gt;&lt;div&gt;&lt;span style=&quot;font-size: medium; background-color: transparent; color: light-dark(rgb(0, 0, 0), rgb(255, 255, 255));&quot;&gt;User Demographics&lt;/span&gt;&lt;/div&gt;&lt;div&gt;&lt;span style=&quot;font-size: medium; background-color: transparent; color: light-dark(rgb(0, 0, 0), rgb(255, 255, 255));&quot;&gt;Privacy &amp;amp; Compliance&lt;/span&gt;&lt;/div&gt;&lt;div&gt;&lt;span style=&quot;font-size: medium; background-color: transparent; color: light-dark(rgb(0, 0, 0), rgb(255, 255, 255));&quot;&gt;Battery &amp;amp; Resource Management&lt;/span&gt;&lt;/div&gt;&lt;div&gt;&lt;span style=&quot;font-size: medium; background-color: transparent; color: light-dark(rgb(0, 0, 0), rgb(255, 255, 255));&quot;&gt;Scalability &amp;amp; Peak Usage&lt;/span&gt;&lt;/div&gt;&lt;div&gt;&lt;span style=&quot;font-size: medium; background-color: transparent; color: light-dark(rgb(0, 0, 0), rgb(255, 255, 255));&quot;&gt;Cultural &amp;amp; Behavioral Factors&lt;/span&gt;&lt;/div&gt;&lt;div&gt;&lt;span style=&quot;font-size: medium; background-color: transparent; color: light-dark(rgb(0, 0, 0), rgb(255, 255, 255));&quot;&gt;Maintenance &amp;amp; Updates&lt;/span&gt;&lt;/div&gt;" style="text;html=1;strokeColor=none;fillColor=none;align=center;verticalAlign=middle;whiteSpace=wrap;rounded=0;fontSize=21;" parent="1" vertex="1">
          <mxGeometry x="250" y="700" width="300" height="20" as="geometry" />
        </mxCell>
        <mxCell id="936c7dcc6c945c4-14" value="&lt;font style=&quot;font-size: 22px&quot;&gt;&amp;lt;Name of the Service&amp;gt;:&amp;nbsp;&lt;br&gt;&lt;span&gt;&amp;lt;Purpose&amp;gt; &lt;br&gt;&lt;/span&gt;&lt;/font&gt;&lt;span&gt;&amp;lt;type of interface&amp;gt;&lt;/span&gt;" style="text;html=1;strokeColor=none;fillColor=none;align=center;verticalAlign=middle;whiteSpace=wrap;rounded=0;fontSize=21;" parent="1" vertex="1">
          <mxGeometry x="1785.5" y="90" width="525" height="20" as="geometry" />
        </mxCell>
        <mxCell id="936c7dcc6c945c4-29" value="&lt;div&gt;Calendar Apps: Google Calendar, Apple Calendar (for schedule syncing).&lt;/div&gt;&lt;div&gt;&lt;br&gt;&lt;/div&gt;&lt;div&gt;Cloud Storage: Google Drive, OneDrive, Dropbox (for file uploads/downloads).&lt;/div&gt;&lt;div&gt;&lt;br&gt;&lt;/div&gt;&lt;div&gt;Maps: Google Maps API (for campus navigation).&lt;/div&gt;&lt;div&gt;&lt;br&gt;&lt;/div&gt;&lt;div&gt;Communication Tools: Email, messaging apps (for reminders and sharing).&lt;/div&gt;" style="text;html=1;strokeColor=none;fillColor=none;align=center;verticalAlign=middle;whiteSpace=wrap;rounded=0;labelBackgroundColor=none;fontSize=21;" parent="1" vertex="1">
          <mxGeometry x="643" y="301" width="465" height="20" as="geometry" />
        </mxCell>
        <mxCell id="936c7dcc6c945c4-30" value="Schedules, offline notes, recent files, and cached campus maps." style="text;html=1;strokeColor=none;fillColor=none;align=center;verticalAlign=middle;whiteSpace=wrap;rounded=0;labelBackgroundColor=none;fontSize=21;" parent="1" vertex="1">
          <mxGeometry x="655" y="580" width="465" height="20" as="geometry" />
        </mxCell>
        <mxCell id="936c7dcc6c945c4-31" value="The Academic Organization App will query calendar data (schedules, deadlines), file storage (PDFs, notes), location (GPS for navigation), and notifications (reminders, alerts) from the phone. It may also access user account details for authentication and, optionally, contacts for peer collaboration, with permissions for calendar, storage, location, and notifications to ensure functionality while respecting privacy." style="text;html=1;strokeColor=none;fillColor=none;align=center;verticalAlign=middle;whiteSpace=wrap;rounded=0;labelBackgroundColor=none;fontSize=21;" parent="1" vertex="1">
          <mxGeometry x="1260" y="651" width="465" height="20" as="geometry" />
        </mxCell>
        <mxCell id="936c7dcc6c945c4-39" style="edgeStyle=orthogonalEdgeStyle;rounded=0;html=1;exitX=0.75;exitY=1;entryX=0.75;entryY=1;jettySize=auto;orthogonalLoop=1;fontSize=21;" parent="1" source="936c7dcc6c945c4-13" target="936c7dcc6c945c4-13" edge="1">
          <mxGeometry relative="1" as="geometry" />
        </mxCell>
        <mxCell id="35b7a92126e4cc5-1" style="edgeStyle=orthogonalEdgeStyle;rounded=0;html=1;exitX=1;exitY=0.5;entryX=1;entryY=0.5;jettySize=auto;orthogonalLoop=1;fontSize=21;" parent="1" source="163ea859c18c2f6b-11" target="163ea859c18c2f6b-11" edge="1">
          <mxGeometry relative="1" as="geometry" />
        </mxCell>
        <mxCell id="5fbf54e66c9c73-1" style="edgeStyle=orthogonalEdgeStyle;rounded=0;html=1;exitX=0;exitY=0.5;entryX=0;entryY=0.5;jettySize=auto;orthogonalLoop=1;" parent="1" source="163ea859c18c2f6b-11" target="163ea859c18c2f6b-11" edge="1">
          <mxGeometry relative="1" as="geometry" />
        </mxCell>
        <mxCell id="5fbf54e66c9c73-2" style="edgeStyle=orthogonalEdgeStyle;rounded=0;html=1;exitX=0.5;exitY=1;entryX=0.5;entryY=1;jettySize=auto;orthogonalLoop=1;" parent="1" source="163ea859c18c2f6b-11" target="163ea859c18c2f6b-11" edge="1">
          <mxGeometry relative="1" as="geometry" />
        </mxCell>
        <mxCell id="76ca130da949314d-20" value="" style="endArrow=none;html=1;exitX=0;exitY=0.75;entryX=1;entryY=0.75;" parent="1" edge="1">
          <mxGeometry width="50" height="50" relative="1" as="geometry">
            <mxPoint x="35.5" y="834" as="sourcePoint" />
            <mxPoint x="2345.5" y="834" as="targetPoint" />
          </mxGeometry>
        </mxCell>
        <mxCell id="76ca130da949314d-21" value="" style="endArrow=none;html=1;exitX=0;exitY=0.5;" parent="1" edge="1">
          <mxGeometry width="50" height="50" relative="1" as="geometry">
            <mxPoint x="29.5" y="576" as="sourcePoint" />
            <mxPoint x="609" y="577" as="targetPoint" />
          </mxGeometry>
        </mxCell>
        <mxCell id="76ca130da949314d-23" value="&lt;b&gt;List the apps that do similar things. What makes your app different?&lt;/b&gt;" style="text;html=1;strokeColor=none;fillColor=none;align=center;verticalAlign=middle;whiteSpace=wrap;rounded=0;fontSize=21;" parent="1" vertex="1">
          <mxGeometry x="1321" y="131" width="343" height="20" as="geometry" />
        </mxCell>
        <mxCell id="76ca130da949314d-24" value="&lt;div&gt;Competitors: MyStudyLife (scheduling), Evernote (notes), Todoist (task management).&lt;/div&gt;&lt;div&gt;&lt;br&gt;&lt;/div&gt;&lt;div&gt;Differentiation: Combines scheduling, note-taking, collaboration, and campus navigation in one app. Unique features include peer schedule comparison, GPA calculator, and classroom locator.&lt;/div&gt;" style="text;html=1;strokeColor=none;fillColor=none;align=center;verticalAlign=middle;whiteSpace=wrap;rounded=0;labelBackgroundColor=none;fontSize=21;" parent="1" vertex="1">
          <mxGeometry x="1260" y="282" width="465" height="20" as="geometry" />
        </mxCell>
        <mxCell id="ly8vjeuDFz9xC9aqF5E0-1" value="&lt;div style=&quot;text-align: left&quot;&gt;&lt;div&gt;&lt;font style=&quot;font-size: 16px;&quot;&gt;Overwhelmed Student + Schedule Management + (Core Feature)&lt;/font&gt;&lt;/div&gt;&lt;div&gt;&lt;font style=&quot;font-size: 16px;&quot;&gt;Observation — “I need one place to manage my classes, assignments, and notes.”&lt;/font&gt;&lt;/div&gt;&lt;/div&gt;" style="text;html=1;strokeColor=none;fillColor=none;align=center;verticalAlign=middle;whiteSpace=wrap;rounded=0;fontSize=21;" parent="1" vertex="1">
          <mxGeometry x="47" y="186.5" width="513" height="19" as="geometry" />
        </mxCell>
        <mxCell id="ly8vjeuDFz9xC9aqF5E0-2" value="&lt;div style=&quot;text-align: left&quot;&gt;&lt;div&gt;&lt;font style=&quot;font-size: 18px;&quot;&gt;Collaborative Learner + Note Sharing + (Social Feature)&lt;/font&gt;&lt;/div&gt;&lt;div&gt;&lt;font style=&quot;font-size: 18px;&quot;&gt;Observation — “I want to share notes and compare free periods with friends.”&lt;/font&gt;&lt;/div&gt;&lt;/div&gt;" style="text;html=1;strokeColor=none;fillColor=none;align=center;verticalAlign=middle;whiteSpace=wrap;rounded=0;fontSize=21;" parent="1" vertex="1">
          <mxGeometry x="47" y="282" width="468" height="19" as="geometry" />
        </mxCell>
        <mxCell id="ly8vjeuDFz9xC9aqF5E0-3" value="&lt;div style=&quot;text-align: left&quot;&gt;&lt;div&gt;&lt;font style=&quot;font-size: 17px;&quot;&gt;First-Year Student + Campus Navigation + (Unique Feature)&lt;/font&gt;&lt;/div&gt;&lt;div&gt;&lt;font style=&quot;font-size: 17px;&quot;&gt;Observation — “I need help finding my classrooms on campus.”&lt;/font&gt;&lt;/div&gt;&lt;/div&gt;" style="text;html=1;strokeColor=none;fillColor=none;align=center;verticalAlign=middle;whiteSpace=wrap;rounded=0;fontSize=21;" parent="1" vertex="1">
          <mxGeometry x="47" y="370" width="468" height="19" as="geometry" />
        </mxCell>
        <mxCell id="ly8vjeuDFz9xC9aqF5E0-4" value="&lt;div style=&quot;line-height: 90%;&quot;&gt;&lt;font style=&quot;font-size: 16px; line-height: 90%;&quot;&gt;User Authentication Service:&lt;/font&gt;&lt;/div&gt;&lt;div style=&quot;line-height: 90%;&quot;&gt;&lt;font style=&quot;font-size: 16px; line-height: 90%;&quot;&gt;&amp;lt;Purpose&amp;gt;: Securely manage user login, registration, and account access.&lt;/font&gt;&lt;/div&gt;&lt;div style=&quot;line-height: 90%;&quot;&gt;&lt;font style=&quot;font-size: 16px; line-height: 90%;&quot;&gt;&amp;lt;type of interface&amp;gt;: REST API (Firebase/Auth0).&lt;/font&gt;&lt;/div&gt;&lt;div&gt;&lt;font style=&quot;font-size: 16px;&quot;&gt;&lt;br&gt;&lt;/font&gt;&lt;/div&gt;&lt;div style=&quot;line-height: 90%;&quot;&gt;&lt;font style=&quot;font-size: 16px; line-height: 90%;&quot;&gt;Real-Time Sync Service:&lt;/font&gt;&lt;/div&gt;&lt;div style=&quot;line-height: 90%;&quot;&gt;&lt;font style=&quot;font-size: 16px; line-height: 90%;&quot;&gt;&amp;lt;Purpose&amp;gt;: Synchronize schedules, notes, and files across devices in real time.&lt;/font&gt;&lt;/div&gt;&lt;div style=&quot;line-height: 90%;&quot;&gt;&lt;font style=&quot;font-size: 16px; line-height: 90%;&quot;&gt;&amp;lt;type of interface&amp;gt;: WebSocket API (AWS/Database).&lt;/font&gt;&lt;/div&gt;&lt;div&gt;&lt;font style=&quot;font-size: 16px;&quot;&gt;&lt;br&gt;&lt;/font&gt;&lt;/div&gt;&lt;div style=&quot;line-height: 90%;&quot;&gt;&lt;font style=&quot;font-size: 16px; line-height: 90%;&quot;&gt;File Storage Service:&lt;/font&gt;&lt;/div&gt;&lt;div style=&quot;line-height: 90%;&quot;&gt;&lt;font style=&quot;font-size: 16px; line-height: 90%;&quot;&gt;&amp;lt;Purpose&amp;gt;: Store and manage uploaded files (PDFs, notes, slides).&lt;/font&gt;&lt;/div&gt;&lt;div style=&quot;line-height: 90%;&quot;&gt;&lt;font style=&quot;font-size: 16px; line-height: 90%;&quot;&gt;&amp;lt;type of interface&amp;gt;: REST API (Google Drive/OneDrive/Dropbox integration).&lt;/font&gt;&lt;/div&gt;&lt;div&gt;&lt;font style=&quot;font-size: 16px;&quot;&gt;&lt;br&gt;&lt;/font&gt;&lt;/div&gt;&lt;div style=&quot;line-height: 90%;&quot;&gt;&lt;font style=&quot;font-size: 16px; line-height: 90%;&quot;&gt;Calendar Sync Service:&lt;/font&gt;&lt;/div&gt;&lt;div style=&quot;line-height: 90%;&quot;&gt;&lt;font style=&quot;font-size: 16px; line-height: 90%;&quot;&gt;&amp;lt;Purpose&amp;gt;: Sync class schedules and deadlines with external calendars (Google/Apple Calendar).&lt;/font&gt;&lt;/div&gt;&lt;div style=&quot;line-height: 90%;&quot;&gt;&lt;font style=&quot;font-size: 16px; line-height: 90%;&quot;&gt;&amp;lt;type of interface&amp;gt;: REST API (Google Calendar API/Apple Calendar API).&lt;/font&gt;&lt;/div&gt;&lt;div&gt;&lt;font style=&quot;font-size: 16px;&quot;&gt;&lt;br&gt;&lt;/font&gt;&lt;/div&gt;&lt;div style=&quot;line-height: 90%;&quot;&gt;&lt;font style=&quot;font-size: 16px; line-height: 90%;&quot;&gt;Campus Navigation Service:&lt;/font&gt;&lt;/div&gt;&lt;div style=&quot;line-height: 90%;&quot;&gt;&lt;font style=&quot;font-size: 16px; line-height: 90%;&quot;&gt;&amp;lt;Purpose&amp;gt;: Provide real-time campus maps and classroom location assistance.&lt;/font&gt;&lt;/div&gt;&lt;div style=&quot;line-height: 90%;&quot;&gt;&lt;font style=&quot;font-size: 16px; line-height: 90%;&quot;&gt;&amp;lt;type of interface&amp;gt;: REST API (Google Maps API).&lt;/font&gt;&lt;/div&gt;&lt;div&gt;&lt;font style=&quot;font-size: 16px;&quot;&gt;&lt;br&gt;&lt;/font&gt;&lt;/div&gt;&lt;div style=&quot;line-height: 90%;&quot;&gt;&lt;font style=&quot;font-size: 16px; line-height: 90%;&quot;&gt;Notification Service:&lt;/font&gt;&lt;/div&gt;&lt;div style=&quot;line-height: 90%;&quot;&gt;&lt;font style=&quot;font-size: 16px; line-height: 90%;&quot;&gt;&amp;lt;Purpose&amp;gt;: Send reminders for deadlines, class times, and updates.&lt;/font&gt;&lt;/div&gt;&lt;div style=&quot;line-height: 90%;&quot;&gt;&lt;font style=&quot;font-size: 16px; line-height: 90%;&quot;&gt;&amp;lt;type of interface&amp;gt;: Push Notification API (Firebase Cloud Messaging).&lt;/font&gt;&lt;/div&gt;" style="text;html=1;strokeColor=none;fillColor=none;align=center;verticalAlign=middle;whiteSpace=wrap;rounded=0;fontSize=21;" parent="1" vertex="1">
          <mxGeometry x="1785" y="450" width="525" height="20" as="geometry" />
        </mxCell>
        <mxCell id="ly8vjeuDFz9xC9aqF5E0-6" value="&lt;div&gt;Balancing simplicity with feature richness to avoid overwhelming users.&lt;/div&gt;&lt;div&gt;&lt;br&gt;&lt;/div&gt;&lt;div&gt;Ensuring seamless integration of social features (e.g., peer collaboration) without compromising privacy.&lt;/div&gt;" style="text;html=1;strokeColor=none;fillColor=none;align=center;verticalAlign=middle;whiteSpace=wrap;rounded=0;fontSize=21;" parent="1" vertex="1">
          <mxGeometry x="35" y="940" width="563" height="20" as="geometry" />
        </mxCell>
        <mxCell id="ly8vjeuDFz9xC9aqF5E0-7" value="&lt;div&gt;Cross-platform compatibility (iOS/Android) with consistent performance.&lt;/div&gt;&lt;div&gt;&lt;br&gt;&lt;/div&gt;&lt;div&gt;Differentiating from competitors while maintaining a user-friendly interface.&lt;/div&gt;" style="text;html=1;strokeColor=none;fillColor=none;align=center;verticalAlign=middle;whiteSpace=wrap;rounded=0;fontSize=21;" parent="1" vertex="1">
          <mxGeometry x="721" y="960" width="600" height="20" as="geometry" />
        </mxCell>
        <mxCell id="ly8vjeuDFz9xC9aqF5E0-8" value="&lt;div&gt;Scalability to handle large volumes of user data and real-time syncing.&lt;/div&gt;&lt;div&gt;&lt;br&gt;&lt;/div&gt;&lt;div&gt;Ensuring data security and compliance with privacy regulations (e.g., GDPR).&lt;/div&gt;" style="text;html=1;strokeColor=none;fillColor=none;align=center;verticalAlign=middle;whiteSpace=wrap;rounded=0;fontSize=21;" parent="1" vertex="1">
          <mxGeometry x="1800" y="960" width="500.5" height="20" as="geometry" />
        </mxCell>
      </root>
    </mxGraphModel>
  </diagram>
</mxfile>
